<svg width="420" height="320" viewBox="0 0 420 320" fill="none" xmlns="http://www.w3.org/2000/svg">
<path d="M383.51 315.513C383.51 317.297 326.93 318.739 257.215 318.739C187.5 318.739 130.919 317.297 130.919 315.513C130.919 313.729 187.5 312.298 257.215 312.298C326.93 312.298 383.51 313.739 383.51 315.513Z" fill="#263238"/>
<path d="M283.585 16.5613H164.918C161.224 16.5613 158.229 19.549 158.229 23.2345V69.5132C158.229 73.1987 161.224 76.1864 164.918 76.1864H283.585C287.279 76.1864 290.274 73.1987 290.274 69.5132V23.2345C290.274 19.549 287.279 16.5613 283.585 16.5613Z" fill="#4074BA"/>
<path d="M158.229 65.7029V87.2244L170.263 73.4042" fill="#4074BA"/>
<path d="M283.595 16.5613H164.888C164.01 16.5613 163.14 16.734 162.33 17.0694C161.519 17.4049 160.782 17.8966 160.162 18.5164C159.541 19.1362 159.05 19.8719 158.715 20.6815C158.38 21.4911 158.208 22.3586 158.209 23.2345V87.2243L167.828 76.1864H283.595C284.473 76.1864 285.343 76.0137 286.154 75.6782C286.964 75.3427 287.701 74.851 288.321 74.2312C288.942 73.6114 289.433 72.8757 289.769 72.0661C290.104 71.2566 290.275 70.3891 290.274 69.5132V23.2345C290.275 22.3586 290.104 21.4911 289.769 20.6815C289.433 19.8719 288.942 19.1362 288.321 18.5164C287.701 17.8966 286.964 17.4049 286.154 17.0694C285.343 16.734 284.473 16.5613 283.595 16.5613Z" fill="#4074BA"/>
<path opacity="0.1" d="M283.595 16.5613H164.888C164.01 16.5613 163.14 16.734 162.33 17.0694C161.519 17.4049 160.782 17.8966 160.162 18.5164C159.541 19.1362 159.05 19.8719 158.715 20.6815C158.38 21.4911 158.208 22.3586 158.209 23.2345V87.2243L167.828 76.1864H283.595C284.473 76.1864 285.343 76.0137 286.154 75.6782C286.964 75.3427 287.701 74.851 288.321 74.2312C288.942 73.6114 289.433 72.8757 289.769 72.0661C290.104 71.2566 290.275 70.3891 290.274 69.5132V23.2345C290.275 22.3586 290.104 21.4911 289.769 20.6815C289.433 19.8719 288.942 19.1362 288.321 18.5164C287.701 17.8966 286.964 17.4049 286.154 17.0694C285.343 16.734 284.473 16.5613 283.595 16.5613Z" fill="#4074BA"/>
<path d="M259.862 49.272H174.597C173.965 49.272 173.358 49.0214 172.911 48.5752C172.464 48.1291 172.213 47.524 172.213 46.893C172.215 46.2638 172.468 45.6613 172.915 45.2174C173.362 44.7734 173.967 44.5242 174.597 44.5242H259.862C260.493 44.5242 261.098 44.7734 261.544 45.2174C261.991 45.6613 262.244 46.2638 262.246 46.893C262.246 47.2054 262.185 47.5148 262.065 47.8034C261.945 48.0921 261.769 48.3543 261.548 48.5752C261.327 48.7961 261.064 48.9714 260.774 49.0909C260.485 49.2105 260.175 49.272 259.862 49.272Z" fill="white"/>
<path d="M259.862 60.1987H174.597C174.284 60.1987 173.974 60.1372 173.685 60.0177C173.395 59.8981 173.133 59.7229 172.911 59.502C172.69 59.2811 172.514 59.0188 172.394 58.7302C172.274 58.4416 172.213 58.1322 172.213 57.8198C172.215 57.1906 172.468 56.5881 172.915 56.1441C173.362 55.7002 173.967 55.4509 174.597 55.4509H259.862C260.493 55.4509 261.098 55.7002 261.544 56.1441C261.991 56.5881 262.244 57.1906 262.246 57.8198C262.246 58.1322 262.185 58.4416 262.065 58.7302C261.945 59.0188 261.769 59.2811 261.548 59.502C261.327 59.7229 261.064 59.8981 260.774 60.0177C260.485 60.1372 260.175 60.1987 259.862 60.1987Z" fill="white"/>
<path d="M179.356 38.345C184.088 38.345 187.924 34.5179 187.924 29.7969C187.924 25.0759 184.088 21.2488 179.356 21.2488C174.624 21.2488 170.788 25.0759 170.788 29.7969C170.788 34.5179 174.624 38.345 179.356 38.345Z" fill="white"/>
<path d="M283.585 97.2542H164.918C161.224 97.2542 158.229 100.242 158.229 103.927V150.206C158.229 153.892 161.224 156.879 164.918 156.879H283.585C287.279 156.879 290.274 153.892 290.274 150.206V103.927C290.274 100.242 287.279 97.2542 283.585 97.2542Z" fill="#4074BA"/>
<path d="M158.229 146.386V167.917L170.263 154.087" fill="#4074BA"/>
<path d="M283.595 97.2542H164.888C163.116 97.2542 161.418 97.9561 160.165 99.2057C158.913 100.455 158.209 102.15 158.209 103.917V167.917L167.828 156.829H283.595C285.367 156.829 287.065 156.127 288.318 154.877C289.57 153.628 290.274 151.933 290.274 150.166V103.917C290.274 102.15 289.57 100.455 288.318 99.2057C287.065 97.9561 285.367 97.2542 283.595 97.2542Z" fill="#4074BA"/>
<path opacity="0.1" d="M283.595 97.2542H164.888C163.116 97.2542 161.418 97.9561 160.165 99.2057C158.913 100.455 158.209 102.15 158.209 103.917V167.917L167.828 156.829H283.595C285.367 156.829 287.065 156.127 288.318 154.877C289.57 153.628 290.274 151.933 290.274 150.166V103.917C290.274 102.15 289.57 100.455 288.318 99.2057C287.065 97.9561 285.367 97.2542 283.595 97.2542Z" fill="#4074BA"/>
<path d="M259.862 129.955H174.597C173.967 129.955 173.362 129.706 172.915 129.262C172.468 128.818 172.215 128.215 172.213 127.586C172.213 126.955 172.464 126.35 172.911 125.904C173.358 125.458 173.965 125.207 174.597 125.207H259.862C260.175 125.207 260.485 125.269 260.774 125.388C261.064 125.508 261.327 125.683 261.548 125.904C261.769 126.125 261.945 126.387 262.065 126.676C262.185 126.964 262.246 127.274 262.246 127.586C262.244 128.215 261.991 128.818 261.544 129.262C261.098 129.706 260.493 129.955 259.862 129.955Z" fill="white"/>
<path d="M259.862 140.882H174.597C173.967 140.882 173.362 140.633 172.915 140.189C172.468 139.745 172.215 139.142 172.213 138.513C172.213 137.882 172.464 137.277 172.911 136.831C173.358 136.385 173.965 136.134 174.597 136.134H259.862C260.175 136.134 260.485 136.196 260.774 136.315C261.064 136.435 261.327 136.61 261.548 136.831C261.769 137.052 261.945 137.314 262.065 137.603C262.185 137.891 262.246 138.201 262.246 138.513C262.244 139.142 261.991 139.745 261.544 140.189C261.098 140.633 260.493 140.882 259.862 140.882Z" fill="white"/>
<path d="M179.356 119.028C184.088 119.028 187.924 115.2 187.924 110.48C187.924 105.759 184.088 101.931 179.356 101.931C174.624 101.931 170.788 105.759 170.788 110.48C170.788 115.2 174.624 119.028 179.356 119.028Z" fill="white"/>
<path d="M66.5286 215.395C66.4377 215.395 66.0336 209.075 66.0538 208.672C66.2862 204.005 69.4991 195.114 74.5813 193.763C75.4296 193.561 76.3112 193.539 77.1685 193.7C78.0258 193.86 78.8394 194.2 79.5564 194.695C80.2734 195.191 80.8776 195.832 81.3295 196.576C81.7815 197.32 82.071 198.151 82.1792 199.015C82.7652 202.664 80.3808 206.555 77.966 209.095C75.1167 212.039 66.5286 215.395 66.5286 215.395Z" fill="#263238"/>
<path d="M59.9006 191.041C59.8097 191.041 60.3654 184.731 60.4462 184.328C61.3959 179.751 65.9224 171.445 71.1359 170.881C72.0054 170.81 72.8801 170.922 73.7032 171.211C74.5263 171.499 75.2792 171.958 75.913 172.556C76.5469 173.154 77.0473 173.878 77.3819 174.682C77.7164 175.486 77.8776 176.351 77.8548 177.221C77.8548 180.921 74.9348 184.409 72.1664 186.536C68.9029 189.035 59.9006 191.041 59.9006 191.041Z" fill="#263238"/>
<path d="M58.2233 162.302C58.1324 162.302 58.6982 155.992 58.779 155.589C59.7186 151.013 64.2451 142.706 69.4687 142.142C70.3377 142.071 71.212 142.183 72.0346 142.472C72.8572 142.76 73.6095 143.219 74.2426 143.817C74.8756 144.415 75.3751 145.14 75.7085 145.944C76.0419 146.748 76.2017 147.613 76.1775 148.482C76.1775 152.182 73.2676 155.66 70.4891 157.797C67.2257 160.297 58.2334 162.302 58.2233 162.302Z" fill="#263238"/>
<path d="M55.3236 135.257C55.2326 135.257 55.7985 128.936 55.8793 128.543C56.8189 123.957 61.3454 115.661 66.569 115.086C67.4385 115.016 68.3131 115.13 69.1356 115.42C69.9582 115.71 70.7104 116.169 71.3433 116.768C71.9761 117.367 72.4754 118.093 72.8087 118.897C73.142 119.701 73.3019 120.567 73.2778 121.437C73.2778 125.126 70.3679 128.614 67.5894 130.741C64.3259 133.241 55.3337 135.257 55.3236 135.257Z" fill="#263238"/>
<path d="M46.6749 113.554C46.5941 113.554 45.4625 107.334 45.4321 106.931C45.129 102.264 47.3013 93.0606 52.1814 91.1453C53.0008 90.8469 53.8741 90.7242 54.7442 90.7853C55.6144 90.8464 56.4618 91.0899 57.2313 91.4999C58.0007 91.9099 58.6749 92.4771 59.2097 93.1647C59.7445 93.8522 60.1279 94.6445 60.335 95.4899C61.3454 99.0483 59.4257 103.181 57.3039 105.963C54.8386 109.239 46.6749 113.554 46.6749 113.554Z" fill="#263238"/>
<path d="M63.8511 215.466C63.9522 215.466 61.1939 209.71 60.9716 209.368C58.476 205.416 51.3125 199.227 46.2304 200.527C45.3925 200.766 44.6144 201.178 43.9469 201.737C43.2793 202.296 42.7373 202.989 42.356 203.77C41.9747 204.552 41.7628 205.405 41.734 206.274C41.7052 207.143 41.8602 208.008 42.1889 208.813C43.462 212.291 47.4428 214.519 50.7972 215.537C54.7578 216.736 63.8511 215.466 63.8511 215.466Z" fill="#263238"/>
<path d="M58.5467 187.786C58.6477 187.786 55.0407 182.504 54.778 182.201C51.7469 178.663 43.664 173.633 38.8648 175.679C38.0706 176.041 37.3618 176.565 36.7848 177.219C36.2077 177.872 35.7753 178.64 35.5159 179.471C35.2566 180.303 35.176 181.179 35.2795 182.044C35.383 182.909 35.6682 183.742 36.1166 184.489C37.8948 187.725 42.1788 189.328 45.6443 189.832C49.706 190.417 58.5467 187.786 58.5467 187.786Z" fill="#263238"/>
<path d="M57.021 160.67C57.1119 160.67 53.515 155.387 53.2523 155.085C50.2212 151.547 42.1383 146.517 37.329 148.573C36.5263 148.932 35.8091 149.457 35.2249 150.113C34.6406 150.769 34.2027 151.542 33.9401 152.379C33.6774 153.217 33.596 154.101 33.7012 154.972C33.8065 155.843 34.0959 156.682 34.5505 157.434C36.3388 160.67 40.6127 162.272 44.0883 162.766C48.1803 163.311 57.021 160.68 57.021 160.67Z" fill="#263238"/>
<path d="M54.4041 135.791C54.5051 135.791 50.8981 130.509 50.6354 130.207C47.6043 126.669 39.5214 121.638 34.7221 123.685C33.928 124.046 33.2192 124.571 32.6421 125.224C32.065 125.878 31.6327 126.645 31.3733 127.477C31.1139 128.308 31.0333 129.185 31.1368 130.05C31.2403 130.915 31.5256 131.748 31.9739 132.495C33.7522 135.741 38.0361 137.334 41.5017 137.838C45.5634 138.422 54.4041 135.791 54.4041 135.791Z" fill="#263238"/>
<path d="M46.7355 114.37C46.8265 114.37 42.6941 109.512 42.3708 109.229C38.9355 106.054 30.408 101.931 25.8311 104.502C25.0796 104.948 24.4313 105.548 23.9286 106.262C23.4259 106.976 23.0802 107.788 22.9142 108.645C22.7482 109.502 22.7656 110.384 22.9653 111.233C23.165 112.083 23.5425 112.88 24.073 113.574C26.2049 116.598 30.6303 117.727 34.1767 117.838C38.2384 117.959 46.7355 114.381 46.7355 114.37Z" fill="#263238"/>
<path d="M35.7125 96.6698C35.8034 96.6698 34.3485 90.4805 34.2171 90.0974C32.6309 85.6923 26.9728 78.122 21.7189 78.2934C20.8481 78.3462 19.9982 78.5813 19.2245 78.9835C18.4508 79.3857 17.7707 79.9459 17.2284 80.6277C16.6861 81.3095 16.2937 82.0975 16.0769 82.9406C15.8601 83.7837 15.8237 84.6629 15.97 85.521C16.4751 89.1902 19.8801 92.2143 22.9314 93.928C26.5182 95.944 35.7024 96.6698 35.7125 96.6698Z" fill="#263238"/>
<path d="M75.3592 248.056C75.3592 248.056 74.2781 245.586 72.5807 241.262C70.8833 236.937 68.5392 230.698 66.0537 223.117C64.811 219.327 63.548 215.194 62.3154 210.789C61.689 208.571 61.1232 206.344 60.5068 203.954C60.2441 202.785 59.9916 201.606 59.7289 200.416C59.4662 199.227 59.2843 197.967 59.062 196.727C58.2645 191.642 57.7484 186.516 57.5162 181.375C57.2636 176.143 57.1625 170.851 57.0312 165.559C56.8998 160.266 56.7685 154.994 56.3441 149.833C55.974 144.779 55.2481 139.756 54.1718 134.803C53.0877 130.191 51.5932 125.684 49.706 121.336C48.0207 117.425 46.1078 113.614 43.9773 109.925C42.0273 106.468 40.0267 103.434 38.2384 100.752C36.45 98.0708 34.7728 95.8128 33.3684 93.9681C30.5596 90.2787 28.8016 88.303 28.8016 88.303C28.8016 88.303 30.6 90.2485 33.4998 93.8673C34.9345 95.6919 36.6521 97.8994 38.5516 100.561C40.4511 103.222 42.4718 106.206 44.5027 109.633C46.742 113.3 48.7661 117.093 50.5648 120.993C52.5802 125.351 54.2064 129.878 55.4247 134.521C56.6239 139.496 57.4713 144.549 57.9607 149.642C58.4962 154.853 58.769 160.156 58.9711 165.448C59.1732 170.74 59.4258 176.012 59.7895 181.183C60.13 186.226 60.7438 191.246 61.6283 196.223C61.8809 197.422 62.0325 198.592 62.3457 199.781C62.6589 200.971 62.9216 202.14 63.2045 203.299C63.8309 205.507 64.4675 207.805 65.1343 209.952C66.4377 214.277 67.7815 218.339 69.0949 222.049C71.7017 229.508 74.1468 235.617 75.9351 239.871C77.7235 244.125 78.8248 246.483 78.8248 246.483C78.9913 246.919 78.9862 247.402 78.8103 247.834C78.6345 248.266 78.301 248.616 77.877 248.813C77.4531 249.01 76.9701 249.039 76.5255 248.895C76.0808 248.751 75.7074 248.444 75.4805 248.036L75.3592 248.056Z" fill="#263238"/>
<path d="M99.1532 208.984C99.0623 208.984 100.487 202.785 100.618 202.402C102.174 197.997 107.792 190.386 113.036 190.527C113.906 190.574 114.758 190.803 115.534 191.2C116.31 191.597 116.993 192.152 117.54 192.831C118.086 193.509 118.483 194.294 118.704 195.136C118.926 195.977 118.967 196.856 118.825 197.715C118.35 201.384 114.965 204.438 111.924 206.172C108.307 208.208 99.2138 208.984 99.1532 208.984Z" fill="#263238"/>
<path d="M99.7393 183.764C99.6484 183.764 101.992 177.836 102.184 177.484C104.397 173.351 111.096 166.678 116.259 167.615C117.113 167.793 117.92 168.149 118.627 168.659C119.334 169.169 119.925 169.821 120.363 170.575C120.8 171.328 121.074 172.164 121.166 173.03C121.258 173.896 121.166 174.771 120.896 175.599C119.886 179.157 116.057 181.647 112.813 182.907C108.944 184.379 99.7494 183.764 99.7393 183.764Z" fill="#263238"/>
<path d="M106.286 155.73C106.185 155.73 108.529 149.803 108.721 149.45C110.934 145.327 117.643 138.654 122.806 139.581C123.66 139.761 124.467 140.117 125.174 140.629C125.881 141.14 126.472 141.794 126.908 142.548C127.345 143.302 127.617 144.139 127.708 145.006C127.798 145.872 127.705 146.747 127.433 147.575C126.423 151.123 122.594 153.623 119.35 154.883C115.531 156.355 106.286 155.73 106.286 155.73Z" fill="#263238"/>
<path d="M111.247 128.987C111.146 128.987 113.49 123.07 113.682 122.707C115.895 118.584 122.604 111.911 127.767 112.849C128.621 113.027 129.427 113.382 130.134 113.892C130.841 114.402 131.432 115.055 131.869 115.809C132.305 116.562 132.578 117.399 132.668 118.265C132.759 119.13 132.666 120.005 132.394 120.832C131.384 124.391 127.555 126.88 124.311 128.141C120.432 129.612 111.247 128.987 111.247 128.987Z" fill="#263238"/>
<path d="M109.156 105.712C109.055 105.712 109.752 99.4113 109.843 99.0182C110.853 94.4518 115.582 86.2464 120.815 85.7928C121.686 85.7409 122.558 85.8723 123.374 86.1786C124.19 86.4849 124.932 86.9591 125.553 87.5705C126.173 88.1818 126.658 88.9166 126.975 89.7271C127.292 90.5375 127.434 91.4054 127.393 92.2744C127.393 95.9739 124.362 99.3911 121.513 101.458C118.199 103.887 109.156 105.712 109.156 105.712Z" fill="#263238"/>
<path d="M96.6071 208.299C96.698 208.299 95.6877 202.029 95.5967 201.646C94.3338 197.14 89.2314 189.177 83.9876 188.975C83.1146 188.965 82.2494 189.139 81.4482 189.485C80.647 189.831 79.928 190.342 79.3379 190.984C78.7478 191.626 78.3 192.385 78.0235 193.211C77.7471 194.037 77.6482 194.912 77.7335 195.779C77.9659 199.469 81.1485 202.735 84.0685 204.66C87.4835 206.928 96.597 208.299 96.6071 208.299Z" fill="#263238"/>
<path d="M99.3756 180.256C99.4766 180.256 97.5165 174.207 97.3548 173.824C95.4149 169.56 89.1608 162.464 83.9473 163.059C83.0834 163.182 82.2551 163.485 81.5165 163.948C80.7778 164.412 80.1453 165.026 79.6602 165.749C79.175 166.473 78.8481 167.29 78.7006 168.149C78.5532 169.007 78.5886 169.886 78.8045 170.73C79.5926 174.338 83.24 177.09 86.4126 178.552C90.1206 180.276 99.3655 180.256 99.3756 180.256Z" fill="#263238"/>
<path d="M105.64 153.825C105.731 153.825 103.781 147.777 103.619 147.394C101.689 143.14 95.4351 136.043 90.2216 136.638C89.3546 136.759 88.5231 137.062 87.7815 137.526C87.04 137.991 86.4051 138.606 85.9186 139.332C85.4321 140.058 85.1049 140.879 84.9584 141.74C84.812 142.601 84.8495 143.484 85.0687 144.329C85.8669 147.948 89.5042 150.69 92.6869 152.152C96.4151 153.845 105.63 153.825 105.64 153.825Z" fill="#263238"/>
<path d="M110.217 129.209C110.318 129.209 108.358 123.161 108.196 122.778C106.256 118.524 100.012 111.417 94.7885 112.022C93.925 112.144 93.0969 112.446 92.3582 112.908C91.6196 113.371 90.987 113.984 90.5017 114.706C90.0165 115.429 89.6894 116.246 89.5419 117.104C89.3944 117.961 89.4298 118.84 89.6457 119.683C90.4338 123.302 94.0812 126.044 97.2639 127.505C100.992 129.209 110.217 129.209 110.217 129.209Z" fill="#263238"/>
<path d="M108.964 106.518C109.065 106.518 106.458 100.702 106.246 100.349C103.851 96.3169 96.8597 89.9563 91.7372 91.1256C90.8918 91.3415 90.1017 91.7329 89.4183 92.2743C88.7349 92.8157 88.1737 93.4948 87.7713 94.2673C87.3689 95.0398 87.1344 95.8882 87.0831 96.7573C87.0317 97.6264 87.1648 98.4965 87.4734 99.3108C88.6555 102.809 92.5758 105.137 95.8999 106.246C99.7999 107.546 108.964 106.518 108.964 106.518Z" fill="#263238"/>
<path d="M103.447 86.4178C103.528 86.4178 103.902 80.0974 103.872 79.6942C103.609 75.0169 100.345 66.1462 95.2633 64.8257C94.4134 64.6299 93.5317 64.6148 92.6755 64.7814C91.8194 64.9481 91.008 65.2927 90.2941 65.7928C89.5803 66.293 88.98 66.9375 88.5323 67.6844C88.0846 68.4313 87.7996 69.2639 87.6957 70.128C87.1299 73.7871 89.5345 77.658 91.9695 80.2083C94.8289 83.1114 103.437 86.4077 103.447 86.4178Z" fill="#263238"/>
<path d="M98.3247 242.804C98.3247 242.804 97.9812 240.133 97.5871 235.496C97.1931 230.859 96.7182 224.226 96.5061 216.252C96.3949 212.22 96.3545 207.946 96.4353 203.37C96.4353 201.071 96.5566 198.773 96.6475 196.314C96.7283 195.124 96.8193 193.914 96.9001 192.705C96.9809 191.495 97.183 190.225 97.3143 188.975C98.007 183.886 98.975 178.839 100.214 173.855C101.457 168.764 102.871 163.653 104.256 158.553C105.64 153.452 107.004 148.351 108.075 143.271C109.159 138.322 109.892 133.303 110.267 128.251C110.527 123.519 110.365 118.772 109.782 114.068C109.283 109.838 108.534 105.64 107.539 101.498C106.65 97.6272 105.609 94.1495 104.66 91.075C103.71 88.0005 102.73 85.3493 101.922 83.1922C100.275 78.8576 99.1532 76.4585 99.1532 76.4585C99.1532 76.4585 100.325 78.8374 102.063 83.1317C102.932 85.2788 103.932 87.9097 104.983 90.9641C106.034 94.0184 107.125 97.4961 108.095 101.357C109.186 105.504 110.033 109.711 110.631 113.957C111.326 118.709 111.597 123.512 111.439 128.312C111.169 133.437 110.538 138.537 109.55 143.573C108.54 148.714 107.327 153.875 106.044 159.016C104.761 164.157 103.467 169.278 102.346 174.338C101.232 179.269 100.389 184.256 99.8201 189.277C99.719 190.497 99.5372 191.656 99.4967 192.886C99.4563 194.116 99.3755 195.316 99.3149 196.505C99.3149 198.803 99.2442 201.182 99.3149 203.43C99.3149 207.956 99.4664 212.23 99.6685 216.172C100.042 224.065 100.679 230.627 101.154 235.193C101.629 239.76 102.033 242.36 102.033 242.36C102.068 242.599 102.056 242.843 101.996 243.077C101.937 243.311 101.832 243.531 101.688 243.725C101.543 243.919 101.362 244.082 101.154 244.206C100.947 244.33 100.716 244.412 100.477 244.447C100.237 244.482 99.9932 244.47 99.7585 244.411C99.5238 244.352 99.303 244.247 99.1088 244.103C98.9146 243.959 98.7508 243.778 98.6266 243.571C98.5025 243.363 98.4205 243.134 98.3853 242.895V242.844L98.3247 242.804Z" fill="#263238"/>
<path d="M110.045 309.455H67.2661L55.2327 239.558H122.078L110.045 309.455Z" fill="#263238"/>
<path d="M185.398 316.068C236.774 316.068 278.422 274.516 278.422 223.258C278.422 172.001 236.774 130.449 185.398 130.449C134.022 130.449 92.3737 172.001 92.3737 223.258C92.3737 274.516 134.022 316.068 185.398 316.068Z" fill="#4074BA"/>
<path d="M185.398 316.532C166.908 316.532 148.832 311.061 133.458 300.812C118.084 290.563 106.101 275.996 99.0253 258.952C91.9493 241.909 90.0979 223.155 93.7052 205.062C97.3125 186.968 106.216 170.349 119.291 157.304C132.366 144.26 149.024 135.376 167.159 131.777C185.294 128.178 204.092 130.026 221.175 137.085C238.258 144.145 252.859 156.1 263.131 171.439C273.404 186.777 278.887 204.811 278.887 223.258C278.858 247.987 268.998 271.694 251.472 289.18C233.946 306.666 210.184 316.502 185.398 316.532ZM185.398 130.902C167.089 130.902 149.192 136.319 133.969 146.467C118.746 156.615 106.881 171.039 99.8747 187.915C92.8684 204.791 91.0352 223.361 94.607 241.276C98.1788 259.191 106.995 275.648 119.941 288.564C132.887 301.48 149.382 310.276 167.339 313.84C185.295 317.403 203.908 315.574 220.823 308.584C237.738 301.594 252.195 289.756 262.367 274.569C272.538 259.381 277.968 241.525 277.968 223.258C277.944 198.771 268.183 175.294 250.828 157.979C233.473 140.665 209.942 130.926 185.398 130.902Z" fill="#263238"/>
<path d="M160.755 284.295C152.886 281.398 145.673 276.967 139.537 271.261C133.348 265.325 128.552 258.096 125.493 250.092C122.025 241.118 120.307 231.565 120.431 221.948C120.365 213.736 121.817 205.583 124.715 197.896C127.335 190.846 131.26 184.349 136.284 178.744C146.213 167.882 159.053 160.085 173.284 156.275C180.266 154.406 187.464 153.457 194.693 153.452C200.692 153.43 206.671 154.141 212.496 155.569C218.125 156.959 223.513 159.185 228.48 162.172C233.388 165.119 237.786 168.84 241.504 173.189C245.393 177.863 248.359 183.229 250.243 189.005C252.425 195.581 253.501 202.472 253.426 209.398C253.35 222.723 248.567 235.594 239.917 245.748C236.178 250.008 231.736 253.598 226.783 256.362C222.52 258.829 217.696 260.168 212.769 260.253C209.387 260.294 206.084 259.232 203.362 257.229C201.988 256.222 200.869 254.908 200.096 253.392C199.322 251.876 198.915 250.201 198.907 248.499C193.141 256.604 185.341 260.656 175.506 260.656C167.498 260.656 161.099 257.925 156.31 252.461C151.52 246.998 149.136 240.277 149.156 232.3C149.178 226.232 150.237 220.212 152.288 214.499C154.295 208.722 157.171 203.284 160.816 198.37C164.434 193.524 169.055 189.512 174.365 186.606C179.66 183.622 185.641 182.059 191.723 182.07C195.948 182.027 200.117 183.043 203.847 185.024C207.482 186.947 210.429 189.948 212.284 193.612L213.072 191.052C213.432 189.976 214.042 189.001 214.852 188.205C215.662 187.409 216.649 186.816 217.732 186.473C218.816 186.13 219.965 186.047 221.086 186.232C222.208 186.416 223.27 186.862 224.186 187.534C224.77 188.01 225.234 188.616 225.54 189.305C225.845 189.993 225.984 190.744 225.944 191.495C225.945 192.216 225.825 192.931 225.59 193.612L213.052 235.193C211.637 239.951 210.93 243.214 210.93 244.981C210.93 247.979 212.462 249.474 215.527 249.467C219.528 249.467 223.458 247.633 227.318 243.963C231.477 239.824 234.686 234.833 236.725 229.337C239.125 223.324 240.353 216.909 240.342 210.436C240.4 204.734 239.565 199.057 237.866 193.612C236.457 188.917 234.208 184.515 231.228 180.619C228.399 177.069 224.981 174.028 221.124 171.627C217.273 169.208 213.071 167.395 208.667 166.254C204.154 165.08 199.509 164.488 194.845 164.49C188.915 164.498 183.015 165.329 177.315 166.96C171.463 168.631 165.885 171.14 160.755 174.409C155.582 177.668 150.898 181.642 146.842 186.213C142.66 191.026 139.399 196.565 137.224 202.553C134.804 209.082 133.592 215.995 133.647 222.956C133.516 231.201 135.016 239.392 138.062 247.058C140.662 253.706 144.791 259.652 150.116 264.416C155.249 268.873 161.18 272.324 167.595 274.587C174.358 276.976 181.487 278.17 188.661 278.115C196.331 278.129 203.956 276.97 211.273 274.678C212.012 274.429 212.788 274.31 213.567 274.325C214.308 274.295 215.046 274.426 215.732 274.707C216.417 274.989 217.033 275.416 217.538 275.958C218.507 276.963 219.047 278.304 219.043 279.698C219.139 280.82 218.824 281.938 218.158 282.846C217.491 283.754 216.517 284.391 215.416 284.637C206.284 287.425 196.796 288.878 187.247 288.952C178.206 289.019 169.228 287.441 160.755 284.295ZM192.683 244.296C196.492 241.553 199.324 237.669 200.766 233.208L208.849 204.842L208.313 203.692C207.799 202.757 207.179 201.885 206.464 201.092C205.498 199.984 204.447 198.953 203.322 198.007C201.876 196.846 200.233 195.951 198.472 195.366C193.898 193.751 188.88 193.924 184.428 195.85C182.008 196.891 179.783 198.336 177.851 200.124C175.833 201.999 174.04 204.099 172.506 206.384C170.904 208.749 169.55 211.273 168.464 213.914C167.377 216.546 166.535 219.273 165.948 222.059C165.37 224.708 165.072 227.411 165.059 230.123C165.049 231.862 165.153 233.599 165.373 235.324C165.56 236.853 165.899 238.359 166.383 239.82C166.81 241.144 167.419 242.402 168.191 243.56C168.904 244.632 169.8 245.57 170.839 246.332C171.943 247.138 173.186 247.736 174.506 248.096C176.058 248.527 177.664 248.734 179.275 248.711C184.111 248.763 188.828 247.21 192.683 244.296Z" fill="#F8F8F8"/>
<path d="M311.906 145.206C311.906 145.206 308.875 150.831 308.43 151.617C307.986 152.404 306.359 156.658 306.844 157.666C307.329 158.674 307.794 159.248 308.754 159.409C309.713 159.571 310.501 161.315 312.088 161.627C313.086 161.825 314.101 161.933 315.119 161.95C315.368 162.133 315.657 162.256 315.961 162.31C316.266 162.364 316.579 162.348 316.877 162.262C317.827 161.95 318.625 161.476 319.261 158.774C319.65 157.436 319.757 156.033 319.575 154.652L319.292 149.198L311.906 145.206Z" fill="white"/>
<path d="M316.311 162.847C315.831 162.84 315.362 162.701 314.957 162.444C313.959 162.417 312.966 162.305 311.987 162.111C311.079 161.864 310.266 161.351 309.653 160.639C309.38 160.314 309.034 160.058 308.642 159.893C308.123 159.778 307.642 159.532 307.244 159.179C306.846 158.826 306.545 158.378 306.369 157.877C305.712 156.577 307.622 151.95 307.976 151.365C308.44 150.589 311.411 145.025 311.441 144.964C311.507 144.848 311.616 144.761 311.744 144.722C311.867 144.673 312.005 144.673 312.128 144.722L319.504 148.704C319.579 148.747 319.643 148.809 319.689 148.883C319.735 148.957 319.761 149.041 319.766 149.127L320.049 154.571C320.234 156 320.121 157.452 319.716 158.835C319.09 161.526 318.271 162.272 316.998 162.696C316.778 162.782 316.547 162.833 316.311 162.847ZM312.118 145.892C311.391 147.242 309.269 151.204 308.865 151.879C308.309 152.797 306.975 156.799 307.288 157.424C307.794 158.432 308.178 158.794 308.834 158.905C309.432 159.082 309.964 159.433 310.36 159.913C310.837 160.487 311.473 160.908 312.189 161.123C313.152 161.309 314.128 161.413 315.109 161.435C315.226 161.435 315.34 161.474 315.432 161.546C315.613 161.678 315.822 161.767 316.042 161.807C316.262 161.847 316.489 161.837 316.705 161.778C317.402 161.546 318.13 161.304 318.726 158.653C319.093 157.384 319.199 156.054 319.039 154.742L318.766 149.5L312.118 145.892Z" fill="#263238"/>
<path d="M329.426 296.663C329.426 296.663 325.111 303.669 325.111 305.363C325.111 307.056 331.052 310.171 333.598 311.3C336.145 312.429 340.671 313.316 344.349 313.84C348.026 314.364 355.665 315.856 353.442 312.993C351.219 310.131 337.559 302.591 336.993 301.693C336.292 300.856 335.507 300.092 334.649 299.415L329.426 296.663Z" fill="white"/>
<path d="M351.603 315.191C349.447 315.104 347.3 314.864 345.177 314.475L344.268 314.334C339.135 313.548 335.478 312.681 333.396 311.753C333.033 311.592 324.606 307.832 324.606 305.362C324.606 303.578 328.547 297.127 328.991 296.391C329.06 296.284 329.166 296.206 329.29 296.172C329.413 296.139 329.544 296.152 329.658 296.21L334.882 298.972C335.819 299.687 336.67 300.509 337.418 301.421C337.66 301.703 339.883 303.094 342.035 304.445C346.622 307.298 352.32 310.856 353.796 312.691C354.331 313.356 354.462 313.931 354.18 314.405C353.897 314.878 353.008 315.191 351.603 315.191ZM329.577 297.328C327.94 300.03 325.586 304.294 325.586 305.393C325.586 306.491 329.911 309.153 333.77 310.866C335.791 311.753 339.347 312.59 344.399 313.366L345.298 313.507C347.158 313.8 352.816 314.697 353.28 313.911C353.28 313.911 353.28 313.709 352.977 313.336C351.613 311.632 345.753 307.973 341.469 305.272C338.024 303.125 336.791 302.338 336.539 301.965C335.868 301.167 335.117 300.441 334.296 299.798L329.577 297.328Z" fill="#263238"/>
<path d="M336.185 307.701L337.7 309.959C339.33 312.426 341.544 314.455 344.147 315.866C348.188 318.044 354.412 320.533 359.848 319.042C368.759 316.592 346.329 303.094 346.329 303.094C346.329 303.094 338.337 308.639 336.185 307.701Z" fill="white"/>
<path d="M356.311 319.999C351.825 319.999 347.218 318.124 343.904 316.31C341.233 314.863 338.958 312.787 337.276 310.261L335.76 307.993C335.697 307.907 335.663 307.803 335.663 307.696C335.663 307.589 335.697 307.485 335.76 307.399C335.832 307.315 335.928 307.256 336.035 307.23C336.143 307.205 336.255 307.214 336.357 307.258C337.66 307.822 342.783 304.929 346.006 302.701C346.086 302.647 346.181 302.617 346.278 302.617C346.376 302.617 346.471 302.647 346.551 302.701C348.238 303.709 363.03 312.782 362.394 317.378C362.252 318.386 361.383 319.152 359.949 319.556C358.762 319.865 357.538 320.015 356.311 319.999ZM337.175 308.266L338.115 309.687C339.703 312.079 341.854 314.048 344.379 315.423C348.501 317.64 354.483 319.989 359.716 318.558C361.292 318.114 361.393 317.429 361.424 317.207C361.878 313.911 350.946 306.502 346.339 303.699C344.733 304.768 339.903 307.943 337.175 308.266Z" fill="#263238"/>
<path d="M338.751 308.77C341.206 312.474 344.926 315.164 349.219 316.34C356.544 318.426 358.645 317.902 360.211 315.816" fill="white"/>
<path d="M356.21 318.174C353.787 318.038 351.392 317.583 349.087 316.824C344.659 315.63 340.825 312.853 338.317 309.021C338.283 308.965 338.26 308.902 338.251 308.836C338.241 308.771 338.245 308.704 338.262 308.64C338.279 308.576 338.309 308.517 338.35 308.464C338.39 308.412 338.441 308.368 338.499 308.336C338.616 308.269 338.754 308.251 338.884 308.285C339.015 308.319 339.126 308.402 339.196 308.517C341.598 312.095 345.203 314.698 349.36 315.856C356.503 317.872 358.453 317.368 359.807 315.513C359.889 315.408 360.009 315.339 360.14 315.321C360.272 315.302 360.406 315.335 360.514 315.412C360.622 315.493 360.693 315.612 360.711 315.744C360.73 315.877 360.696 316.011 360.616 316.118C360.121 316.81 359.455 317.363 358.683 317.723C357.912 318.083 357.06 318.239 356.21 318.174Z" fill="#263238"/>
<path d="M325.667 304.072C325.667 304.072 333.75 309.848 337.701 309.959L325.667 304.072Z" fill="white"/>
<path d="M337.66 310.463C333.619 310.352 325.687 304.717 325.354 304.485C325.247 304.405 325.176 304.287 325.155 304.155C325.135 304.023 325.166 303.889 325.243 303.78C325.28 303.726 325.328 303.679 325.383 303.644C325.439 303.608 325.501 303.584 325.566 303.573C325.631 303.562 325.697 303.564 325.761 303.578C325.826 303.593 325.886 303.62 325.94 303.659C326.021 303.719 333.952 309.354 337.69 309.455C337.825 309.46 337.953 309.518 338.045 309.616C338.138 309.714 338.188 309.844 338.185 309.979C338.183 310.045 338.167 310.11 338.139 310.171C338.112 310.231 338.072 310.285 338.023 310.33C337.975 310.375 337.917 310.41 337.855 310.432C337.793 310.455 337.726 310.466 337.66 310.463Z" fill="#263238"/>
<path d="M308.117 147.142C308.117 147.142 315.291 159.006 316.826 161.758C318.362 164.51 337.721 186.596 345.399 205.608C353.078 224.619 360.464 241.776 360.151 247.3C359.838 252.824 334.629 299.415 334.629 299.415L329.405 296.663C329.405 296.663 337.387 252.814 336.478 248.217C335.569 243.621 307.349 197.937 307.349 197.937C307.349 197.937 294.134 188.743 288.607 178.008" fill="#263238"/>
<path d="M309.137 176.788C309.137 176.788 305.146 185.366 305.146 186.596C305.146 187.826 327.577 253.741 334.033 268.761C338.119 278.382 341.708 288.207 344.783 298.195C344.783 298.195 347.248 301.219 345.399 304.324C343.55 307.429 336.185 309.536 334.649 306.774C333.113 304.012 318.049 289.637 311.603 275.202C305.157 260.767 295.932 236.262 290.698 227.069C283.804 215.297 277.649 203.11 272.269 190.578C265.5 174.641 258.538 157.363 258.538 157.363C267.662 158.124 276.847 157.097 285.576 154.339C299.721 149.742 305.783 140.942 305.783 140.942C305.783 140.942 309.38 150.115 310.299 151.89" fill="#263238"/>
<path d="M311.249 202.674C311.179 202.673 311.111 202.652 311.054 202.612C310.996 202.573 310.952 202.517 310.926 202.453L303.853 184.106C303.829 184.038 303.825 183.964 303.843 183.894C303.861 183.824 303.9 183.761 303.954 183.713L311.876 176.939C311.943 176.877 312.031 176.842 312.123 176.842C312.215 176.842 312.303 176.877 312.371 176.939C312.432 177.005 312.467 177.091 312.467 177.181C312.467 177.271 312.432 177.358 312.371 177.423L304.631 184.046L311.613 202.19C311.646 202.276 311.645 202.371 311.609 202.456C311.573 202.541 311.506 202.608 311.421 202.644L311.249 202.674Z" fill="white"/>
<path d="M304.166 184.318C304.08 184.319 303.997 184.286 303.934 184.227C303.899 184.195 303.871 184.156 303.852 184.113C303.833 184.07 303.823 184.023 303.823 183.975C303.823 183.925 303.823 178.391 301.337 174.903C300.721 174.006 300.226 173.3 299.812 172.726C298.518 170.891 298.124 170.337 297.892 169.419C297.732 168.347 297.732 167.256 297.892 166.184C297.909 166.095 297.959 166.015 298.032 165.961C298.105 165.907 298.196 165.882 298.286 165.891C298.331 165.897 298.375 165.913 298.414 165.936C298.454 165.959 298.488 165.99 298.515 166.026C298.543 166.063 298.562 166.105 298.573 166.149C298.584 166.193 298.586 166.239 298.579 166.284C298.436 167.271 298.436 168.272 298.579 169.258C298.781 170.044 299.125 170.528 300.398 172.333C300.802 172.907 301.307 173.613 301.923 174.51C304.166 177.726 304.48 182.342 304.53 183.663L318.887 183.108C318.979 183.108 319.067 183.142 319.134 183.204C319.202 183.265 319.243 183.35 319.251 183.441C319.254 183.486 319.247 183.532 319.232 183.575C319.216 183.617 319.192 183.656 319.161 183.689C319.13 183.723 319.092 183.749 319.05 183.767C319.008 183.785 318.963 183.794 318.918 183.794L304.207 184.358L304.166 184.318Z" fill="white"/>
<path d="M352.28 249.578C345.884 249.578 337.761 245.445 337.397 245.263C337.317 245.221 337.257 245.148 337.23 245.061C337.204 244.974 337.213 244.88 337.256 244.8C337.276 244.759 337.304 244.723 337.339 244.693C337.373 244.664 337.413 244.641 337.457 244.627C337.5 244.613 337.545 244.608 337.591 244.611C337.636 244.615 337.68 244.628 337.721 244.649C337.812 244.699 347.046 249.396 353.371 248.842C353.417 248.838 353.463 248.843 353.507 248.857C353.551 248.871 353.592 248.894 353.627 248.924C353.662 248.954 353.69 248.991 353.71 249.032C353.731 249.074 353.743 249.119 353.745 249.165C353.749 249.21 353.744 249.255 353.731 249.298C353.717 249.341 353.695 249.381 353.666 249.416C353.637 249.451 353.602 249.479 353.561 249.5C353.521 249.521 353.477 249.534 353.432 249.537C353.058 249.568 352.674 249.578 352.28 249.578Z" fill="white"/>
<path d="M351.421 254.9H351.34C345.672 253.479 339.307 248.277 339.034 248.056C338.972 247.99 338.938 247.904 338.938 247.814C338.938 247.724 338.972 247.637 339.034 247.572C339.063 247.537 339.098 247.507 339.137 247.486C339.177 247.464 339.221 247.451 339.266 247.446C339.311 247.441 339.357 247.446 339.4 247.458C339.444 247.471 339.484 247.493 339.519 247.521C339.58 247.572 346.036 252.854 351.553 254.225C351.596 254.237 351.638 254.257 351.674 254.284C351.71 254.312 351.74 254.347 351.762 254.386C351.785 254.425 351.799 254.469 351.805 254.514C351.811 254.559 351.807 254.605 351.795 254.648C351.776 254.729 351.727 254.8 351.657 254.847C351.588 254.894 351.504 254.913 351.421 254.9Z" fill="white"/>
<path d="M303.884 178.955C303.829 178.955 303.774 178.942 303.725 178.918C303.676 178.893 303.634 178.858 303.601 178.814C303.574 178.777 303.555 178.734 303.545 178.689C303.536 178.644 303.535 178.598 303.543 178.553C303.552 178.508 303.569 178.465 303.595 178.427C303.62 178.388 303.653 178.356 303.692 178.33C305.056 177.383 307.218 175.558 307.218 174.661C307.218 174.066 306.48 173.361 305.692 172.645C304.82 171.918 304.099 171.028 303.57 170.024C303.055 168.825 301.206 164.117 301.55 162.968C301.563 162.925 301.585 162.885 301.615 162.85C301.644 162.816 301.68 162.787 301.72 162.767C301.761 162.746 301.805 162.734 301.85 162.73C301.895 162.727 301.941 162.732 301.984 162.746C302.072 162.776 302.145 162.839 302.186 162.922C302.228 163.005 302.235 163.101 302.206 163.19C301.994 163.805 303.095 167.222 304.176 169.722C304.671 170.633 305.336 171.441 306.137 172.101C307.076 172.998 307.885 173.764 307.885 174.651C307.885 176.203 304.449 178.613 304.055 178.885C304.005 178.923 303.946 178.947 303.884 178.955Z" fill="white"/>
<path d="M270.218 180.931C270.145 180.934 270.073 180.914 270.013 180.873C269.952 180.832 269.906 180.773 269.881 180.705C269.856 180.636 269.854 180.562 269.875 180.492C269.895 180.422 269.938 180.36 269.996 180.316L272.825 178.058C275.543 175.901 277.22 170.387 277.24 170.327C277.268 170.239 277.329 170.166 277.41 170.123C277.491 170.079 277.586 170.069 277.675 170.095C277.762 170.123 277.836 170.184 277.879 170.264C277.922 170.345 277.932 170.44 277.907 170.528C277.836 170.76 276.139 176.304 273.259 178.592L270.43 180.85C270.371 180.901 270.296 180.93 270.218 180.931Z" fill="white"/>
<path d="M337.387 308.145C337.337 308.143 337.287 308.13 337.242 308.108C337.196 308.085 337.156 308.053 337.125 308.014C333.507 303.59 330.241 298.891 327.354 293.962C323.444 286.986 312.199 267.904 312.078 267.753C311.036 265.457 310.263 263.048 309.774 260.576C309.703 260.193 309.653 259.84 309.602 259.568C309.228 257.027 309.067 255.979 305.682 253.802C302.297 251.624 302.085 247.834 301.802 243.772C301.742 242.814 301.671 241.826 301.56 240.849C301.105 236.816 290.375 218.672 282.545 205.487C280.766 202.463 279.15 199.761 277.836 197.513C270.824 185.477 265.975 169.651 265.924 169.49C265.899 169.402 265.909 169.307 265.952 169.226C265.996 169.145 266.069 169.084 266.156 169.056C266.2 169.043 266.245 169.038 266.29 169.042C266.335 169.046 266.379 169.06 266.419 169.081C266.458 169.103 266.493 169.133 266.521 169.168C266.549 169.204 266.569 169.245 266.581 169.288C266.631 169.45 271.461 185.205 278.432 197.16C279.746 199.408 281.362 202.14 283.141 205.134C291.011 218.39 301.782 236.554 302.247 240.768C302.358 241.776 302.429 242.784 302.499 243.731C302.772 247.764 303.004 251.272 306.056 253.227C309.703 255.566 309.885 256.785 310.289 259.457C310.289 259.789 310.39 260.132 310.451 260.515C310.931 262.915 311.683 265.252 312.694 267.481C312.785 267.652 324.04 286.734 327.96 293.69C330.829 298.579 334.072 303.24 337.66 307.631C337.689 307.666 337.71 307.706 337.723 307.749C337.736 307.793 337.74 307.838 337.736 307.883C337.731 307.928 337.717 307.972 337.696 308.011C337.674 308.051 337.645 308.086 337.609 308.115C337.541 308.148 337.463 308.159 337.387 308.145Z" fill="white"/>
<path d="M258.538 157.363C258.538 157.363 259.185 164.5 262.014 166.758C264.843 169.016 273.33 170.992 284.929 168.774C296.528 166.556 309.259 156.678 310.39 153.25C311.522 149.823 305.763 140.952 305.763 140.952C305.763 140.952 299.074 150.428 280.403 153.533C261.731 156.637 258.538 157.363 258.538 157.363Z" fill="white"/>
<path d="M275.098 170.236C268.258 170.236 263.57 168.653 261.691 167.151C258.73 164.782 258.063 157.716 258.033 157.413C258.022 157.293 258.055 157.173 258.126 157.075C258.196 156.977 258.3 156.908 258.417 156.879C258.548 156.879 261.842 156.063 280.322 152.988C298.508 149.964 305.278 140.71 305.349 140.62C305.396 140.554 305.458 140.501 305.53 140.464C305.602 140.428 305.682 140.408 305.763 140.408C305.846 140.41 305.927 140.432 305.999 140.472C306.071 140.513 306.132 140.57 306.177 140.64C306.783 141.567 312.037 149.853 310.865 153.371C309.622 157.081 296.599 166.97 285.02 169.228C281.753 169.881 278.43 170.218 275.098 170.236ZM259.094 157.766C259.286 159.319 260.104 164.581 262.327 166.365C264.853 168.381 272.946 170.558 284.828 168.24C296.508 165.962 308.905 156.073 309.915 153.049C310.714 150.65 307.45 144.591 305.712 141.789C303.914 143.936 296.7 151.295 280.453 153.986C265.48 156.486 260.448 157.434 259.094 157.766Z" fill="#263238"/>
<path d="M333.113 88.1818C328.496 85.1577 292.547 57.2151 289.163 55.9853C285.778 54.7555 279.059 55.9853 279.059 55.9853C279.059 55.9853 258.225 58.5255 253.86 60.2795C253.446 60.4408 244.06 65.8237 243.757 66.1059C240.372 68.8679 225.57 75.6621 221.589 84.2505C217.073 93.9679 256.76 152.474 258.609 157.373C260.458 162.272 270.147 163.482 279.059 162.252C287.97 161.022 295.791 159.228 302.247 151.859C303.417 150.392 304.398 148.783 305.167 147.071C306.089 145.158 306.325 142.987 305.834 140.922C303.53 131.346 297.65 103.736 293.77 85.4803C300.236 89.6435 313.684 98.1009 321.504 101.085C331.951 105.117 339.943 102.314 339.943 98.9375C339.943 95.5606 337.721 91.2463 333.113 88.1818Z" fill="white"/>
<path d="M320.635 94.1396C314.476 93.5332 308.509 91.6554 303.116 88.6257C303.116 88.6257 311.108 84.9464 311.411 83.1017C311.714 81.257 300.347 82.7993 301.883 82.1844C303.419 81.5695 305.571 80.0373 301.883 80.0373C298.943 79.8444 296.047 79.2264 293.285 78.2026L293.699 85.4504C297.215 87.7185 302.792 91.2365 308.39 94.4622C313.655 97.2237 319.076 99.6774 324.626 101.811C324.626 101.811 331.386 95.3694 320.635 94.1396Z" fill="#4074BA"/>
<g style="mix-blend-mode:multiply">
<path d="M278.988 162.242L280.13 162.081C282.595 160.891 286.768 160.145 290.83 159.137C296.973 157.605 290.213 157.605 280.069 152.394C269.925 147.182 265.924 139.521 256.71 128.483C247.495 117.445 243.807 111.921 245.656 110.701C247.505 109.482 241.968 109.472 239.816 108.242C237.664 107.012 242.847 107.022 247.192 102.728C251.537 98.4337 238.887 103.645 237.664 103.343C236.442 103.04 238.887 99.0486 238.887 99.0486L229.975 108.242L251.486 145.035L252.719 145.952L254.133 147.968L258.175 156.637C258.336 156.94 258.447 157.192 258.518 157.363C260.377 162.272 270.077 163.482 278.988 162.242Z" fill="#4074BA"/>
</g>
<path d="M238.25 76.5191C245.05 75.511 264.004 86.297 264.004 86.297C253.588 79.2407 244.474 72.6281 238.24 69.6443L226.752 77.7085L225.964 78.4444C227.298 78.1823 232.41 77.3456 238.25 76.5191Z" fill="#4074BA"/>
<path opacity="0.5" d="M320.635 94.1396C314.476 93.5332 308.509 91.6554 303.116 88.6257C303.116 88.6257 311.108 84.9464 311.411 83.1017C311.714 81.257 300.347 82.7993 301.883 82.1844C303.419 81.5695 305.571 80.0373 301.883 80.0373C298.943 79.8444 296.047 79.2264 293.285 78.2026L293.699 85.4504C297.215 87.7185 302.792 91.2365 308.39 94.4622C313.655 97.2237 319.076 99.6774 324.626 101.811C324.626 101.811 331.386 95.3694 320.635 94.1396Z" fill="white"/>
<path opacity="0.5" d="M278.988 162.242L280.13 162.081C282.595 160.891 286.768 160.145 290.83 159.137C296.973 157.605 290.213 157.605 280.069 152.394C269.925 147.182 265.924 139.521 256.71 128.483C247.495 117.445 243.807 111.921 245.656 110.701C247.505 109.482 241.968 109.472 239.816 108.242C237.664 107.012 242.847 107.022 247.192 102.728C251.537 98.4337 238.887 103.645 237.664 103.343C236.442 103.04 238.887 99.0486 238.887 99.0486L229.975 108.242L251.486 145.035L252.719 145.952L254.133 147.968L258.175 156.637C258.336 156.94 258.447 157.192 258.518 157.363C260.377 162.272 270.077 163.482 278.988 162.242Z" fill="white"/>
<path opacity="0.5" d="M238.25 76.5191C245.05 75.511 264.004 86.297 264.004 86.297C253.588 79.2407 244.474 72.6281 238.24 69.6443L226.752 77.7085L225.964 78.4444C227.298 78.1823 232.41 77.3456 238.25 76.5191Z" fill="white"/>
<path d="M272.522 163.2C265.712 163.2 259.579 161.577 258.063 157.545C257.619 156.355 254.628 151.496 250.839 145.388C234.744 119.34 217.841 90.954 221.064 84.0288C224.095 77.4967 233.057 72.1038 238.988 68.5353C240.499 67.6787 241.96 66.7363 243.363 65.7128C243.726 65.4205 253.133 60.0175 253.638 59.8159C258.023 58.0518 278.109 55.5922 278.968 55.4914C279.221 55.441 285.869 54.2515 289.334 55.4914C291.577 56.3079 306.945 67.9103 319.292 77.2346C325.98 82.2748 331.749 86.6497 333.386 87.7383C338.539 91.1656 340.378 95.7421 340.378 98.8872C340.341 99.4709 340.159 100.036 339.849 100.533C339.538 101.029 339.109 101.44 338.6 101.73C335.619 103.746 329.102 104.502 321.252 101.508C315.765 99.4114 306.511 94.2401 294.447 86.5085C298.488 105.712 304.035 131.578 306.248 140.771C306.769 142.951 306.522 145.243 305.551 147.263C304.761 149.022 303.742 150.669 302.52 152.162C295.77 159.853 287.556 161.546 279.029 162.716C276.873 163.026 274.699 163.187 272.522 163.2ZM285.05 55.945C283.063 55.9749 281.08 56.1535 279.12 56.4793C278.877 56.4793 258.276 59.0296 254.012 60.7432C253.456 60.9952 244.454 66.1664 243.999 66.4991C242.561 67.5538 241.059 68.5199 239.503 69.3922C233.683 72.9001 224.893 78.2024 221.983 84.5126C218.71 91.5689 240.17 126.255 251.698 144.914C255.81 151.567 258.528 156.002 259.013 157.242C260.802 162 270.582 162.938 278.917 161.788C287.253 160.639 295.275 158.996 301.792 151.567C302.938 150.135 303.895 148.563 304.641 146.89C305.51 145.083 305.731 143.033 305.268 141.083C303.005 131.689 297.306 104.925 293.204 85.6416C293.184 85.5431 293.194 85.441 293.231 85.3478C293.269 85.2547 293.333 85.1746 293.416 85.1174C293.499 85.0633 293.595 85.0344 293.694 85.0344C293.793 85.0344 293.889 85.0633 293.972 85.1174C306.48 93.1817 316.038 98.5545 321.615 100.671C329.072 103.524 335.356 102.849 338.024 101.014C338.391 100.807 338.704 100.517 338.938 100.167C339.171 99.8164 339.319 99.4159 339.368 98.9981C339.368 96.1151 337.65 91.8914 332.831 88.6859C331.163 87.5771 325.384 83.2123 318.685 78.152C307.036 69.3619 291.092 57.3159 288.991 56.5498C287.719 56.1352 286.388 55.9309 285.05 55.945Z" fill="#263238"/>
<path d="M226.459 77.9705C226.459 77.9705 222.771 82.0026 221.337 83.8675C213.638 93.7361 189.136 125.358 188.864 127.908C188.591 130.459 189.753 132.172 195.744 134.471C201.736 136.769 241.817 96.6997 241.817 96.6997" fill="white"/>
<g style="mix-blend-mode:multiply" opacity="0.8">
<path d="M226.52 78.0918L226.005 78.4244C225.257 79.251 223.64 81.0554 222.387 82.5372L203.777 106.891C203.777 106.891 203.201 107.536 202.291 108.605C195.31 117.889 189.227 126.266 188.853 127.758C188.853 127.808 188.853 127.858 188.853 127.899C188.611 130.308 189.783 132.142 195.744 134.431C196.805 134.834 198.907 133.927 201.665 132.163C200.263 131.882 198.925 131.349 197.714 130.59C194.33 128.443 197.098 126.296 197.098 126.296C197.098 126.296 201.493 128.05 205.828 129.229C206.727 128.554 207.666 127.828 208.626 127.062C207.703 126.459 206.828 125.785 206.009 125.046C202.322 121.679 199.25 118.302 199.25 118.302L227.419 79.0797L226.52 78.0918Z" fill="#4074BA"/>
</g>
<path opacity="0.5" d="M226.52 78.0918L226.005 78.4244C225.257 79.251 223.64 81.0554 222.387 82.5372L203.777 106.891C203.777 106.891 203.201 107.536 202.291 108.605C195.31 117.889 189.227 126.266 188.853 127.758C188.853 127.808 188.853 127.858 188.853 127.899C188.611 130.308 189.783 132.142 195.744 134.431C196.805 134.834 198.907 133.927 201.665 132.163C200.263 131.882 198.925 131.349 197.714 130.59C194.33 128.443 197.098 126.296 197.098 126.296C197.098 126.296 201.493 128.05 205.828 129.229C206.727 128.554 207.666 127.828 208.626 127.062C207.703 126.459 206.828 125.785 206.009 125.046C202.322 121.679 199.25 118.302 199.25 118.302L227.419 79.0797L226.52 78.0918Z" fill="white"/>
<path d="M196.209 135.055C195.982 135.058 195.756 135.021 195.542 134.944C189.965 132.797 188.005 130.912 188.338 127.888C188.611 125.378 208.869 99.0585 220.912 83.5953C222.347 81.7607 225.914 77.8395 226.065 77.6782C226.108 77.6246 226.162 77.5804 226.223 77.5483C226.284 77.5161 226.35 77.4968 226.419 77.4913C226.488 77.4859 226.557 77.4945 226.622 77.5167C226.687 77.5388 226.747 77.574 226.798 77.6201C226.849 77.6662 226.89 77.7223 226.919 77.7848C226.947 77.8473 226.963 77.915 226.964 77.9837C226.966 78.0524 226.953 78.1206 226.927 78.1842C226.901 78.2478 226.862 78.3054 226.813 78.3536C226.813 78.3536 223.115 82.3857 221.711 84.2203C202.251 109.199 189.541 126.386 189.379 127.999C189.146 130.146 190.147 131.82 195.946 134.047C200.119 135.65 225.459 112.395 241.473 96.3772C241.568 96.2823 241.697 96.2289 241.832 96.2289C241.966 96.2289 242.096 96.2823 242.191 96.3772C242.286 96.4721 242.339 96.6008 242.339 96.735C242.339 96.8692 242.286 96.998 242.191 97.0929C238.179 101.044 203.948 135.055 196.209 135.055Z" fill="#263238"/>
<path d="M307.561 76.136L293.699 85.4502C295.72 85.1679 305.298 81.781 305.298 81.781" fill="white"/>
<path d="M293.699 85.9544C293.597 85.9559 293.498 85.9257 293.415 85.8678C293.331 85.8099 293.268 85.7274 293.234 85.6318C293.192 85.5269 293.187 85.4106 293.22 85.3023C293.253 85.194 293.322 85.1004 293.416 85.0371L307.288 75.7229C307.343 75.6849 307.404 75.6582 307.468 75.6442C307.533 75.6303 307.6 75.6294 307.665 75.6416C307.73 75.6538 307.792 75.6789 307.847 75.7153C307.902 75.7518 307.949 75.7989 307.986 75.8539C308.059 75.9666 308.086 76.1036 308.059 76.2355C308.033 76.3674 307.956 76.4838 307.844 76.5595L296.478 84.2004C299.963 83.1319 305.066 81.3376 305.136 81.3073C305.27 81.2632 305.416 81.274 305.542 81.3374C305.668 81.4007 305.764 81.5114 305.808 81.645C305.853 81.7787 305.842 81.9244 305.778 82.0501C305.715 82.1759 305.604 82.2713 305.47 82.3154C305.076 82.4464 295.78 85.7225 293.77 86.0048L293.699 85.9544Z" fill="#263238"/>
<path d="M306.995 82.0027C306.878 82.0004 306.765 81.9581 306.675 81.883C306.585 81.8078 306.523 81.7043 306.5 81.5894C306.477 81.4585 306.506 81.3235 306.582 81.214C306.657 81.1045 306.773 81.0293 306.905 81.0047L310.016 80.4403C310.149 80.4165 310.285 80.4454 310.397 80.5207C310.508 80.5961 310.586 80.7119 310.613 80.8435C310.626 80.9098 310.625 80.978 310.611 81.0441C310.597 81.1103 310.57 81.1729 310.532 81.2284C310.493 81.2839 310.444 81.331 310.386 81.3671C310.329 81.4031 310.265 81.4273 310.198 81.4382L307.086 82.0027H306.995Z" fill="#263238"/>
<path d="M204.292 118.121C202.153 118.057 200.025 118.459 198.058 119.3L204.292 118.121Z" fill="white"/>
<path d="M198.058 119.834C197.924 119.86 197.785 119.831 197.673 119.754C197.56 119.678 197.482 119.56 197.457 119.426C197.431 119.292 197.46 119.154 197.537 119.041C197.614 118.929 197.732 118.851 197.866 118.826C199.906 117.952 202.113 117.536 204.332 117.606C204.399 117.611 204.463 117.63 204.523 117.66C204.582 117.69 204.635 117.731 204.678 117.782C204.721 117.833 204.754 117.891 204.774 117.955C204.795 118.018 204.802 118.084 204.797 118.151C204.784 118.284 204.72 118.406 204.618 118.493C204.516 118.579 204.385 118.623 204.251 118.614C202.195 118.555 200.15 118.944 198.26 119.753C198.2 119.795 198.13 119.823 198.058 119.834Z" fill="#263238"/>
<path d="M234.502 104.3C234.502 104.3 242.292 101.921 244.353 100.339L234.502 104.3Z" fill="white"/>
<path d="M234.502 104.804C234.368 104.823 234.232 104.788 234.124 104.707C234.016 104.625 233.945 104.505 233.926 104.371C233.907 104.237 233.942 104.102 234.024 103.994C234.105 103.886 234.226 103.815 234.36 103.796C234.431 103.796 242.079 101.438 244.05 99.9255C244.156 99.8442 244.29 99.8082 244.422 99.8252C244.555 99.8422 244.675 99.9109 244.757 100.016C244.836 100.123 244.871 100.256 244.854 100.387C244.837 100.519 244.769 100.639 244.666 100.722C242.544 102.345 234.977 104.663 234.653 104.754C234.607 104.781 234.555 104.798 234.502 104.804Z" fill="#263238"/>
<path d="M246.262 99.5527C246.262 99.5527 247.535 98.4438 248.01 98.4438L246.262 99.5527Z" fill="white"/>
<path d="M246.262 100.057C246.19 100.056 246.119 100.041 246.052 100.011C245.986 99.9816 245.927 99.9389 245.878 99.8855C245.785 99.7895 245.733 99.6612 245.733 99.5276C245.733 99.394 245.785 99.2657 245.878 99.1697C246.45 98.5818 247.168 98.1571 247.96 97.9399C248.094 97.9399 248.222 97.9931 248.317 98.0876C248.412 98.1821 248.465 98.3103 248.465 98.444C248.462 98.5768 248.408 98.7035 248.314 98.7975C248.22 98.8915 248.093 98.9454 247.96 98.948C247.439 99.2097 246.962 99.5497 246.545 99.956C246.464 100.019 246.365 100.054 246.262 100.057Z" fill="#263238"/>
<path d="M293.699 85.9542C293.574 85.9526 293.454 85.9058 293.361 85.8223C293.268 85.7388 293.209 85.6245 293.194 85.5006L291.931 72.5474C291.924 72.4812 291.931 72.4144 291.95 72.3507C291.969 72.287 292.001 72.2277 292.043 72.1762C292.085 72.1248 292.137 72.0821 292.196 72.0506C292.255 72.0192 292.319 71.9996 292.386 71.993C292.452 71.9864 292.519 71.9929 292.583 72.0121C292.647 72.0313 292.706 72.0628 292.758 72.105C292.809 72.1471 292.852 72.1989 292.883 72.2576C292.915 72.3162 292.935 72.3804 292.941 72.4466L294.214 85.4099C294.221 85.4756 294.215 85.542 294.196 85.6052C294.176 85.6685 294.145 85.7272 294.102 85.7779C294.06 85.8287 294.008 85.8705 293.949 85.9007C293.89 85.931 293.826 85.9492 293.76 85.9542H293.699Z" fill="#263238"/>
<path d="M188.833 128.04C188.833 128.04 187.045 134.864 198.513 137.697C203.958 139.037 239.998 147.777 239.998 147.777C239.998 147.777 243.221 140.882 241.382 140.882C239.543 140.882 206.313 118.836 206.313 118.836" fill="white"/>
<path d="M194.188 136.194L235.977 146.839L237.088 144.198C237.088 144.198 221.347 141.053 211.516 136.134C201.685 131.215 201.059 132.757 197.684 130.62C194.309 128.483 197.068 126.326 197.068 126.326C197.068 126.326 206.292 130.005 211.213 130.307C216.133 130.61 209.677 128.473 205.989 125.096C204.464 123.705 203.049 122.304 201.948 121.155L188.813 128.029C188.813 128.029 187.54 132.979 194.188 136.194Z" fill="#4074BA"/>
<path opacity="0.5" d="M194.188 136.194L235.977 146.839L237.088 144.198C237.088 144.198 221.347 141.053 211.516 136.134C201.685 131.215 201.059 132.757 197.684 130.62C194.309 128.483 197.068 126.326 197.068 126.326C197.068 126.326 206.292 130.005 211.213 130.307C216.133 130.61 209.677 128.473 205.989 125.096C204.464 123.705 203.049 122.304 201.948 121.155L188.813 128.029C188.813 128.029 187.54 132.979 194.188 136.194Z" fill="white"/>
<path d="M239.998 148.361H239.877C239.877 148.361 203.837 139.581 198.391 138.281C193.845 137.162 190.763 135.257 189.237 132.727C188.349 131.325 188.031 129.637 188.348 128.009C188.384 127.881 188.468 127.771 188.583 127.704C188.698 127.636 188.835 127.615 188.965 127.646C189.093 127.682 189.202 127.766 189.268 127.881C189.334 127.996 189.352 128.133 189.318 128.261C189.089 129.639 189.377 131.053 190.126 132.233C191.511 134.551 194.38 136.265 198.634 137.273C203.686 138.533 235.734 146.345 239.715 147.293C240.958 144.551 241.736 141.89 241.382 141.476C239.463 141.476 211.627 123.029 206.07 119.3C205.959 119.224 205.881 119.108 205.855 118.976C205.828 118.844 205.855 118.707 205.929 118.594C205.965 118.539 206.012 118.492 206.067 118.456C206.123 118.419 206.184 118.394 206.249 118.382C206.314 118.37 206.381 118.371 206.446 118.384C206.51 118.398 206.572 118.425 206.626 118.463C219.71 127.162 239.776 140.196 241.402 140.448C241.567 140.451 241.729 140.493 241.873 140.572C242.018 140.652 242.14 140.765 242.231 140.902C243.07 142.222 241.079 146.718 240.443 148.069C240.403 148.154 240.341 148.227 240.262 148.278C240.184 148.33 240.092 148.359 239.998 148.361Z" fill="#263238"/>
<path d="M241.382 140.912C241.382 140.912 253.214 146.436 254.133 147.968C255.053 149.501 257.164 157.464 257.164 159.924C257.164 162.383 256.861 162.373 255.325 162.373C253.79 162.373 249.789 156.547 248.869 155.317C247.95 154.087 245.838 154.087 243.029 152.293C242.247 151.797 241.574 151.147 241.053 150.383C240.531 149.618 240.173 148.756 239.998 147.847L241.382 140.912Z" fill="white"/>
<path d="M255.366 162.877C254.042 162.877 251.86 160.246 248.99 156.295C248.788 156.012 248.627 155.78 248.505 155.629C247.928 155.057 247.205 154.652 246.414 154.46C245.14 154.008 243.922 153.409 242.787 152.676C241.937 152.142 241.206 151.44 240.639 150.613C240.072 149.786 239.682 148.851 239.493 147.867C239.488 147.817 239.488 147.766 239.493 147.716L240.877 140.811C240.893 140.737 240.924 140.667 240.97 140.606C241.015 140.545 241.073 140.495 241.14 140.458C241.209 140.424 241.285 140.406 241.362 140.406C241.439 140.406 241.515 140.424 241.584 140.458C243.605 141.386 253.608 146.123 254.558 147.706C255.507 149.289 257.7 157.393 257.7 159.923C257.7 162.454 257.235 162.877 255.366 162.877ZM240.513 147.827C240.694 148.654 241.038 149.437 241.525 150.129C242.013 150.821 242.634 151.41 243.353 151.859C244.425 152.548 245.575 153.11 246.778 153.533C247.75 153.785 248.63 154.309 249.314 155.045C249.435 155.196 249.607 155.428 249.809 155.72C253.507 160.821 254.861 161.889 255.366 161.889C256.7 161.889 256.7 161.889 256.7 159.944C256.7 157.565 254.598 149.732 253.668 148.24C253.082 147.232 246.262 143.805 241.716 141.658L240.513 147.827Z" fill="#263238"/>
<path d="M236.331 147.132C236.28 147.141 236.229 147.141 236.179 147.132C236.115 147.113 236.056 147.081 236.005 147.038C235.954 146.995 235.912 146.942 235.882 146.883C235.852 146.824 235.834 146.759 235.829 146.693C235.825 146.626 235.834 146.56 235.856 146.497L237.695 140.801C237.713 140.736 237.745 140.676 237.788 140.623C237.83 140.57 237.883 140.527 237.943 140.495C238.003 140.463 238.069 140.444 238.137 140.438C238.204 140.432 238.272 140.44 238.337 140.461C238.402 140.482 238.461 140.515 238.512 140.56C238.564 140.605 238.605 140.659 238.635 140.72C238.665 140.781 238.682 140.847 238.685 140.915C238.688 140.983 238.678 141.05 238.654 141.114L236.816 146.809C236.777 146.906 236.71 146.988 236.623 147.046C236.537 147.103 236.435 147.133 236.331 147.132Z" fill="#263238"/>
<path d="M326.041 97.9601C326.041 97.9601 323.01 108.383 321.737 114.512C320.464 120.641 311.906 145.176 311.906 145.176L319.281 149.773C319.281 149.773 335.569 116.105 338.67 108.726C341.772 101.347 340.822 95.8432 337.751 92.7788" fill="white"/>
<path d="M319.282 150.307C319.188 150.305 319.097 150.277 319.019 150.226L311.643 145.63C311.545 145.57 311.471 145.478 311.432 145.37C311.394 145.262 311.393 145.144 311.431 145.035C311.512 144.793 320.039 120.469 321.242 114.451C322.444 108.433 325.536 97.96 325.536 97.8491C325.573 97.7155 325.662 97.6021 325.784 97.5341C325.905 97.466 326.048 97.4488 326.182 97.4862C326.316 97.5237 326.43 97.6127 326.498 97.7337C326.566 97.8546 326.584 97.9977 326.546 98.1314C326.546 98.2322 323.464 108.605 322.252 114.643C321.1 120.399 313.674 141.749 312.532 144.995L319.09 149.077C321.11 144.834 335.367 115.298 338.196 108.524C340.924 101.982 340.631 96.4278 337.387 93.1316C337.293 93.038 337.241 92.9111 337.241 92.7787C337.241 92.6464 337.293 92.5195 337.387 92.4259C337.481 92.3324 337.608 92.2798 337.741 92.2798C337.874 92.2798 338.001 92.3324 338.095 92.4259C341.651 95.9641 342.025 101.982 339.105 108.917C336.074 116.205 319.908 149.682 319.736 150.025C319.706 150.089 319.663 150.145 319.609 150.19C319.555 150.236 319.491 150.269 319.423 150.287L319.282 150.307Z" fill="#263238"/>
<path d="M313.3 141.668C313.856 141.668 320.858 145.519 320.858 145.519L313.3 141.668Z" fill="#263238"/>
<path d="M264.843 86.2969C263.146 86.0147 254.083 80.0874 247.859 75.2892C241.635 70.491 238.24 69.6442 238.24 69.6442L233.997 72.4667C233.354 70.4037 233.558 68.1709 234.562 66.2573C236.26 63.1525 242.201 60.0478 248.142 57.7898C254.083 55.5318 260.872 53.6064 265.126 53.6064C269.38 53.6064 270.501 55.2999 270.501 57.5579C270.501 59.8159 270.501 66.8721 269.087 72.2349C267.672 77.5976 264.843 86.2969 264.843 86.2969Z" fill="white"/>
<g style="mix-blend-mode:multiply">
<path d="M262.176 56.8623C262.176 56.8623 259.559 64.6846 256.942 67.0334C254.921 68.7239 252.734 70.2066 250.415 71.4586C250.415 71.4586 248.849 65.985 244.929 65.985C241.009 65.985 234.997 68.5958 234.997 68.5958C234.997 68.5958 234.997 66.5092 239.958 63.8984L244.929 61.2977L256.427 56.8623H262.176Z" fill="#4074BA"/>
</g>
<path opacity="0.5" d="M262.176 56.8623C262.176 56.8623 259.559 64.6846 256.942 67.0334C254.921 68.7239 252.734 70.2066 250.415 71.4586C250.415 71.4586 248.849 65.985 244.929 65.985C241.009 65.985 234.997 68.5958 234.997 68.5958C234.997 68.5958 234.997 66.5092 239.958 63.8984L244.929 61.2977L256.427 56.8623H262.176Z" fill="white"/>
<path d="M264.843 86.801H264.752C262.873 86.4885 253.567 80.3294 247.576 75.7127C242.373 71.6805 239.16 70.481 238.341 70.2189L234.3 72.9103C234.234 72.9501 234.16 72.976 234.084 72.9864C234.007 72.9968 233.929 72.9915 233.855 72.9708C233.783 72.9459 233.717 72.9048 233.662 72.8507C233.608 72.7965 233.567 72.7307 233.542 72.6583C233.196 71.5702 233.07 70.4242 233.172 69.2871C233.275 68.1501 233.603 67.0447 234.138 66.0356C236.159 62.2655 243.696 58.9793 247.99 57.3362C251.365 56.056 259.791 53.0723 265.166 53.0723C269.117 53.0723 271.047 54.5238 271.047 57.5278C271.047 59.8462 271.047 66.9125 269.612 72.3358C268.177 77.759 265.389 86.3877 265.358 86.4482C265.326 86.5572 265.257 86.6517 265.164 86.716C265.07 86.7802 264.957 86.8103 264.843 86.801ZM238.24 69.1403H238.361C238.503 69.1403 241.938 70.0677 248.172 74.876C254.022 79.3819 262.176 84.7446 264.51 85.6619C265.116 83.7668 267.389 76.5897 268.551 72.0333C269.956 66.7412 269.956 59.7757 269.956 57.4875C269.956 55.7839 269.38 54.04 265.086 54.04C261.428 54.04 255.305 55.5722 248.283 58.2435C241.261 60.9148 236.361 63.9288 234.967 66.4791C234.13 68.0632 233.88 69.8904 234.259 71.6402L237.917 69.2109C238.013 69.151 238.127 69.1261 238.24 69.1403Z" fill="#263238"/>
<path d="M239.655 50.4717C242.969 54.1187 245.296 58.5494 246.414 63.3443C248.253 71.3178 259.811 80.6925 262.58 80.6925C265.348 80.6925 265.156 67.0236 264.237 63.0419C263.317 59.0601 259.63 48.3246 259.63 48.3246C259.63 48.3246 244.919 41.2684 239.655 50.4717Z" fill="white"/>
<path d="M262.62 81.1963C259.65 81.1963 247.829 71.5595 245.959 63.4549C244.851 58.755 242.571 54.4105 239.331 50.8243C239.253 50.7461 239.203 50.6447 239.189 50.5354C239.174 50.4262 239.196 50.3152 239.251 50.2195C244.646 40.7238 259.731 47.7901 259.882 47.8707C259.943 47.8995 259.998 47.9401 260.043 47.9903C260.088 48.0406 260.123 48.0993 260.145 48.1631C260.296 48.5965 263.853 58.9591 264.772 62.9307C265.571 66.4185 265.944 77.8798 263.823 80.5511C263.686 80.7444 263.506 80.9034 263.298 81.0154C263.089 81.1274 262.857 81.1893 262.62 81.1963ZM240.322 50.4009C243.563 54.0627 245.837 58.4732 246.939 63.2332C248.778 71.1462 260.266 80.1882 262.62 80.1882C262.62 80.1882 262.812 80.1883 263.024 79.9161C264.742 77.769 264.631 66.8117 263.782 63.1525C262.933 59.4934 259.741 50.1993 259.256 48.6872C257.568 47.9413 245.09 42.7298 240.322 50.4009Z" fill="#263238"/>
<g style="mix-blend-mode:multiply">
<path d="M262.176 56.8623C262.176 56.8623 259.559 64.6846 256.942 67.0334C254.921 68.7239 252.735 70.2066 250.415 71.4586C250.415 71.4586 248.849 65.985 244.929 65.985C241.009 65.985 234.997 68.5958 234.997 68.5958C234.997 68.5958 234.997 66.5092 239.958 63.8984L244.929 61.2977L256.427 56.8623H262.176Z" fill="#4074BA"/>
</g>
<path opacity="0.5" d="M262.176 56.8623C262.176 56.8623 259.559 64.6846 256.942 67.0334C254.921 68.7239 252.735 70.2066 250.415 71.4586C250.415 71.4586 248.849 65.985 244.929 65.985C241.009 65.985 234.997 68.5958 234.997 68.5958C234.997 68.5958 234.997 66.5092 239.958 63.8984L244.929 61.2977L256.427 56.8623H262.176Z" fill="white"/>
<path d="M239.655 50.4717C242.969 54.1187 245.296 58.5494 246.414 63.3443C248.253 71.3178 259.811 80.6925 262.58 80.6925C265.348 80.6925 265.156 67.0236 264.237 63.0419C263.317 59.0601 259.63 48.3246 259.63 48.3246C259.63 48.3246 244.919 41.2684 239.655 50.4717Z" fill="white"/>
<path d="M262.62 81.1963C259.65 81.1963 247.829 71.5595 245.959 63.4549C244.851 58.755 242.572 54.4105 239.331 50.8243C239.253 50.7461 239.203 50.6447 239.189 50.5354C239.174 50.4262 239.196 50.3152 239.251 50.2195C244.646 40.7238 259.731 47.7901 259.882 47.8707C259.943 47.8995 259.998 47.9401 260.043 47.9903C260.088 48.0406 260.123 48.0993 260.145 48.1631C260.296 48.5965 263.853 58.9591 264.772 62.9307C265.571 66.4185 265.944 77.8798 263.823 80.5511C263.686 80.7444 263.507 80.9034 263.298 81.0154C263.089 81.1274 262.857 81.1893 262.62 81.1963ZM240.322 50.4009C243.563 54.0627 245.837 58.4732 246.939 63.2332C248.778 71.1462 260.266 80.1882 262.62 80.1882C262.62 80.1882 262.812 80.1883 263.024 79.9161C264.742 77.769 264.631 66.8117 263.782 63.1525C262.934 59.4934 259.741 50.1993 259.256 48.6872C257.568 47.9413 245.09 42.7298 240.322 50.4009Z" fill="#263238"/>
<path d="M229.945 35.6939C232.113 41.5753 234.794 47.2555 237.957 52.6692C242.625 60.3201 251.638 64.6547 256.639 62.6588C261.64 60.6628 265.045 54.2215 263.711 44.242C263.418 42.0445 261.499 41.1474 260.882 39.2019C258.67 32.1456 256.417 25.3414 255.639 22.7508C254.628 19.4142 246.626 16.0877 238.291 18.4162C229.955 20.7448 228.611 27.7002 229.945 35.6939Z" fill="white"/>
<path d="M257.639 29.5851C257.639 29.5851 254.608 31.833 247.798 30.5327C240.988 29.2323 236.3 29.5246 236.563 31.3189C236.826 33.1132 237.351 35.4821 237.351 35.4821C237.351 35.4821 229.177 28.4259 236.583 26.551C241.918 25.1699 244.999 27.2667 246.303 27.559C247.606 27.8513 257.639 29.5851 257.639 29.5851Z" fill="#4074BA"/>
<path opacity="0.5" d="M257.639 29.5851C257.639 29.5851 254.608 31.833 247.798 30.5327C240.988 29.2323 236.3 29.5246 236.563 31.3189C236.826 33.1132 237.351 35.4821 237.351 35.4821C237.351 35.4821 229.177 28.4259 236.583 26.551C241.918 25.1699 244.999 27.2667 246.303 27.559C247.606 27.8513 257.639 29.5851 257.639 29.5851Z" fill="white"/>
<path d="M253.85 63.687C248.425 63.687 241.362 59.2618 237.523 52.9616C234.332 47.5168 231.627 41.8028 229.44 35.8855C229.434 35.8589 229.434 35.8314 229.44 35.8049C227.773 25.8757 230.622 20.0191 238.139 17.9224C246.858 15.4829 255.053 19.0715 256.113 22.5896C256.477 23.8093 257.124 25.9463 258.023 28.6378C259.033 31.6618 260.175 35.321 261.347 39.0709C261.64 39.8169 262.072 40.5009 262.62 41.0869C263.437 41.9427 263.985 43.0186 264.196 44.1816C265.692 55.3808 261.367 61.3181 256.821 63.1326C255.875 63.5047 254.867 63.6929 253.85 63.687ZM230.44 35.5629C232.593 41.3967 235.25 47.0327 238.381 52.4071C243.08 60.0984 251.961 63.9793 256.457 62.1851C260.65 60.5117 264.631 54.9373 263.206 44.3026C263.021 43.331 262.562 42.4324 261.883 41.7119C261.244 41.0135 260.753 40.1942 260.438 39.3027C259.266 35.5629 258.084 31.8937 257.114 28.8797C256.255 26.2185 255.568 24.0714 255.194 22.8315C254.345 20.0292 246.879 16.491 238.462 18.7994C231.511 20.7953 228.894 26.2588 230.44 35.5629Z" fill="#263238"/>
<path d="M235.957 46.6714C235.957 46.6714 230.612 44.3428 230.278 46.6714C229.945 48.9999 232.299 50.7035 234.613 51.7115C235.19 52.0264 235.848 52.1629 236.502 52.1037C237.157 52.0444 237.78 51.7921 238.291 51.3789" fill="white"/>
<path d="M236.3 52.5985C235.652 52.5905 235.012 52.4498 234.421 52.1852C231.117 50.774 229.47 48.8083 229.783 46.6511C229.81 46.4046 229.897 46.1682 230.036 45.9626C230.175 45.7571 230.362 45.5886 230.581 45.4717C232.188 44.5746 235.755 46.0866 236.159 46.2681C236.272 46.3279 236.359 46.4287 236.401 46.5501C236.443 46.6714 236.437 46.8041 236.384 46.921C236.331 47.038 236.235 47.1305 236.117 47.1796C235.998 47.2287 235.865 47.2308 235.744 47.1854C234.411 46.6007 231.956 45.8649 231.066 46.3487C230.986 46.3928 230.917 46.4566 230.868 46.5342C230.818 46.6117 230.789 46.7005 230.784 46.7923C230.46 49.0402 233.168 50.5522 234.825 51.2578C235.311 51.5275 235.866 51.6493 236.421 51.6081C236.976 51.5669 237.506 51.3645 237.947 51.026C238.044 50.9441 238.169 50.9018 238.296 50.9075C238.423 50.9133 238.543 50.9668 238.633 51.0572C238.722 51.1476 238.774 51.2683 238.778 51.3952C238.782 51.5221 238.738 51.6459 238.654 51.7417C238.006 52.3137 237.165 52.6198 236.3 52.5985Z" fill="#263238"/>
<path d="M257.77 33.5065C257.77 33.5065 251.819 32.0952 254.366 40.0083C254.871 41.5707 258.336 43.3953 258.336 43.3953C258.336 43.3953 258.053 45.9355 256.639 46.2178" fill="white"/>
<path d="M256.629 46.7214C256.513 46.7196 256.401 46.6788 256.311 46.6056C256.221 46.5324 256.159 46.4312 256.134 46.3182C256.121 46.2526 256.121 46.1851 256.134 46.1195C256.147 46.054 256.173 45.9917 256.211 45.9363C256.249 45.881 256.297 45.8337 256.353 45.7971C256.409 45.7605 256.472 45.7355 256.538 45.7234C257.265 45.5722 257.639 44.3727 257.781 43.7074C256.851 43.1832 254.366 41.6913 253.891 40.1994C252.941 37.256 253.022 35.1593 254.123 33.9698C255.477 32.5081 257.781 33.0424 257.882 33.0625C258.011 33.0937 258.124 33.1747 258.194 33.288C258.264 33.4014 258.286 33.5377 258.255 33.6674C258.241 33.7321 258.214 33.7934 258.176 33.8475C258.137 33.9016 258.088 33.9474 258.032 33.9822C257.975 34.017 257.912 34.0401 257.846 34.0501C257.781 34.0601 257.714 34.0568 257.649 34.0403C257.649 34.0403 255.81 33.627 254.861 34.6552C253.911 35.6834 254.032 37.3568 254.861 39.8869C255.184 40.895 257.316 42.3163 258.579 42.9816C258.667 43.0315 258.738 43.1056 258.785 43.195C258.831 43.2844 258.851 43.3853 258.841 43.4856C258.841 43.788 258.468 46.4089 256.74 46.7516L256.629 46.7214Z" fill="#263238"/>
<path d="M253.517 51.8626C253.517 51.8626 249.273 52.7094 247.576 50.7336L253.517 51.8626Z" fill="white"/>
<path d="M251.486 52.5984C250.706 52.6602 249.921 52.5595 249.182 52.3027C248.443 52.0458 247.765 51.6385 247.192 51.1066C247.149 51.0563 247.116 50.998 247.095 50.935C247.075 50.8721 247.067 50.8057 247.072 50.7397C247.077 50.6738 247.095 50.6094 247.126 50.5504C247.156 50.4914 247.197 50.4389 247.247 50.3959C247.298 50.3529 247.356 50.3202 247.419 50.2997C247.482 50.2792 247.549 50.2713 247.615 50.2764C247.681 50.2816 247.746 50.2997 247.805 50.3297C247.864 50.3597 247.917 50.401 247.96 50.4513C249.445 52.1851 253.385 51.4594 253.426 51.4594C253.49 51.4447 253.557 51.4434 253.622 51.4555C253.687 51.4676 253.749 51.4928 253.804 51.5297C253.859 51.5665 253.906 51.6141 253.941 51.6696C253.977 51.7252 254.001 51.7874 254.012 51.8525C254.025 51.9174 254.025 51.9842 254.013 52.0492C254 52.1142 253.975 52.1761 253.938 52.2313C253.902 52.2865 253.855 52.334 253.8 52.3711C253.745 52.4081 253.683 52.434 253.618 52.4472C252.913 52.5587 252.2 52.6093 251.486 52.5984Z" fill="#263238"/>
<path d="M247.293 38.597C247.293 38.597 244.181 37.468 242.484 38.8792C241.575 39.5101 240.872 40.3935 240.463 41.4195" fill="white"/>
<path d="M240.503 41.9134H240.382C240.318 41.8969 240.257 41.868 240.204 41.8281C240.151 41.7883 240.106 41.7384 240.072 41.6813C240.038 41.6241 240.016 41.5609 240.007 41.4952C239.998 41.4295 240.002 41.3627 240.018 41.2985C240.441 40.1747 241.186 39.2 242.16 38.4961C244.06 36.9236 247.333 38.0829 247.465 38.1333C247.528 38.1546 247.586 38.1885 247.636 38.2329C247.686 38.2772 247.726 38.3311 247.754 38.3914C247.782 38.4517 247.798 38.517 247.801 38.5835C247.803 38.65 247.792 38.7163 247.768 38.7784C247.722 38.904 247.629 39.0064 247.507 39.0632C247.386 39.1199 247.247 39.1262 247.121 39.0808C247.121 39.0808 244.262 38.0728 242.807 39.2723C242.006 39.8519 241.38 40.64 240.998 41.5505C240.966 41.656 240.9 41.7482 240.811 41.8136C240.722 41.879 240.614 41.9139 240.503 41.9134Z" fill="#263238"/>
<path d="M247.212 43.4254C247.616 44.3629 247.535 45.2903 247.03 45.5019C246.525 45.7136 245.798 45.139 245.393 44.2016C244.989 43.2641 245.08 42.3468 245.585 42.125C246.091 41.9033 246.818 42.5182 247.212 43.4254Z" fill="#263238"/>
<path d="M257.386 38.486C257.791 39.4134 257.7 40.3408 257.205 40.5626C256.71 40.7843 255.962 40.1896 255.568 39.2622C255.174 38.3348 255.244 37.3974 255.75 37.1857C256.255 36.974 256.982 37.5586 257.386 38.486Z" fill="#263238"/>
<path d="M234.471 48.0115C234.471 48.0115 237.846 45.562 237.23 43.4149C236.613 41.2678 235.391 41.2678 236.623 40.0481C237.856 38.8284 238.765 38.2034 238.462 36.3688C238.159 34.5341 233.239 31.4597 234.775 29.625C236.31 27.7904 235.694 25.5929 248.293 28.6976C260.892 31.8024 268.884 26.863 265.197 22.2664C261.509 17.6698 258.437 17.0549 258.437 17.0549C258.437 17.0549 265.51 14.0308 259.67 10.916C253.83 7.80114 240.614 7.89186 233.239 13.678C225.863 19.4641 227.399 24.3732 227.399 24.3732C227.399 24.3732 223.408 24.9881 223.095 31.127C222.781 37.2659 234.471 48.0115 234.471 48.0115Z" fill="#263238"/>
<path d="M254.578 27.4785C251.892 27.366 249.248 26.7789 246.768 25.7446C244.824 24.9177 242.753 24.4268 240.645 24.2931C235.765 24.2931 234.754 27.0551 234.714 27.1761C234.7 27.2191 234.678 27.2589 234.649 27.2931C234.619 27.3273 234.583 27.3551 234.542 27.3749C234.502 27.3947 234.457 27.4061 234.412 27.4083C234.367 27.4105 234.322 27.4035 234.279 27.3877C234.236 27.374 234.196 27.3519 234.161 27.3226C234.127 27.2934 234.098 27.2575 234.078 27.2172C234.057 27.1769 234.045 27.1329 234.041 27.0878C234.038 27.0427 234.043 26.9973 234.057 26.9543C234.108 26.8232 235.239 23.5975 240.645 23.5975C242.834 23.7267 244.985 24.235 247 25.0995C250.142 26.2184 253.406 27.3777 257.508 26.4704C259.731 25.9765 261.034 25.1801 261.357 24.1217C261.782 22.7609 260.468 21.3395 260.458 21.3194C260.394 21.2551 260.358 21.1682 260.358 21.0775C260.358 20.9868 260.394 20.8998 260.458 20.8355C260.525 20.7732 260.614 20.7385 260.706 20.7385C260.797 20.7385 260.886 20.7732 260.953 20.8355C261.014 20.9061 262.549 22.5693 262.014 24.3132C261.6 25.6338 260.135 26.5813 257.649 27.1357C256.64 27.3583 255.611 27.4732 254.578 27.4785Z" fill="white"/>
<path d="M232.036 26.6316C231.944 26.6238 231.859 26.5805 231.799 26.5108C231.738 26.4411 231.707 26.3506 231.713 26.2586C231.713 26.188 232.309 19.535 238.22 18.0431C241.706 17.1661 245.737 17.8214 248.98 18.3455C251.001 18.6782 252.809 18.9705 253.567 18.6782C253.65 18.6604 253.737 18.6731 253.812 18.7141C253.886 18.755 253.944 18.8213 253.973 18.901C254.003 18.9806 254.002 19.0682 253.972 19.1476C253.942 19.227 253.885 19.293 253.81 19.3334C252.88 19.6761 251.112 19.3939 248.869 19.031C245.686 18.5068 241.726 17.8718 238.392 18.7084C232.956 20.0894 232.41 26.2485 232.4 26.309C232.398 26.354 232.386 26.3981 232.366 26.4387C232.347 26.4793 232.319 26.5156 232.285 26.5456C232.252 26.5756 232.212 26.5986 232.169 26.6134C232.127 26.6281 232.081 26.6343 232.036 26.6316Z" fill="white"/>
<path d="M228.126 37.0348C228.058 37.0337 227.991 37.0126 227.934 36.9744C227.027 36.2154 226.324 35.2428 225.888 34.1446C225.453 33.0463 225.298 31.857 225.439 30.6842C225.722 26.2489 229.137 26.1985 229.177 26.1985C229.259 26.2125 229.334 26.2551 229.388 26.3188C229.442 26.3824 229.471 26.463 229.471 26.5463C229.471 26.6295 229.442 26.7101 229.388 26.7738C229.334 26.8374 229.259 26.88 229.177 26.894C229.056 26.894 226.368 26.9545 226.146 30.7246C226.009 31.7793 226.138 32.8515 226.521 33.8441C226.904 34.8367 227.528 35.7185 228.338 36.4099C228.376 36.435 228.408 36.4675 228.432 36.5052C228.456 36.543 228.473 36.5852 228.48 36.6295C228.488 36.6738 228.486 36.7191 228.476 36.7628C228.465 36.8065 228.446 36.8476 228.419 36.8836C228.389 36.9328 228.345 36.9727 228.294 36.9993C228.242 37.0259 228.184 37.0382 228.126 37.0348Z" fill="white"/>
<path d="M230.218 34.1717C230.152 34.1718 230.087 34.1528 230.031 34.117C229.976 34.0812 229.932 34.0303 229.905 33.9701C229.655 33.5103 229.507 33.0025 229.471 32.481C229.434 31.9594 229.51 31.4361 229.692 30.946C230.138 29.9852 230.932 29.2287 231.915 28.8292C231.957 28.8114 232.002 28.8022 232.047 28.8022C232.092 28.8023 232.137 28.8116 232.179 28.8295C232.22 28.8474 232.258 28.8736 232.289 28.9065C232.32 28.9394 232.344 28.9782 232.36 29.0207C232.393 29.1049 232.391 29.1989 232.355 29.282C232.319 29.365 232.252 29.4306 232.168 29.4642C231.363 29.8042 230.71 30.4238 230.329 31.2081C230.186 31.6107 230.13 32.0389 230.165 32.4646C230.2 32.8902 230.324 33.3037 230.531 33.6778C230.569 33.7621 230.572 33.858 230.54 33.9447C230.508 34.0314 230.443 34.1021 230.359 34.1415C230.315 34.1612 230.266 34.1715 230.218 34.1717Z" fill="white"/>
<path d="M230.996 39.6352C230.94 39.6341 230.885 39.6198 230.836 39.5935C230.787 39.5672 230.745 39.5297 230.713 39.484L229.41 37.6696C229.356 37.5947 229.334 37.5017 229.35 37.4109C229.365 37.3202 229.415 37.2392 229.49 37.1857C229.565 37.1322 229.659 37.1107 229.75 37.1258C229.841 37.1409 229.922 37.1915 229.975 37.2663L231.279 39.0909C231.33 39.1647 231.351 39.2556 231.335 39.3443C231.32 39.4329 231.271 39.512 231.198 39.5647C231.141 39.6111 231.069 39.6361 230.996 39.6352Z" fill="white"/>
</svg>
