<svg width="416" height="303" viewBox="0 0 416 303" fill="none" xmlns="http://www.w3.org/2000/svg">
<path d="M61.9249 141.477L35.7679 217.053L147.52 255.99L173.677 180.414L61.9249 141.477Z" fill="#EBEBEB"/>
<path d="M173.67 180.396C173.229 180.655 172.765 180.872 172.283 181.044L168.226 182.69L153.217 188.581L103.441 207.697L103.027 207.85L102.795 207.479L102.222 206.576L73.5382 160.654L64.9447 146.672L62.6584 142.841C62.3755 142.405 62.1326 141.945 61.9326 141.465C62.2754 141.854 62.5793 142.276 62.8399 142.725L65.3003 146.446L74.1769 160.275L103.136 206.03C103.325 206.343 103.521 206.649 103.702 206.933L103.056 206.714L152.948 187.904L168.081 182.304L172.211 180.848C172.681 180.65 173.17 180.498 173.67 180.396Z" fill="#E0E0E0"/>
<path d="M35.7674 217.077C35.615 216.822 47.6052 209.394 62.5422 200.481C77.4792 191.567 89.7162 184.554 89.8686 184.809C90.021 185.064 78.0308 192.492 63.0866 201.405C48.1423 210.319 35.9198 217.295 35.7674 217.077Z" fill="#E0E0E0"/>
<path d="M127.342 196.767C127.618 196.672 132.364 209.875 137.938 226.194C143.513 242.514 147.802 255.877 147.519 255.972C147.236 256.066 142.496 242.863 136.922 226.544C131.348 210.224 127.059 196.861 127.342 196.767Z" fill="#E0E0E0"/>
<path d="M391.703 121.806L281.122 140.612L293.756 215.398L404.337 196.592L391.703 121.806Z" fill="#E0E0E0"/>
<path d="M391.693 121.839C391.445 122.256 391.158 122.649 390.837 123.012L388.216 126.238L378.418 138.006C370.006 147.961 358.495 161.586 345.757 176.675L345.488 176.995L345.126 176.791L344.24 176.303L299.516 151.267L286.024 143.577L282.395 141.443C281.957 141.217 281.543 140.946 281.161 140.635C281.623 140.805 282.07 141.014 282.496 141.261L286.234 143.235L299.886 150.633L344.755 175.393L345.641 175.881L345.009 175.998L377.917 137.525L387.955 125.968C389.109 124.679 390.024 123.645 390.72 122.859C391.017 122.494 391.342 122.153 391.693 121.839Z" fill="#EBEBEB"/>
<path d="M293.746 215.424C293.507 215.278 300.09 203.612 308.451 189.368C316.812 175.124 323.794 163.691 324.034 163.836C324.273 163.982 317.69 175.641 309.329 189.892C300.968 204.144 293.986 215.562 293.746 215.424Z" fill="#EBEBEB"/>
<path d="M360.636 156.634C360.825 156.43 370.797 165.205 382.824 176.245C394.85 187.285 404.518 196.402 404.322 196.636C404.126 196.869 394.204 188.05 382.134 177.024C370.064 165.999 360.418 156.86 360.636 156.634Z" fill="#EBEBEB"/>
<path d="M281.17 2.93203L261.248 53.7524L336.397 83.4079L356.319 32.5874L281.17 2.93203Z" fill="#EBEBEB"/>
<path d="M356.296 33.2649C355.991 33.4356 355.667 33.5701 355.33 33.6655L352.522 34.685L342.121 38.2897L307.638 49.9413L307.355 50.036L307.21 49.7739L306.847 49.1476L288.564 17.0254C286.278 12.9547 284.42 9.63393 283.091 7.25263L281.64 4.58003C281.455 4.27489 281.3 3.95306 281.175 3.61877C281.4 3.89351 281.599 4.18848 281.77 4.49993C282.162 5.16262 282.685 6.02921 283.345 7.10698L289.021 16.7706C293.782 25.0214 300.307 36.3089 307.507 48.8126L307.87 49.4462L307.442 49.2787L341.983 37.8309L352.434 34.4155L355.287 33.5635C355.615 33.4373 355.952 33.3374 356.296 33.2649Z" fill="#E0E0E0"/>
<path d="M261.23 54.4418C261.129 54.267 269.512 49.5262 279.949 43.8606C290.386 38.195 298.921 33.7528 299.015 33.9276C299.11 34.1024 290.741 38.8431 280.297 44.4869C269.853 50.1307 261.325 54.6238 261.23 54.4418Z" fill="#E0E0E0"/>
<path d="M324.244 43.147C324.44 43.0887 327.315 52.2134 330.66 63.5374C334.006 74.8613 336.576 84.0588 336.38 84.1171C336.184 84.1754 333.31 75.0579 329.964 63.7267C326.618 52.3955 324.048 43.2053 324.244 43.147Z" fill="#E0E0E0"/>
<path d="M416 301.61C416 301.712 322.865 301.799 208.007 301.799C93.1493 301.799 0 301.712 0 301.61C0 301.508 93.113 301.42 208.007 301.42C322.902 301.42 416 301.5 416 301.61Z" fill="#263238"/>
<path d="M20.5257 103.08L30.9047 99.388L26.441 93.4093C26.2197 92.0884 26.1129 90.7507 26.1217 89.4113C26.1241 88.7217 26.2418 88.0373 26.4701 87.3868C26.722 86.5684 27.086 85.789 27.5515 85.0711C27.667 84.949 27.7408 84.7932 27.7622 84.6263C27.7837 84.4594 27.7518 84.2899 27.671 84.1424C27.5902 83.9949 27.4648 83.877 27.3129 83.8057C27.1609 83.7344 26.9903 83.7134 26.8257 83.7457C26.0999 83.9277 24.7354 85.5881 24.1185 88.0495C23.5015 90.5109 21.8177 86.8843 21.2153 85.5808C20.6128 84.2773 18.4209 80.3157 17.8621 80.1919C17.0492 80.0099 16.708 80.8546 17.3758 82.1436C18.0435 83.4325 19.7637 87.4524 19.0524 87.7582C18.3411 88.0641 15.2129 81.3498 15.2129 81.3498C15.2129 81.3498 14.7774 79.806 13.95 80.1337C12.4548 80.7163 16.3234 87.598 16.708 88.2388C16.9766 88.6903 16.2218 89.0472 15.9822 88.552C15.7427 88.0568 12.9992 81.7868 11.475 82.3693C10.3065 82.8136 14.6032 88.0568 14.4508 89.6516C14.2984 91.2464 11.5984 85.3478 10.4952 85.8138C10.0887 85.9886 9.76938 86.178 11.8452 89.353C12.8618 90.8385 13.9544 92.2702 15.1185 93.6423L20.5403 103.066" fill="#FFBE9D"/>
<path d="M113.944 115.81C113.944 115.81 108.819 103.808 105.285 97.9753C101.953 92.4844 97.5405 91.596 95.1889 91.4212C94.2139 91.1203 93.2127 90.9131 92.1986 90.8022L73.0012 90.6493C68.8052 90.6876 64.7514 92.1797 61.5263 94.873C60.6335 95.6012 53.9925 103.335 45.174 114.346L29.7507 97.5966L20.5548 103.058C20.5548 103.058 30.5418 137.656 43.0546 135.282C50.5014 133.891 56.3078 128.706 56.3078 128.706L66.0698 120.812L66.2948 122.123C66.4907 123.718 66.9843 126.296 67.3617 127.854C68.5375 132.799 69.198 139.309 66.6359 143.621C66.6359 143.621 63.1593 146.293 65.9101 149.228H102.091C102.091 149.228 107.215 145.74 102.534 141.866L99.6308 134.503L101.525 125.517L102.251 121.919L105.437 127.396C105.437 127.396 111.737 135.348 118.291 134.372C126.166 133.192 130.731 118.795 123.626 99.7594L115.061 102.374L113.944 115.81Z" fill="#4074BA"/>
<g opacity="0.4">
<path d="M20.5258 103.08L21.433 105.964L31.6523 99.7085L29.7217 97.6185L20.5258 103.08Z" fill="black"/>
</g>
<g opacity="0.2">
<path d="M66.6286 143.621C68.1492 143.392 69.6082 142.858 70.9178 142.049C72.2274 141.241 73.3607 140.175 74.2495 138.916C75.1806 137.648 75.8524 136.208 76.2261 134.678C76.5999 133.148 76.6681 131.559 76.4269 130.003C76.3873 129.45 76.2325 128.911 75.9725 128.422C75.7124 127.933 75.3529 127.504 74.9172 127.163C73.7777 126.434 72.2172 126.813 71.0342 126.179C70.0616 125.662 69.5463 124.599 68.8568 123.725C68.1673 122.851 67.2455 121.497 66.2439 121.934C66.2439 121.934 67.456 128.342 67.9858 131.197C68.5156 134.052 68.7116 138.152 67.6882 141.145C67.4258 142.006 67.0705 142.836 66.6286 143.621Z" fill="black"/>
</g>
<path d="M43.6934 120.223C43.7037 119.197 43.8853 118.18 44.2305 117.215C44.4524 116.22 44.7583 115.245 45.145 114.302C45.1434 115.329 44.9616 116.347 44.6079 117.31C44.386 118.305 44.08 119.279 43.6934 120.223Z" fill="#263238"/>
<path d="M45.9867 118.657C45.4374 117.282 45.1422 115.819 45.1157 114.339C45.4476 115.002 45.659 115.72 45.7399 116.458C45.9458 117.171 46.0293 117.915 45.9867 118.657Z" fill="#263238"/>
<path d="M114.981 76.2667L101.844 97.6184L112.18 100.509L123.647 82.7625L114.981 76.2667Z" fill="#455A64"/>
<path d="M114.161 94.4579L114.604 97.582L116.44 99.9487L116.622 101.886L123.212 99.8759L120.548 90.4089C120.762 89.1341 120.849 87.8413 120.81 86.5493L118.995 88.9598L118.494 85.0273L114.785 82.0343C114.689 81.9633 114.58 81.9121 114.464 81.8836C114.348 81.8551 114.228 81.8498 114.11 81.8681C113.992 81.8863 113.878 81.9278 113.776 81.9901C113.674 82.0523 113.586 82.1342 113.515 82.2309C113.39 82.406 113.331 82.6198 113.348 82.8345C113.366 83.0492 113.458 83.2507 113.61 83.4034L116.593 86.0396L116.789 89.2947L114.611 87.2848C114.399 87.0853 114.135 86.9491 113.849 86.8916L110.852 86.2872C110.745 86.2664 110.635 86.2681 110.529 86.2923C110.423 86.3165 110.323 86.3626 110.235 86.4277C110.148 86.4928 110.075 86.5754 110.021 86.6703C109.967 86.7652 109.934 86.8704 109.923 86.979C109.904 87.1591 109.948 87.34 110.048 87.4913C110.147 87.6425 110.295 87.7548 110.467 87.8092L113.196 88.6466L115.954 91.443L113.254 90.4089L109.589 90.926C109.417 90.9539 109.261 91.0428 109.149 91.1764C109.037 91.3101 108.977 91.4797 108.979 91.6542C108.979 91.8473 109.056 92.0326 109.192 92.1691C109.328 92.3057 109.512 92.3824 109.705 92.3824L112.035 92.2513L113.406 92.681L110.256 93.5185C110.115 93.554 109.99 93.6383 109.904 93.7567C109.817 93.8752 109.775 94.0202 109.785 94.1666C109.788 94.2518 109.809 94.3354 109.846 94.4123C109.882 94.4893 109.934 94.558 109.998 94.6145C110.061 94.6709 110.136 94.7139 110.216 94.7408C110.297 94.7677 110.382 94.778 110.467 94.771L114.161 94.4579Z" fill="#FFBE9D"/>
<g opacity="0.4">
<path d="M115.025 102.374L114.742 105.869L124.736 103.109L123.589 99.7594L115.025 102.374Z" fill="black"/>
</g>
<path d="M101.844 97.6475C101.844 97.6475 100.959 96.446 101.032 96.242C101.104 96.0381 113.53 75.5094 113.53 75.5094L114.981 76.2959L101.844 97.6475Z" fill="#263238"/>
<path d="M118.269 81.6265C118.325 81.5701 118.395 81.5293 118.472 81.5081C118.548 81.487 118.629 81.4862 118.706 81.5059C118.783 81.5256 118.854 81.5651 118.911 81.6205C118.968 81.6758 119.01 81.7452 119.032 81.8217C119.054 81.8982 119.056 81.9792 119.038 82.0567C119.02 82.1343 118.981 82.2057 118.927 82.2639C118.873 82.3221 118.804 82.3651 118.728 82.3887C118.653 82.4123 118.572 82.4156 118.494 82.3984C118.423 82.3761 118.358 82.3373 118.304 82.2852C118.25 82.2331 118.21 82.1692 118.185 82.0984C118.16 82.0276 118.152 81.952 118.162 81.8777C118.172 81.8033 118.198 81.7323 118.24 81.6702" fill="#263238"/>
<path d="M110.017 107.981C109.924 108.175 109.796 108.351 109.64 108.498C109.187 108.923 108.627 109.215 108.021 109.343C107.063 109.539 106.076 109.539 105.118 109.343C103.898 109.053 102.635 108.996 101.395 109.175C99.9397 109.601 98.5981 110.347 97.468 111.36C96.1688 112.358 94.797 113.596 92.9535 114.178C92.0105 114.447 91.0233 114.524 90.0503 114.404C89.0541 114.251 88.0795 113.979 87.1471 113.596C85.2455 112.867 83.4237 111.79 81.4205 111.061C79.4901 110.306 77.3761 110.159 75.3601 110.639C73.3932 111.047 71.5496 111.731 69.7133 112.096C66.4317 112.805 63.0057 112.331 60.0384 110.756C58.0289 109.716 56.2891 108.22 54.9578 106.386C54.473 105.724 54.0663 105.008 53.7457 104.253C53.7965 104.253 54.1449 105.039 55.0812 106.299C56.4414 108.06 58.1774 109.493 60.1618 110.493C63.0875 112.006 66.4487 112.444 69.6625 111.731C71.4698 111.338 73.2915 110.646 75.3093 110.224C77.3943 109.723 79.5824 109.872 81.5802 110.654C83.627 111.382 85.456 112.46 87.3213 113.202C88.226 113.576 89.1711 113.842 90.1374 113.996C91.0612 114.109 91.9981 114.04 92.8954 113.792C94.6373 113.253 96.0019 112.059 97.3083 111.061C98.4844 110.035 99.8762 109.288 101.38 108.877C102.655 108.702 103.951 108.776 105.198 109.095C106.122 109.306 107.08 109.33 108.014 109.168C108.6 109.068 109.15 108.817 109.611 108.44C109.755 108.295 109.89 108.142 110.017 107.981Z" fill="#FAFAFA"/>
<path d="M114.154 121.854C113.926 120.794 113.826 119.711 113.857 118.628C113.756 117.548 113.788 116.459 113.951 115.387C114.179 116.447 114.279 117.53 114.249 118.613C114.349 119.693 114.317 120.781 114.154 121.854Z" fill="#263238"/>
<path d="M91.5164 255.753C91.8285 257.02 99.2316 298.668 99.2316 298.668L110.576 297.815L108.5 255.287L91.5164 255.753Z" fill="#FFBE9D"/>
<path d="M110.917 298.478L110.881 297.277L98.7961 297.531L98.8687 301.478H99.5945C102.919 301.588 116.506 301.813 118.705 301.151C121.187 300.43 110.917 298.478 110.917 298.478Z" fill="#4074BA"/>
<g opacity="0.3">
<path d="M103.231 301.304C103.016 300.344 102.448 299.502 101.641 298.944C100.816 298.364 99.8143 298.094 98.8105 298.18L98.8759 301.318L103.231 301.304Z" fill="black"/>
</g>
<g opacity="0.3">
<path d="M115.939 299.6C115.939 299.6 119.568 300.495 119.111 301.056C118.654 301.617 104.936 301.872 98.8687 301.486V301.231L114.894 301.071C114.894 301.071 115.243 299.636 115.939 299.6Z" fill="black"/>
</g>
<path d="M98.6945 301.224H98.8977H99.4928L101.67 301.275C103.521 301.275 106.069 301.311 108.892 301.275C111.715 301.238 114.263 301.129 116.114 301.034L118.291 300.911L118.879 300.867H118.284L116.106 300.947C114.263 301.012 111.708 301.1 108.892 301.144C106.076 301.187 103.521 301.202 101.67 301.202H98.6945V301.224Z" fill="#263238"/>
<path d="M114.909 301.238C114.994 300.895 115.124 300.565 115.294 300.255C115.502 299.961 115.746 299.695 116.019 299.461C115.653 299.587 115.347 299.847 115.163 300.19C114.947 300.494 114.857 300.869 114.909 301.238Z" fill="#263238"/>
<path d="M111.323 299.621C111.323 299.621 111.519 299.447 111.694 299.185C111.868 298.922 111.969 298.697 111.933 298.675C111.897 298.653 111.737 298.85 111.57 299.112C111.403 299.374 111.287 299.6 111.323 299.621Z" fill="#263238"/>
<path d="M110.336 299.155C110.336 299.155 110.554 299.061 110.757 298.886C110.961 298.711 111.098 298.544 111.077 298.515C111.055 298.486 110.859 298.609 110.656 298.784C110.452 298.959 110.307 299.134 110.336 299.155Z" fill="#263238"/>
<path d="M109.698 298.107C109.901 298.175 110.116 298.198 110.329 298.172C110.54 298.194 110.753 298.169 110.953 298.1C110.749 298.035 110.535 298.013 110.322 298.034C110.111 298.018 109.899 298.042 109.698 298.107Z" fill="#263238"/>
<path d="M109.473 297.364C109.69 297.499 109.943 297.563 110.198 297.546C110.446 297.583 110.698 297.545 110.924 297.437C110.683 297.418 110.44 297.418 110.198 297.437C109.959 297.391 109.716 297.367 109.473 297.364Z" fill="#263238"/>
<path d="M111.708 298.638C111.965 298.679 112.227 298.679 112.485 298.638C112.761 298.603 113.034 298.539 113.298 298.449C113.462 298.407 113.621 298.343 113.769 298.26C113.813 298.237 113.852 298.205 113.883 298.166C113.915 298.127 113.938 298.082 113.951 298.034C113.964 297.98 113.959 297.922 113.937 297.871C113.915 297.82 113.876 297.777 113.827 297.75C113.533 297.614 113.201 297.581 112.885 297.656C112.569 297.731 112.288 297.91 112.086 298.165C111.972 298.309 111.89 298.475 111.846 298.653C111.846 298.777 111.846 298.85 111.846 298.85C111.915 298.623 112.029 298.413 112.18 298.231C112.354 298.033 112.581 297.889 112.833 297.815C113.135 297.713 113.464 297.728 113.755 297.859C113.878 297.939 113.835 298.078 113.704 298.15C113.566 298.226 113.42 298.287 113.269 298.332C113.011 298.423 112.746 298.493 112.477 298.544C112.006 298.638 111.708 298.638 111.708 298.638Z" fill="#263238"/>
<path d="M111.911 298.638C111.995 298.485 112.021 298.307 111.984 298.136C111.956 297.946 111.882 297.765 111.766 297.612C111.695 297.502 111.598 297.413 111.484 297.35C111.37 297.288 111.243 297.255 111.113 297.255C111.075 297.261 111.04 297.274 111.008 297.295C110.975 297.315 110.948 297.342 110.926 297.373C110.904 297.404 110.889 297.439 110.881 297.477C110.874 297.514 110.873 297.552 110.881 297.59C110.9 297.706 110.947 297.816 111.019 297.91C111.126 298.069 111.253 298.213 111.396 298.34C111.52 298.47 111.675 298.568 111.846 298.624C111.846 298.624 111.686 298.5 111.469 298.274C111.342 298.144 111.23 298 111.135 297.845C111.026 297.699 110.946 297.422 111.135 297.386C111.237 297.396 111.335 297.428 111.424 297.48C111.513 297.531 111.59 297.601 111.65 297.684C111.761 297.82 111.838 297.979 111.875 298.15C111.904 298.311 111.916 298.475 111.911 298.638Z" fill="#263238"/>
<path d="M98.8687 298.15C98.8687 298.15 99.217 298.114 99.7614 298.15C100.464 298.221 101.136 298.472 101.714 298.879C102.269 299.275 102.701 299.82 102.962 300.452C103.158 300.932 103.18 301.253 103.209 301.253C103.225 301.178 103.225 301.101 103.209 301.027C103.183 300.821 103.137 300.619 103.071 300.423C102.826 299.756 102.386 299.18 101.808 298.769C101.212 298.341 100.508 298.089 99.7759 298.041C99.5563 298.02 99.3351 298.02 99.1154 298.041C98.9485 298.114 98.8687 298.136 98.8687 298.15Z" fill="#263238"/>
<path d="M104.719 300.182C105.299 300.3 105.891 300.344 106.482 300.313C107.072 300.33 107.662 300.277 108.239 300.153C108.239 300.109 107.448 300.153 106.475 300.153C105.502 300.153 104.726 300.146 104.719 300.182Z" fill="#263238"/>
<path d="M102.36 300.226C102.36 300.226 102.425 300.379 102.512 300.546C102.599 300.714 102.643 300.859 102.686 300.859C102.73 300.859 102.744 300.677 102.643 300.488C102.541 300.299 102.389 300.197 102.36 300.226Z" fill="#263238"/>
<path d="M101.453 299.206C101.453 299.206 101.503 299.352 101.627 299.469C101.75 299.585 101.881 299.658 101.91 299.629C101.939 299.6 101.859 299.483 101.728 299.367C101.598 299.25 101.474 299.185 101.453 299.206Z" fill="#263238"/>
<path d="M100.168 298.762C100.168 298.799 100.335 298.799 100.516 298.85C100.698 298.901 100.821 298.988 100.85 298.966C100.879 298.944 100.778 298.784 100.56 298.719C100.342 298.653 100.153 298.726 100.168 298.762Z" fill="#263238"/>
<path d="M99.2534 298.558C99.2534 298.558 99.3115 298.646 99.4131 298.682C99.5147 298.719 99.6091 298.719 99.6236 298.682C99.6381 298.646 99.5655 298.587 99.4639 298.551C99.3623 298.515 99.2679 298.522 99.2534 298.558Z" fill="#263238"/>
<path d="M62.6584 252.279C62.6003 253.583 57.8899 294.138 57.8899 294.138L68.9874 296.607L79.2284 255.287L62.6584 252.279Z" fill="#FFBE9D"/>
<path d="M69.4883 297.684L69.7424 296.519L57.9409 293.876L57.0771 297.728L57.8029 297.932C61.0037 298.835 74.148 302.301 76.4488 302.178C79.0036 302.039 69.4883 297.684 69.4883 297.684Z" fill="#4074BA"/>
<g opacity="0.3">
<path d="M61.3883 298.638C61.4109 297.655 61.0607 296.7 60.4084 295.966C59.7449 295.204 58.8353 294.701 57.8391 294.546L57.1569 297.612L61.3883 298.638Z" fill="black"/>
</g>
<g opacity="0.3">
<path d="M74.1044 299.978C74.1044 299.978 77.3923 301.711 76.8407 302.163C76.2891 302.614 62.8836 299.563 57.0771 297.743L57.1497 297.502L72.7545 301.143C72.7545 301.143 73.4149 299.847 74.1044 299.978Z" fill="black"/>
</g>
<path d="M56.9681 297.437L57.1641 297.502L57.7375 297.67L59.8496 298.238C61.6423 298.704 64.1173 299.323 66.8681 299.949C69.6188 300.575 72.1229 301.093 73.9374 301.442L76.1148 301.843L76.7027 301.937H76.9131L76.7099 301.886L76.1293 301.763L73.9519 301.318C72.1374 300.94 69.6406 300.415 66.8898 299.789C64.1391 299.163 61.6641 298.558 59.8641 298.114L57.7593 297.619L57.1786 297.481C57.111 297.456 57.0401 297.441 56.9681 297.437Z" fill="#263238"/>
<path d="M72.7107 301.326C72.8781 301.013 73.0828 300.722 73.3204 300.459C73.597 300.227 73.8989 300.026 74.2203 299.862C73.8375 299.904 73.4824 300.083 73.2188 300.364C72.932 300.607 72.7499 300.951 72.7107 301.326Z" fill="#263238"/>
<path d="M69.6116 298.901C69.6116 298.901 69.8511 298.777 70.0761 298.558C70.3011 298.34 70.4608 298.15 70.4317 298.129C70.4027 298.107 70.1995 298.252 69.9745 298.464C69.7495 298.675 69.5825 298.871 69.6116 298.901Z" fill="#263238"/>
<path d="M68.7624 298.216C68.9312 298.201 69.0933 298.143 69.2342 298.049C69.4737 297.925 69.6552 297.794 69.6334 297.764C69.6116 297.735 69.4011 297.801 69.1616 297.925C68.9221 298.049 68.7479 298.18 68.7624 298.216Z" fill="#263238"/>
<path d="M68.3923 297.044C67.6327 297.03 66.8967 297.308 66.3357 297.822C65.7748 298.336 65.4317 299.047 65.377 299.807C65.3223 300.567 65.5602 301.32 66.0417 301.909C66.5232 302.499 67.2117 302.881 67.9654 302.976C68.7191 303.072 69.4807 302.874 70.0933 302.423C70.706 301.973 71.123 301.303 71.2586 300.553C71.3943 299.803 71.2381 299.03 70.8224 298.392C70.4066 297.754 69.7629 297.3 69.0237 297.124C68.821 297.054 68.606 297.026 68.3923 297.044Z" fill="#263238"/>
<path d="M68.3489 296.264C68.5234 296.439 68.7457 296.558 68.9876 296.607C69.218 296.698 69.4694 296.724 69.7134 296.679C69.493 296.59 69.2645 296.522 69.0311 296.476C68.8091 296.389 68.5811 296.318 68.3489 296.264Z" fill="#263238"/>
<path d="M70.2213 298.034C70.4535 298.125 70.6983 298.179 70.9471 298.194C71.2271 298.221 71.509 298.221 71.789 298.194C71.9556 298.187 72.121 298.162 72.2826 298.121C72.3815 298.095 72.467 298.033 72.5221 297.947C72.5447 297.895 72.5519 297.838 72.5429 297.783C72.5339 297.727 72.509 297.675 72.4713 297.633C72.2156 297.432 71.9 297.323 71.5749 297.323C71.2499 297.323 70.9342 297.432 70.6786 297.633C70.5305 297.743 70.4089 297.885 70.3229 298.049C70.2649 298.158 70.2576 298.231 70.2649 298.231C70.3878 298.03 70.548 297.854 70.7366 297.714C70.9504 297.564 71.202 297.478 71.4624 297.466C71.7801 297.437 72.0966 297.531 72.3479 297.728C72.4495 297.837 72.3479 297.954 72.2245 297.998C72.075 298.039 71.9219 298.066 71.7673 298.078C71.4942 298.096 71.2202 298.096 70.9471 298.078C70.5116 298.07 70.2286 298.012 70.2213 298.034Z" fill="#263238"/>
<path d="M70.41 298.107C70.41 298.107 70.5697 297.968 70.606 297.641C70.6211 297.449 70.5887 297.256 70.5116 297.08C70.4679 296.957 70.3946 296.847 70.2984 296.76C70.2022 296.672 70.086 296.609 69.96 296.578C69.9222 296.576 69.8844 296.581 69.8489 296.594C69.8133 296.607 69.7807 296.627 69.753 296.653C69.7252 296.679 69.7029 296.71 69.6874 296.744C69.6718 296.779 69.6633 296.816 69.6624 296.854C69.654 296.971 69.6739 297.089 69.7205 297.197C69.7855 297.375 69.8733 297.544 69.9818 297.699C70.074 297.854 70.2007 297.986 70.3519 298.085C70.3519 298.085 70.2285 297.925 70.0689 297.655C69.9784 297.498 69.9031 297.332 69.8439 297.16C69.7713 296.985 69.764 296.701 69.96 296.716C70.156 296.73 70.3084 296.956 70.3882 297.124C70.4642 297.283 70.5039 297.457 70.5043 297.633C70.4904 297.794 70.4588 297.953 70.41 298.107Z" fill="#263238"/>
<path d="M57.8682 294.495C57.8682 294.495 58.2093 294.538 58.7319 294.721C59.3974 294.947 59.9927 295.344 60.4593 295.871C60.9045 296.392 61.1961 297.028 61.3012 297.706C61.331 297.982 61.3455 298.259 61.3448 298.536C61.3448 298.536 61.381 298.456 61.3956 298.318C61.4184 298.11 61.4184 297.9 61.3956 297.692C61.316 296.989 61.0277 296.327 60.5681 295.791C60.0821 295.242 59.4541 294.839 58.7536 294.626C58.5407 294.561 58.3219 294.517 58.1004 294.495C58.0236 294.481 57.945 294.481 57.8682 294.495Z" fill="#263238"/>
<path d="M63.0648 297.866C63.598 298.12 64.1615 298.304 64.7414 298.413C65.3117 298.571 65.8991 298.659 66.4906 298.675C66.4906 298.638 65.714 298.507 64.7777 298.282C63.8414 298.056 63.0793 297.83 63.0648 297.866Z" fill="#263238"/>
<path d="M60.7642 297.342C60.7642 297.342 60.7642 297.51 60.837 297.692C60.9098 297.874 60.888 298.027 60.9316 298.034C60.9753 298.041 61.0336 297.874 60.9826 297.67C60.9317 297.466 60.7933 297.32 60.7642 297.342Z" fill="#263238"/>
<path d="M60.1182 296.141C60.1182 296.141 60.1182 296.294 60.2343 296.432C60.3504 296.57 60.4375 296.672 60.4665 296.658C60.4956 296.643 60.4665 296.505 60.3577 296.366C60.2488 296.228 60.1545 296.119 60.1182 296.141Z" fill="#263238"/>
<path d="M58.9786 295.398C58.9786 295.441 59.1383 295.471 59.298 295.565C59.4577 295.66 59.5665 295.776 59.6028 295.762C59.6391 295.747 59.6028 295.565 59.3706 295.449C59.1383 295.332 58.9786 295.361 58.9786 295.398Z" fill="#263238"/>
<path d="M58.1439 294.997C58.1439 294.997 58.1802 295.099 58.2673 295.157C58.3544 295.216 58.4488 295.238 58.4705 295.201C58.4923 295.165 58.4705 295.099 58.3471 295.041C58.2238 294.983 58.1657 294.954 58.1439 294.997Z" fill="#263238"/>
<path d="M104.319 71.6644C104.022 70.7978 103.289 70.1497 102.933 69.3049C102.403 68.0378 102.795 66.6032 102.933 65.2414C103.071 63.8796 102.788 62.2193 101.547 61.6585C101.004 61.5165 100.47 61.3389 99.9502 61.1269C98.9776 60.5152 99.0284 59.1316 98.9413 57.9883C98.8826 57.2322 98.6909 56.4926 98.3752 55.8036L98.5784 55.738C99.3138 55.5594 100.088 55.6461 100.767 55.983C101.445 56.3198 101.983 56.8854 102.287 57.5805C102.421 57.8713 102.48 58.1916 102.457 58.5113C102.434 58.831 102.331 59.1396 102.157 59.4083C102.007 59.6321 101.787 59.799 101.532 59.8822C101.276 59.9654 101.001 59.9601 100.749 59.8671C100.553 59.765 100.397 59.6013 100.304 59.4012C100.211 59.2012 100.186 58.9759 100.233 58.7602C100.294 58.6043 100.407 58.4743 100.552 58.392C100.698 58.3098 100.867 58.2804 101.032 58.3087C101.142 58.318 101.248 58.3508 101.345 58.4048C101.441 58.4588 101.525 58.5328 101.59 58.6218C101.678 58.7529 101.685 58.8476 101.699 58.8403C101.714 58.833 101.699 58.7456 101.699 58.5854C101.638 58.4684 101.55 58.3674 101.443 58.2903C101.336 58.2132 101.213 58.1621 101.082 58.1412C100.896 58.1062 100.703 58.1213 100.524 58.1849C100.411 58.2268 100.31 58.2929 100.226 58.3784C100.142 58.464 100.077 58.5669 100.037 58.6801C99.9533 58.9553 99.9675 59.2512 100.077 59.517C100.187 59.7828 100.386 60.0019 100.64 60.1365C100.956 60.2758 101.311 60.3011 101.645 60.2082C101.978 60.1153 102.269 59.91 102.469 59.6268C102.689 59.3122 102.825 58.9458 102.863 58.5631C102.901 58.1804 102.84 57.7943 102.686 57.4421C102.382 56.7045 101.841 56.0896 101.15 55.694C100.459 55.2985 99.6565 55.1449 98.8687 55.2574C99.0395 54.9684 99.1478 54.6466 99.1865 54.3129C99.2253 53.9792 99.1937 53.641 99.0937 53.3203C98.9602 52.9296 98.7399 52.5744 98.4494 52.2817C98.159 51.989 97.806 51.7665 97.4171 51.6308C96.7358 51.3795 95.995 51.3389 95.2905 51.5143C94.6944 51.6596 94.1274 51.9059 93.6139 52.2426C93.1421 52.5484 92.7792 52.8834 92.4309 53.1091C92.1423 53.3181 91.8047 53.4486 91.451 53.4878C91.1468 53.516 90.841 53.4526 90.5728 53.3058C90.5728 53.3058 90.7978 53.6553 91.4583 53.6553C91.848 53.6445 92.2273 53.5261 92.5542 53.3131C92.9389 53.0946 93.3236 52.7669 93.7736 52.4974C94.2777 52.1469 94.8557 51.9179 95.4625 51.8282C96.0693 51.7385 96.6885 51.7906 97.2719 51.9804C97.6084 52.0963 97.9141 52.2877 98.1657 52.5401C98.4172 52.7925 98.608 53.0992 98.7236 53.4368C98.8311 53.7754 98.8411 54.1375 98.7525 54.4815C98.6639 54.8255 98.4803 55.1374 98.2227 55.3812C97.855 54.7104 97.3133 54.1517 96.655 53.7645C95.2034 52.9417 93.026 53.3422 92.3002 54.8423L80.3898 50.7351C79.6431 50.1054 78.7503 49.6745 77.7939 49.4823C76.8374 49.2901 75.8481 49.3428 74.9173 49.6355L74.6705 49.5918C73.9828 49.5271 73.29 49.6425 72.66 49.9268C71.8695 50.3717 71.1799 50.9768 70.6351 51.7037C70.3085 52.0808 69.9238 52.4029 69.4955 52.6576C69.4198 52.6912 69.3423 52.7204 69.2633 52.745C68.7357 52.8048 68.2043 52.8243 67.6738 52.8033C66.6722 52.5703 65.6343 51.995 64.4004 51.8712C63.7106 51.7775 63.009 51.8271 62.3392 52.0168C61.6275 52.2271 60.9889 52.6333 60.4956 53.1892C59.977 53.772 59.6925 54.5272 59.6972 55.3084C59.7067 55.869 59.7947 56.4254 59.9585 56.9615C59.6908 57.6824 59.5723 58.4506 59.6101 59.219C59.661 60.2312 59.9513 61.2944 59.9658 62.2848C59.6741 62.5135 59.3415 62.684 58.986 62.7873C58.3618 62.9839 57.6868 63.0786 57.0481 63.3262C56.4501 63.5705 55.9113 63.9408 55.468 64.4119C55.0248 64.883 54.6874 65.444 54.4787 66.057C54.2791 66.5468 54.2038 67.0787 54.2595 67.6049C54.3153 68.1311 54.5003 68.6351 54.7981 69.0719C54.6457 69.7365 54.6421 70.4268 54.7877 71.093C54.9333 71.7591 55.2244 72.3846 55.64 72.9242C56.3008 73.5541 56.9236 74.2228 57.5053 74.9269C58.2892 76.143 58.1731 77.7087 58.3763 79.1433C58.5795 80.5779 59.3997 82.2091 60.844 82.3038C62.0053 82.3766 63.0214 81.4008 64.2117 81.4955C65.8375 81.6266 66.5053 83.5855 67.4488 84.9254C68.058 85.7673 68.8808 86.4301 69.8317 86.8451C70.7826 87.26 71.8268 87.4119 72.856 87.2849C74.3076 87.0883 75.8028 86.3018 77.2471 86.6659C79.0689 87.132 80.1503 89.2729 82.0301 89.5424C83.4092 89.739 84.6938 88.8142 85.7245 87.8675C86.7551 86.9208 87.793 85.8284 89.172 85.5808C90.8268 85.2822 92.4236 86.3091 94.0929 86.513C95.1765 86.6432 96.2743 86.451 97.2498 85.9603C98.2254 85.4696 99.0357 84.702 99.58 83.753C100.494 82.0853 100.487 80.039 101.351 78.3422C102.012 77.2614 102.739 76.2229 103.528 75.2327C104.211 74.2059 104.74 72.8878 104.319 71.6644ZM56.5618 66.2901C56.4278 66.2613 56.2893 66.2613 56.1553 66.2901C56.1553 66.2901 56.2787 66.2901 56.4819 66.3702L56.2569 66.5377C55.5774 67.1055 55.0863 67.8676 54.8489 68.7223C54.669 68.3352 54.5698 67.9152 54.5573 67.4882C54.5448 67.0612 54.6193 66.6362 54.7763 66.2391C54.9757 65.6808 55.2911 65.1713 55.7015 64.7445C56.1119 64.3176 56.608 63.9831 57.1569 63.7631C57.7376 63.5447 58.3981 63.45 59.073 63.2461C59.3654 63.1634 59.6442 63.0383 59.9005 62.8747C59.8696 63.2713 59.7532 63.6564 59.5593 64.0034C58.9351 65.0885 57.6142 65.5473 56.5618 66.2901ZM64.6908 52.8907C63.726 53.0735 62.8175 53.4812 62.0384 54.0807C61.2593 54.6803 60.6314 55.455 60.2053 56.3425C60.1313 56.015 60.0924 55.6806 60.0892 55.3448C60.0858 54.6644 60.3311 54.0063 60.7787 53.4951C61.2272 53.021 61.7842 52.6637 62.4014 52.4543C63.0186 52.245 63.6773 52.1898 64.3206 52.2935C64.9892 52.3816 65.6447 52.5503 66.273 52.796C65.7439 52.7874 65.215 52.819 64.6908 52.8907ZM70.6641 52.3882C70.5189 52.4537 70.3665 52.4974 70.2213 52.5484C70.433 52.3556 70.6341 52.1514 70.8238 51.9367C71.3377 51.2311 71.9836 50.6325 72.7254 50.1744C73.2732 49.9045 73.8791 49.7744 74.4891 49.7957C74.1742 49.9112 73.8724 50.0601 73.5891 50.2399C72.5729 50.8953 71.7673 51.8784 70.6641 52.3882Z" fill="#263238"/>
<path d="M96.4807 77.4028C97.0468 73.8199 96.8726 67.9358 96.5678 63.1222C96.5039 62.0963 96.2338 61.094 95.7736 60.1756C95.3135 59.2573 94.6728 58.4418 93.8903 57.7785C93.1077 57.1151 92.1994 56.6175 91.2202 56.3156C90.2409 56.0137 89.2108 55.9139 88.192 56.022L75.7155 57.3474C75.0862 57.4131 74.5046 57.714 74.0864 58.1903C73.6682 58.6666 73.4439 59.2834 73.4583 59.918L74.7429 90.6711H71.8397V96.242C71.8397 99.3013 73.051 102.235 75.207 104.399C77.3631 106.562 80.2873 107.777 83.3364 107.777C86.3855 107.777 89.3097 106.562 91.4658 104.399C93.6218 102.235 94.8331 99.3013 94.8331 96.242V91.4212C94.8331 91.4212 91.8428 90.4381 90.0283 90.54H89.5856C89.5856 87.7218 89.8178 85.5152 89.8178 85.5152C89.8178 85.5152 95.3412 84.6195 96.4807 77.4028Z" fill="#FFBE9D"/>
<path d="M94.7025 67.7902C94.7027 68.0312 94.6098 68.2629 94.4434 68.4367C94.2769 68.6105 94.0499 68.7129 93.8098 68.7223C93.6921 68.7322 93.5736 68.7182 93.4614 68.6811C93.3493 68.644 93.2457 68.5846 93.1569 68.5064C93.0681 68.4282 92.996 68.3329 92.9448 68.2261C92.8936 68.1193 92.8645 68.0032 92.859 67.8848C92.8588 67.6438 92.9517 67.4121 93.1182 67.2383C93.2846 67.0645 93.5117 66.9621 93.7517 66.9527C93.8692 66.9438 93.9873 66.9585 94.0991 66.996C94.2108 67.0335 94.314 67.093 94.4026 67.171C94.4911 67.249 94.5632 67.3439 94.6148 67.4502C94.6663 67.5566 94.6961 67.6721 94.7025 67.7902Z" fill="#263238"/>
<path d="M95.2976 66.188C95.1815 66.3046 94.4847 65.7875 93.4904 65.7875C92.496 65.7875 91.7702 66.29 91.6614 66.1662C91.5525 66.0424 91.7267 65.8968 92.046 65.6637C92.4737 65.3702 92.9795 65.2129 93.4976 65.2122C94.0186 65.2085 94.5272 65.3718 94.9492 65.6783C95.2468 65.9113 95.3557 66.1298 95.2976 66.188Z" fill="#263238"/>
<path d="M84.9986 67.7902C85.0007 68.0305 84.9094 68.2623 84.7441 68.4363C84.5789 68.6103 84.3525 68.7128 84.1132 68.7223C83.9954 68.7322 83.877 68.7182 83.7648 68.6811C83.6526 68.644 83.549 68.5846 83.4603 68.5064C83.3715 68.4282 83.2994 68.3329 83.2482 68.2261C83.197 68.1193 83.1678 68.0032 83.1624 67.8848C83.1584 67.6439 83.2491 67.4112 83.4148 67.2368C83.5804 67.0624 83.8078 66.9603 84.0478 66.9527C84.1653 66.9438 84.2834 66.9585 84.3952 66.996C84.5069 67.0335 84.6101 67.093 84.6986 67.171C84.7872 67.249 84.8593 67.3439 84.9109 67.4502C84.9624 67.5566 84.9922 67.6721 84.9986 67.7902Z" fill="#263238"/>
<path d="M85.543 66.3702C85.4269 66.4939 84.7301 65.9769 83.7357 65.9769C82.7414 65.9769 82.0156 66.4794 81.9067 66.3556C81.7979 66.2318 81.9721 66.0861 82.2914 65.8531C82.7159 65.5531 83.2238 65.3951 83.743 65.4016C84.2645 65.3942 84.7742 65.5579 85.1946 65.8677C85.4922 66.1007 85.6011 66.3337 85.543 66.3702Z" fill="#263238"/>
<path d="M89.143 73.7544C89.6659 73.5904 90.2072 73.4926 90.7542 73.4631C91.0083 73.4631 91.2478 73.3903 91.2913 73.2155C91.3069 72.9617 91.2489 72.7088 91.1244 72.4873C90.8849 71.8756 90.6381 71.2274 90.3986 70.5502C89.3607 67.7975 88.6059 65.5327 88.722 65.489C89.5422 67.0709 90.2387 68.7144 90.805 70.4046C91.0518 71.0891 91.2913 71.7299 91.5308 72.3562C91.6911 72.6626 91.7375 73.0163 91.6615 73.3539C91.6236 73.4435 91.5661 73.5235 91.4933 73.5878C91.4204 73.6521 91.334 73.6991 91.2405 73.7253C91.101 73.7637 90.957 73.7833 90.8123 73.7835C90.2569 73.8455 89.6959 73.8357 89.143 73.7544Z" fill="#263238"/>
<path d="M89.8324 85.537C86.446 85.589 83.1117 84.6966 80.201 82.9591C80.201 82.9591 82.5381 87.9183 89.7308 87.2411L89.8324 85.537Z" fill="#EB996E"/>
<path d="M88.722 76.1574C88.5332 75.9185 88.2869 75.7317 88.0063 75.6145C87.7257 75.4973 87.42 75.4536 87.118 75.4875C86.8991 75.5082 86.6866 75.573 86.4933 75.6782C86.3 75.7833 86.1298 75.9265 85.993 76.0992C85.8595 76.2647 85.7802 76.4676 85.7659 76.68C85.7516 76.8925 85.803 77.1042 85.9131 77.2862C86.0742 77.4621 86.283 77.5869 86.5139 77.6451C86.7447 77.7033 86.9875 77.6925 87.2123 77.6139C87.6784 77.4552 88.1096 77.208 88.4825 76.8857C88.5946 76.8048 88.6906 76.7035 88.7655 76.5871C88.803 76.5325 88.823 76.4677 88.823 76.4014C88.823 76.3351 88.803 76.2703 88.7655 76.2157" fill="#EB996E"/>
<path d="M86.2252 74.4462C86.3848 74.4462 86.3848 75.5167 87.3066 76.2813C88.2284 77.046 89.3751 76.9294 89.3824 77.0824C89.3897 77.2353 89.1284 77.2936 88.6566 77.3081C88.0267 77.3162 87.4145 77.0994 86.9292 76.6964C86.4581 76.3153 86.1556 75.7632 86.0873 75.1598C86.0655 74.7083 86.1526 74.4389 86.2252 74.4462Z" fill="#263238"/>
<path d="M85.9857 64.6297C85.8914 64.8991 84.897 64.768 83.7358 64.9137C82.5745 65.0593 81.6309 65.3725 81.4785 65.1249C81.4059 65.0156 81.5729 64.7607 81.9503 64.4986C82.453 64.168 83.0285 63.9656 83.6269 63.9087C84.2226 63.837 84.8268 63.9068 85.3906 64.1126C85.8188 64.2874 86.0656 64.4986 85.9857 64.6297Z" fill="#263238"/>
<path d="M94.9348 64.1491C94.7606 64.3749 94.0711 64.1491 93.251 64.1491C92.4308 64.1491 91.734 64.3021 91.5744 64.0617C91.5018 63.9452 91.5744 63.7195 91.9155 63.5083C92.322 63.2478 92.7981 63.1183 93.28 63.1369C93.7634 63.1444 94.2325 63.3022 94.6227 63.5884C94.9131 63.8069 95.0074 64.0399 94.9348 64.1491Z" fill="#263238"/>
<path d="M99.246 56.6847C98.7524 54.7622 97.3008 52.9853 95.3557 52.6212C94.0855 52.3882 92.7864 52.7596 91.5017 52.6795C90.4348 52.6139 90.0501 51.7619 89.0412 51.4269C87.3574 50.8735 86.0654 48.9946 82.4292 49.3879C81.4566 49.4971 80.2082 50.6259 79.3155 51.9076C77.922 51.3031 76.0857 51.9512 75.0841 52.3955C73.001 53.3057 71.7018 55.6579 71.2881 58.0465C70.8744 60.4351 71.2156 62.8892 71.5494 65.2924C71.7018 66.3847 71.8543 67.4771 72.0139 68.584C72.0732 69.3128 72.2677 70.0241 72.5873 70.6813L70.9325 86.1197C71.7608 86.3855 72.6345 86.4792 73.5001 86.395C74.3657 86.3108 75.2052 86.0506 75.9672 85.6301C76.7293 85.2097 77.3979 84.6378 77.9324 83.9495C78.4669 83.2611 78.856 82.4707 79.076 81.6265C79.7147 78.5898 78.0308 75.5021 78.2994 72.4072C78.4591 70.5647 79.497 68.8534 79.4897 67.0037C79.4778 66.3955 79.39 65.7913 79.2284 65.205C82.1316 62.8237 82.901 60.9084 82.7776 58.6509C83.6735 59.2795 84.7331 59.6314 85.8259 59.6632C87.3646 59.6632 88.9686 59.0806 90.4057 59.6632C91.3949 60.171 92.2675 60.8803 92.9678 61.7459C93.7589 62.5324 94.7823 63.2533 95.871 63.1004C96.3914 62.9769 96.8975 62.7987 97.3807 62.5688C97.6234 62.4535 97.8887 62.3936 98.1573 62.3936C98.4259 62.3936 98.6911 62.4535 98.9339 62.5688C99.5215 60.6636 99.6288 58.6418 99.246 56.6847Z" fill="#263238"/>
<path d="M56.2496 72.4946C56.994 73.0362 57.7946 73.4952 58.6375 73.8636C59.6264 74.2816 60.6856 74.5065 61.7585 74.5263C63.1807 74.5644 64.5775 74.1432 65.7431 73.3248C66.4422 72.8404 67.0322 72.2142 67.4748 71.4866C67.9174 70.759 68.2027 69.9463 68.3124 69.101C68.4252 68.1628 68.2344 67.2131 67.7681 66.392C67.527 65.9713 67.1849 65.6177 66.7729 65.3634C66.361 65.109 65.8922 64.962 65.4092 64.9356C64.916 64.9227 64.4336 65.0823 64.0447 65.3871C63.6503 65.718 63.3582 66.1551 63.2028 66.6469C63.0315 67.1538 62.9923 67.6962 63.0888 68.2227C63.1854 68.7491 63.4145 69.242 63.7544 69.6545C64.4938 70.5167 65.4922 71.1147 66.5995 71.3585C67.7431 71.6292 68.9315 71.6491 70.0834 71.4168C71.2393 71.1859 72.3255 70.6872 73.2552 69.9603C74.155 69.2611 74.8374 68.3188 75.2221 67.244C75.5997 66.21 75.69 65.0923 75.4834 64.0107C75.3847 63.4991 75.2033 63.0071 74.9463 62.5543C74.7114 62.1008 74.3762 61.7072 73.9664 61.4037C73.5866 61.1016 73.1223 60.926 72.6382 60.9012C72.4137 60.8935 72.1914 60.9479 71.9956 61.0583C71.7998 61.1688 71.6379 61.3311 71.5277 61.5275C71.3164 61.928 71.267 62.3949 71.3898 62.831C71.5297 63.2642 71.7799 63.6533 72.1156 63.9597C73.3102 64.9737 74.8397 65.5024 76.4032 65.4418C77.9667 65.3811 79.451 64.7355 80.564 63.632C81.3111 62.8594 81.857 61.914 82.1535 60.8793C82.3981 59.9937 82.4744 59.0697 82.3785 58.1558C82.4455 58.3931 82.4845 58.6375 82.4946 58.884C82.5462 59.5767 82.4824 60.2732 82.3059 60.9449C82.0182 62.0137 81.4751 62.9961 80.7236 63.8068C79.7009 64.8783 78.3329 65.5517 76.8624 65.7075C75.9757 65.8225 75.0747 65.749 74.2182 65.4918C73.3616 65.2346 72.5686 64.7995 71.8906 64.2146C71.5146 63.8701 71.2386 63.4296 71.0923 62.9402C70.9447 62.4162 71.0045 61.8553 71.2592 61.3745C71.3993 61.1248 71.6042 60.9178 71.8521 60.7755C72.1 60.6332 72.3817 60.5609 72.6672 60.5662C73.2289 60.5894 73.7694 60.788 74.2132 61.1342C74.6645 61.4662 75.0343 61.8971 75.2946 62.394C75.5746 62.8906 75.7731 63.4291 75.8825 63.9889C76.1084 65.1377 76.0155 66.3266 75.614 67.4261C75.2075 68.5748 74.4853 69.5847 73.5309 70.339C72.5501 71.0968 71.4072 71.6154 70.1923 71.8537C68.992 72.0939 67.7542 72.0715 66.5633 71.7882C65.3743 71.5227 64.3026 70.879 63.5076 69.9531C63.1326 69.4821 62.8829 68.9233 62.7818 68.3291C62.6923 67.7437 62.7395 67.1454 62.9197 66.5814C63.0953 66.0128 63.4304 65.5072 63.8851 65.1249C64.346 64.7692 64.9151 64.5841 65.4963 64.6006C66.0409 64.6298 66.5691 64.7976 67.0313 65.088C67.4934 65.3785 67.8744 65.7821 68.1383 66.2609C68.6319 67.1465 68.8327 68.1665 68.7116 69.1738C68.5907 70.0612 68.2844 70.9129 67.8129 71.6734C67.3414 72.4338 66.7152 73.0859 65.9754 73.5869C64.763 74.4269 63.3102 74.8463 61.8383 74.7812C60.7413 74.75 59.6611 74.5025 58.6593 74.053C58.0243 73.7797 57.4247 73.43 56.8738 73.0116C56.6851 72.8732 56.5545 72.7495 56.4601 72.6766L56.2496 72.4946Z" fill="#455A64"/>
<path d="M99.6671 59.9471C99.5641 60.0449 99.4466 60.126 99.3187 60.1874C98.9629 60.3866 98.5785 60.5291 98.1792 60.6098C97.5422 60.7397 96.8856 60.7397 96.2486 60.6098C95.4061 60.41 94.6258 60.0048 93.9768 59.4301C93.1948 58.7319 92.5838 57.8622 92.1913 56.8886C92.0609 56.6083 91.9885 56.3043 91.9785 55.9952C91.9685 55.686 92.0212 55.378 92.1333 55.0898C92.2721 54.779 92.5094 54.523 92.8083 54.3616C92.9697 54.2774 93.1489 54.2334 93.3308 54.2334C93.5128 54.2334 93.692 54.2774 93.8534 54.3616C94.1643 54.5429 94.4051 54.8242 94.5368 55.1599C94.6685 55.4955 94.6835 55.866 94.5792 56.2113C94.4529 56.5497 94.259 56.8587 94.0094 57.1191C93.7598 57.3796 93.4597 57.5861 93.1276 57.726C91.7907 58.305 90.2795 58.3286 88.9252 57.7916C88.2486 57.5465 87.5992 57.2317 86.9873 56.8521C86.3762 56.497 85.8209 56.0528 85.3398 55.534C85.082 55.2596 84.925 54.9053 84.8947 54.5294C84.8643 54.1535 84.9624 53.7784 85.1728 53.4659C85.2969 53.3145 85.4598 53.1999 85.644 53.1344C85.8281 53.069 86.0266 53.0552 86.218 53.0945C86.5692 53.1724 86.8823 53.3707 87.1035 53.6552C87.3242 53.9351 87.4259 54.291 87.3865 54.6456C87.341 54.9776 87.1997 55.2889 86.9801 55.5413C86.5767 56.0088 86.0052 56.2968 85.3906 56.3424C84.8376 56.3821 84.2824 56.3103 83.7575 56.1312C83.2848 55.9806 82.8218 55.8006 82.3713 55.5923C81.573 55.2579 80.8751 54.7208 80.3463 54.0339C79.9603 53.4928 79.7754 52.8332 79.8237 52.1696C79.849 51.7553 79.9954 51.3576 80.2447 51.0263C80.3315 50.9116 80.44 50.8151 80.564 50.7423C80.1983 51.1401 79.9893 51.6578 79.9761 52.1988C79.9572 52.8171 80.1492 53.4234 80.5205 53.9174C81.0386 54.5663 81.7166 55.0684 82.4874 55.3738C83.3872 55.83 84.3824 56.0646 85.3906 56.0584C85.6547 56.0333 85.9112 55.9561 86.1454 55.8311C86.3795 55.7061 86.5868 55.5358 86.7551 55.3301C86.9425 55.1395 87.0558 54.8879 87.0745 54.6208C87.0931 54.3537 87.0159 54.0886 86.8567 53.8737C86.5301 53.444 85.8333 53.2547 85.5067 53.6989C85.4233 53.8102 85.363 53.9372 85.3293 54.0722C85.2957 54.2073 85.2893 54.3478 85.3107 54.4854C85.3533 54.7816 85.4792 55.0595 85.6737 55.2865C86.1304 55.7667 86.6535 56.1787 87.2269 56.5099C87.8146 56.8751 88.44 57.1754 89.0922 57.4056C89.7109 57.664 90.3744 57.797 91.0446 57.797C91.7147 57.797 92.3783 57.664 92.997 57.4056C93.277 57.2879 93.5301 57.1142 93.741 56.8951C93.9519 56.676 94.1161 56.4161 94.2236 56.1312C94.3126 55.861 94.3056 55.5683 94.2037 55.3027C94.1018 55.0372 93.9113 54.8153 93.6647 54.6747C93.5492 54.6223 93.424 54.5947 93.2972 54.5938C93.1704 54.5929 93.0448 54.6187 92.9286 54.6694C92.8123 54.7202 92.708 54.7949 92.6222 54.8886C92.5365 54.9823 92.4713 55.0931 92.4309 55.2136C92.3386 55.4594 92.2956 55.7209 92.3043 55.9834C92.3131 56.2458 92.3733 56.5039 92.4817 56.7429C92.8463 57.6748 93.4171 58.5115 94.151 59.1898C94.7564 59.7508 95.4887 60.1557 96.2849 60.3695C96.8895 60.5237 97.5186 60.5559 98.1356 60.4642C98.6668 60.3609 99.1818 60.187 99.6671 59.9471Z" fill="#455A64"/>
<path d="M78.7059 76.8857C78.6195 76.9855 78.5163 77.0693 78.401 77.1333C78.0791 77.343 77.7189 77.4865 77.3414 77.5557C76.7442 77.6793 76.1249 77.6391 75.5486 77.4392C75.1513 77.3235 74.7832 77.1239 74.4691 76.8539C74.1549 76.5839 73.9018 76.2496 73.7269 75.8735C73.6088 75.6336 73.5719 75.3617 73.6217 75.0989C73.6715 74.8361 73.8052 74.5967 74.0027 74.417C74.2262 74.244 74.5006 74.1501 74.7829 74.1501C75.0652 74.1501 75.3396 74.244 75.5632 74.417C76.0129 74.785 76.3545 75.2687 76.5514 75.8164C76.7483 76.3641 76.793 76.9552 76.6809 77.5265C76.6068 78.1592 76.3761 78.7632 76.0097 79.2835C75.6433 79.8037 75.1529 80.2237 74.5833 80.505C73.9561 80.7709 73.2749 80.8831 72.5959 80.8325C71.9169 80.7818 71.2596 80.5697 70.6785 80.2137C70.0775 79.8753 69.565 79.3986 69.1834 78.8228C68.9894 78.5345 68.8576 78.2088 68.7963 77.8664C68.7351 77.5241 68.7458 77.1727 68.8277 76.8347C68.9149 76.4967 69.0932 76.1893 69.343 75.9463C69.4703 75.8217 69.6215 75.7246 69.7875 75.6607C69.9535 75.5968 70.1307 75.5676 70.3084 75.5749C70.6347 75.5997 70.9491 75.7086 71.2212 75.891C71.4933 76.0734 71.7139 76.3232 71.8616 76.6162C72.1306 77.1446 72.277 77.7272 72.2898 78.3203C72.3112 78.8664 72.2574 79.4129 72.1301 79.9443C71.9019 80.9104 71.3973 81.7887 70.6785 82.4712C70.1642 82.9704 69.5143 83.3058 68.8104 83.4354C68.1066 83.5649 67.3804 83.4829 66.7229 83.1994C66.3718 83.0459 66.0519 82.8286 65.7794 82.5586C65.6809 82.4709 65.5975 82.3676 65.5326 82.2527C65.9048 82.5831 66.3259 82.8534 66.781 83.0538C67.3212 83.2633 67.9045 83.3358 68.4793 83.265C69.2354 83.173 69.9398 82.8324 70.4825 82.2964C71.1384 81.6403 71.592 80.8085 71.789 79.9006C71.9062 79.3974 71.9502 78.8798 71.9196 78.364C71.904 77.8281 71.7676 77.3028 71.5204 76.8274C71.4035 76.5893 71.227 76.3857 71.0082 76.2363C70.7894 76.087 70.5358 75.9971 70.2721 75.9754C70.0055 75.9919 69.7524 76.0989 69.5545 76.2789C69.3566 76.459 69.2257 76.7012 69.1834 76.9658C69.1148 77.2513 69.1071 77.5481 69.1609 77.8368C69.2147 78.1254 69.3287 78.3994 69.4955 78.6407C69.8441 79.1627 70.3087 79.5964 70.8527 79.9078C71.389 80.235 71.9952 80.4293 72.6212 80.4749C73.2471 80.5205 73.8749 80.416 74.4527 80.17C74.9662 79.9146 75.4087 79.5354 75.7405 79.0665C76.0723 78.5976 76.2832 78.0535 76.3543 77.4828C76.4568 76.9769 76.4235 76.4526 76.2577 75.9638C76.0919 75.475 75.7996 75.0392 75.4107 74.701C75.242 74.5681 75.0337 74.4959 74.8192 74.4959C74.6047 74.4959 74.3964 74.5681 74.2277 74.701C74.0812 74.8369 73.9818 75.0161 73.9439 75.2126C73.9061 75.4091 73.9317 75.6125 74.0172 75.7934C74.1697 76.1354 74.3918 76.4417 74.6693 76.6925C74.9468 76.9434 75.2735 77.1332 75.6285 77.2498C76.1708 77.4513 76.7551 77.5114 77.3269 77.4246C77.8138 77.3252 78.2802 77.143 78.7059 76.8857Z" fill="#455A64"/>
<path d="M48.7231 253.911C48.7231 253.911 53.5787 263.378 66.2367 258.775C66.2367 258.775 78.6334 265.533 90.493 257.967C90.493 257.967 105.844 260.028 114.198 255.972L103.485 163.021L102.12 148.747H68.2182C68.2182 148.747 58.1586 153.342 56.54 175.779C54.9215 198.216 51.4594 229.034 51.4594 229.034L48.7231 253.911Z" fill="#263238"/>
<path d="M89.7672 258.251C89.7672 258.251 89.7672 258.156 89.7672 257.967C89.7672 257.778 89.7236 257.494 89.6946 257.144C89.6365 256.416 89.5567 255.331 89.4478 253.969C89.2446 251.216 88.976 247.226 88.6857 242.317C88.0978 232.457 87.4736 218.81 87.147 203.721C86.8204 188.632 86.8567 174.978 87.0164 165.125C87.0962 160.18 87.1833 156.182 87.2776 153.423C87.3212 152.053 87.3575 150.99 87.3865 150.24C87.3865 149.891 87.3865 149.614 87.3865 149.41C87.3772 149.318 87.3772 149.225 87.3865 149.133C87.3976 149.225 87.3976 149.318 87.3865 149.41V150.24C87.3865 150.968 87.3865 152.061 87.3502 153.423C87.3502 156.204 87.2704 160.202 87.2123 165.125C87.1252 175.007 87.1252 188.661 87.4518 203.721C87.7785 218.781 88.3664 232.435 88.9034 242.317C89.172 247.24 89.3897 251.224 89.5494 253.969C89.622 255.331 89.68 256.401 89.7236 257.144C89.7236 257.494 89.7236 257.77 89.7599 257.974C89.7699 258.066 89.7724 258.159 89.7672 258.251Z" fill="#455A64"/>
<path d="M92.743 231.641C92.743 231.641 92.8156 231.54 93.0043 231.489C93.2836 231.428 93.5753 231.464 93.8317 231.59C94.026 231.686 94.1965 231.824 94.3309 231.994C94.4653 232.164 94.5601 232.362 94.6083 232.574C94.6361 232.846 94.5845 233.12 94.4599 233.363C94.3352 233.607 94.1429 233.808 93.9062 233.944C93.6695 234.08 93.3986 234.144 93.1264 234.128C92.8542 234.112 92.5924 234.017 92.3728 233.855C92.2157 233.704 92.0943 233.52 92.0177 233.316C91.941 233.112 91.9111 232.893 91.9301 232.676C91.951 232.39 92.0688 232.12 92.264 231.911C92.4019 231.773 92.518 231.743 92.5253 231.758C92.3315 232.032 92.2183 232.355 92.1986 232.69C92.1991 232.859 92.2348 233.026 92.3036 233.18C92.3724 233.335 92.4726 233.473 92.5978 233.586C92.7647 233.691 92.957 233.75 93.1543 233.754C93.3515 233.759 93.5463 233.709 93.7177 233.611C93.8892 233.513 94.0308 233.37 94.1276 233.198C94.2244 233.025 94.2726 232.83 94.2672 232.632C94.2366 232.465 94.1701 232.307 94.0723 232.169C93.9746 232.03 93.8478 231.915 93.7011 231.831C93.4084 231.671 93.0741 231.605 92.743 231.641Z" fill="#455A64"/>
<path d="M91.988 204.042C91.988 204.042 92.0606 203.947 92.2493 203.896C92.5284 203.831 92.8216 203.867 93.0767 203.998C93.2742 204.089 93.4475 204.225 93.5824 204.396C93.7174 204.567 93.8102 204.767 93.8533 204.981C93.8783 205.251 93.8251 205.523 93.7001 205.764C93.5751 206.005 93.3837 206.204 93.1486 206.339C92.9135 206.473 92.6448 206.537 92.3746 206.522C92.1044 206.507 91.8442 206.415 91.6251 206.255C91.465 206.108 91.3415 205.926 91.2646 205.722C91.1877 205.518 91.1595 205.3 91.1824 205.083C91.2059 204.81 91.321 204.553 91.509 204.355C91.6541 204.209 91.763 204.187 91.7703 204.202C91.5774 204.473 91.4642 204.794 91.4437 205.127C91.4436 205.296 91.4792 205.463 91.548 205.617C91.6168 205.772 91.7173 205.91 91.8429 206.022C92.0087 206.13 92.2008 206.191 92.3984 206.197C92.596 206.203 92.7914 206.154 92.9635 206.057C93.1356 205.959 93.2777 205.816 93.3744 205.643C93.4712 205.47 93.5188 205.274 93.5122 205.076C93.4807 204.909 93.4147 204.751 93.3184 204.612C93.2221 204.473 93.0978 204.355 92.9533 204.267C92.6588 204.103 92.3245 204.025 91.988 204.042Z" fill="#455A64"/>
<path d="M91.5454 179.631C91.5454 179.631 91.6179 179.537 91.8139 179.486C92.0907 179.421 92.3814 179.457 92.6341 179.588C92.8319 179.679 93.0058 179.816 93.1419 179.986C93.2779 180.157 93.3725 180.357 93.4179 180.571C93.4441 180.842 93.3914 181.116 93.2661 181.358C93.1409 181.6 92.9484 181.8 92.712 181.935C92.4756 182.07 92.2054 182.133 91.934 182.117C91.6626 182.101 91.4015 182.007 91.1825 181.845C91.0237 181.697 90.9012 181.514 90.8244 181.311C90.7476 181.108 90.7186 180.889 90.7397 180.673C90.7597 180.388 90.8748 180.119 91.0663 179.908C91.2115 179.77 91.3204 179.741 91.3349 179.755C91.1376 180.025 91.0218 180.346 91.001 180.68C91 180.85 91.0359 181.018 91.106 181.173C91.1762 181.327 91.2791 181.465 91.4075 181.576C91.5732 181.682 91.7646 181.74 91.961 181.745C92.1575 181.75 92.3516 181.702 92.5225 181.604C92.6934 181.507 92.8346 181.365 92.931 181.193C93.0274 181.021 93.0753 180.826 93.0695 180.629C93.0381 180.463 92.9721 180.305 92.8758 180.165C92.7795 180.026 92.6551 179.909 92.5107 179.821C92.2127 179.669 91.8784 179.603 91.5454 179.631Z" fill="#455A64"/>
<path d="M90.6816 153.517C90.6816 153.517 90.7542 153.415 90.9429 153.364C91.223 153.303 91.5157 153.341 91.7703 153.473C91.9668 153.566 92.1393 153.703 92.274 153.873C92.4088 154.044 92.5022 154.244 92.5469 154.457C92.5841 154.731 92.5339 155.011 92.4036 155.255C92.2733 155.5 92.0695 155.697 91.8211 155.818C91.5879 155.963 91.3157 156.033 91.0417 156.017C90.7677 156.002 90.5051 155.902 90.2897 155.731C90.1326 155.58 90.0112 155.396 89.9345 155.192C89.8579 154.987 89.828 154.769 89.847 154.551C89.8758 154.278 89.993 154.023 90.1808 153.823C90.326 153.685 90.4349 153.656 90.4421 153.67C90.2483 153.944 90.1351 154.267 90.1155 154.602C90.116 154.771 90.1517 154.938 90.2205 155.093C90.2892 155.247 90.3895 155.385 90.5147 155.498C90.6816 155.604 90.8739 155.662 91.0711 155.666C91.2684 155.671 91.4631 155.621 91.6346 155.523C91.806 155.425 91.9477 155.283 92.0445 155.11C92.1413 154.938 92.1895 154.742 92.184 154.544C92.1535 154.377 92.087 154.219 91.9892 154.081C91.8914 153.942 91.7647 153.827 91.6179 153.743C91.3355 153.575 91.0093 153.496 90.6816 153.517Z" fill="#455A64"/>
<path d="M134.868 125.247L306.063 124.002L310.831 240.781L133.562 239.135L134.868 125.247Z" fill="#4074BA"/>
<path d="M134.861 125.247L215.889 59.4665C217.554 58.1166 219.632 57.3838 221.773 57.3918C223.913 57.3997 225.985 58.1479 227.64 59.5102L306.063 124.002" fill="#4074BA"/>
<g opacity="0.3">
<path d="M134.861 125.247L215.889 59.4665C217.554 58.1166 219.632 57.3838 221.773 57.3918C223.913 57.3997 225.985 58.1479 227.64 59.5102L306.063 124.002" fill="black"/>
</g>
<path d="M133.562 239.135C133.351 238.931 147.054 223.915 164.176 205.6C181.298 187.285 195.342 172.597 195.56 172.793C195.777 172.99 182.067 188.006 164.945 206.328C147.824 224.65 133.78 239.332 133.562 239.135Z" fill="#263238"/>
<path d="M310.831 240.781C310.614 240.977 297.266 226.267 281.023 207.93C264.779 189.594 251.788 174.563 251.991 174.366C252.194 174.17 265.556 188.88 281.799 207.224C298.043 225.568 311.064 240.584 310.831 240.781Z" fill="#263238"/>
<g opacity="0.5">
<path d="M306.063 124.002L220.092 192.907L134.868 125.247" fill="black"/>
</g>
<path d="M143.484 131.627L143.222 77.9854L293.122 76.2013L294.813 132.646L220.085 192.004L143.484 131.627Z" fill="#FAFAFA"/>
<path d="M143.484 131.627C143.484 131.627 143.97 131.991 144.892 132.712L148.956 135.887L164.452 148.026L220.201 191.88H220.012L294.719 132.501L294.646 132.653C294.327 121.89 293.986 110.588 293.637 99.0967C293.412 91.3556 293.18 83.7092 292.955 76.2085L293.144 76.3906L143.244 78.1019L143.36 77.9854C143.418 94.8584 143.469 108.265 143.498 117.455C143.498 122.05 143.498 125.59 143.498 127.986V130.702C143.498 131.313 143.498 131.627 143.498 131.627C143.498 131.627 143.498 131.321 143.498 130.716C143.498 130.112 143.498 129.202 143.498 128.015C143.498 125.619 143.447 122.087 143.411 117.499C143.353 108.294 143.266 94.8803 143.157 77.9854V77.8616H143.273L293.18 76.0192H293.361V76.2085C293.586 83.702 293.811 91.3484 294.044 99.0894C294.392 110.588 294.726 121.883 295.053 132.653V132.748L294.98 132.806L220.223 192.135L220.128 192.208L220.034 192.135L164.321 148.136L148.92 135.938L144.855 132.734C143.941 132.005 143.484 131.627 143.484 131.627Z" fill="#263238"/>
<path d="M269.432 103.218C269.432 103.32 246.504 103.546 218.234 103.714C189.964 103.881 167.029 103.947 167.029 103.837C167.029 103.728 189.949 103.51 218.234 103.335C246.518 103.16 269.432 103.109 269.432 103.218Z" fill="#263238"/>
<path d="M269.432 118.366C269.432 118.475 246.504 118.701 218.234 118.868C189.964 119.036 167.029 119.094 167.029 118.992C167.029 118.89 189.949 118.664 218.234 118.489C246.518 118.315 269.432 118.264 269.432 118.366Z" fill="#263238"/>
<path d="M269.432 135.836C269.432 135.938 246.504 136.163 218.234 136.338C189.964 136.513 167.029 136.564 167.029 136.455C167.029 136.346 189.949 136.127 218.234 135.96C246.518 135.792 269.432 135.727 269.432 135.836Z" fill="#263238"/>
<path d="M269.432 153.299C269.432 153.408 247.563 153.619 220.585 153.787C193.607 153.954 171.739 153.998 171.732 153.896C171.724 153.794 193.6 153.575 220.585 153.408C247.571 153.24 269.432 153.197 269.432 153.299Z" fill="#263238"/>
<path d="M250.256 168.628C250.06 168.661 249.86 168.676 249.661 168.672L247.934 168.723L241.605 168.824L220.709 169.123C212.551 169.261 205.155 169.305 199.806 169.312H193.477H191.749C191.55 169.316 191.351 169.304 191.154 169.276C191.351 169.243 191.55 169.228 191.749 169.232L193.477 169.189L199.806 169.079L220.702 168.781C228.86 168.642 236.256 168.599 241.597 168.591H247.934H249.661C249.86 168.591 250.059 168.603 250.256 168.628Z" fill="#263238"/>
<path d="M230.957 183.367C230.957 183.469 226.072 183.557 220.07 183.557C214.068 183.557 209.183 183.469 209.183 183.367C209.183 183.265 214.075 183.178 220.07 183.178C226.065 183.178 230.957 183.258 230.957 183.367Z" fill="#263238"/>
<path d="M281.415 171.468C291.416 171.468 299.523 163.333 299.523 153.299C299.523 143.264 291.416 135.129 281.415 135.129C271.414 135.129 263.306 143.264 263.306 153.299C263.306 163.333 271.414 171.468 281.415 171.468Z" fill="#263238"/>
<path d="M276.704 171.468C286.705 171.468 294.813 163.333 294.813 153.299C294.813 143.264 286.705 135.129 276.704 135.129C266.703 135.129 258.595 143.264 258.595 153.299C258.595 163.333 266.703 171.468 276.704 171.468Z" fill="#455A64"/>
<path d="M279.005 144.844V159.947H276.225V147.167H273.039V144.815L279.005 144.844Z" fill="#EBEBEB"/>
<path d="M144.659 53.4806H161.222L158.979 50.9026V44.72C158.979 43.1131 158.343 41.572 157.211 40.4357C156.078 39.2995 154.542 38.6611 152.941 38.6611C152.148 38.6611 151.363 38.8179 150.631 39.1225C149.899 39.4271 149.233 39.8735 148.673 40.4362C148.113 40.9989 147.669 41.6669 147.366 42.4019C147.064 43.137 146.908 43.9247 146.909 44.72V50.5968L144.659 53.4806Z" fill="#4074BA"/>
<path d="M150.662 52.665C150.68 53.0268 150.775 53.3806 150.939 53.7031C151.104 54.0256 151.334 54.3094 151.616 54.5358C151.898 54.7623 152.225 54.9262 152.574 55.0168C152.924 55.1075 153.289 55.1227 153.645 55.0615C154 55.0004 154.339 54.8642 154.639 54.6621C154.939 54.4599 155.192 54.1963 155.383 53.8886C155.573 53.581 155.697 53.2363 155.745 52.8772C155.793 52.5182 155.765 52.153 155.663 51.8057" fill="#4074BA"/>
<path d="M153.863 36.1414H152.237V39.6077H153.863V36.1414Z" fill="#4074BA"/>
<path d="M177.088 42.1129C177.039 41.9703 177 41.8242 176.972 41.6759C176.899 41.3628 176.805 40.9477 176.682 40.3943C176.53 39.6977 176.334 39.0117 176.094 38.3407C175.949 37.9474 175.847 37.5032 175.651 37.059L175.034 35.6462C173.918 33.2597 172.436 31.063 170.643 29.1359C168.288 26.6451 165.437 24.6799 162.275 23.3683C160.474 22.6077 158.587 22.0697 156.657 21.7662C154.575 21.4617 152.462 21.4275 150.371 21.6642C149.271 21.7804 148.18 21.9701 147.105 22.2323C146.561 22.3488 146.031 22.56 145.48 22.7275C144.926 22.8817 144.384 23.0789 143.861 23.3173C141.637 24.2196 139.568 25.4654 137.728 27.0094C133.645 30.3877 130.766 35.006 129.526 40.1685C128.874 42.9344 128.714 45.7943 129.055 48.616C129.354 51.5348 130.198 54.3711 131.544 56.976L131.965 57.7698L132.016 57.8717V57.981C130.673 62.3503 129.367 66.7197 128.089 70.8924L127.748 70.5793L138.12 65.154L138.243 65.0885L138.359 65.1759C142.696 68.5309 148.04 70.3066 153.515 70.2113C158.99 70.116 164.27 68.1554 168.487 64.6515C170.65 62.8375 172.493 60.6711 173.938 58.2431C175.094 56.2156 175.984 54.047 176.587 51.791C176.994 50.0777 177.237 48.3293 177.313 46.5696C177.313 45.8414 177.313 45.2151 177.313 44.6544C177.313 44.0937 177.226 43.6494 177.197 43.2635C177.168 42.8775 177.139 42.6226 177.124 42.4115C177.113 42.3147 177.113 42.2169 177.124 42.1202C177.15 42.213 177.167 42.3081 177.175 42.4042C177.175 42.6178 177.212 42.9018 177.284 43.2562C177.328 43.6422 177.378 44.101 177.444 44.6544C177.509 45.2079 177.444 45.856 177.444 46.5769C177.403 48.3519 177.184 50.1183 176.791 51.8493C176.211 54.1399 175.333 56.3437 174.178 58.4033C172.732 60.8841 170.877 63.1004 168.691 64.9574C166.014 67.199 162.893 68.8429 159.534 69.7796C156.175 70.7163 152.656 70.9244 149.21 70.39C145.155 69.7437 141.322 68.1 138.055 65.6055H138.301L127.944 71.0454L127.422 71.3221L127.596 70.7322L131.515 57.8208V58.0319L131.087 57.2236C129.714 54.5612 128.852 51.6635 128.547 48.6815C128.191 45.7938 128.359 42.8655 129.04 40.0374C130.31 34.7739 133.252 30.068 137.423 26.6308C139.306 25.0679 141.419 23.8076 143.687 22.895C144.22 22.6529 144.77 22.4532 145.334 22.2978C145.893 22.1376 146.43 21.9264 146.989 21.8099C148.08 21.5406 149.188 21.3508 150.306 21.2419C152.432 21.0071 154.579 21.0511 156.693 21.373C158.649 21.6983 160.559 22.2556 162.383 23.0333C165.58 24.3837 168.454 26.3991 170.817 28.9465C172.611 30.9092 174.081 33.1463 175.172 35.5734C175.383 36.0832 175.586 36.5565 175.767 37.0299C175.949 37.5032 176.058 37.9329 176.195 38.3334C176.431 39.0098 176.613 39.7038 176.74 40.4088C176.841 40.955 176.928 41.3847 176.987 41.7051C177.029 41.8386 177.063 41.9749 177.088 42.1129Z" fill="#263238"/>
<path d="M377.337 215.045C379.71 223.092 377.91 233.44 375.036 241.32C372.115 249.277 366.74 256.091 359.692 260.771C358.908 261.288 357.9 261.79 357.072 261.346C356.766 261.102 356.517 260.794 356.343 260.442C356.168 260.091 356.073 259.706 356.063 259.314C354.366 250.613 355.524 241.595 359.364 233.61C363.205 225.625 369.521 219.104 377.366 215.023" fill="#4074BA"/>
<g opacity="0.2">
<path d="M377.337 215.045C379.71 223.092 377.91 233.44 375.036 241.32C372.115 249.277 366.74 256.091 359.692 260.771C358.908 261.288 357.9 261.79 357.072 261.346C356.766 261.102 356.517 260.794 356.343 260.442C356.168 260.091 356.073 259.706 356.063 259.314C354.366 250.613 355.524 241.595 359.364 233.61C363.205 225.625 369.521 219.104 377.366 215.023" fill="black"/>
</g>
<path d="M341.685 176.85C346.679 176.711 349.974 182.282 350.475 187.278C350.976 192.273 349.872 197.473 351.331 202.25C353.16 208.338 358.865 212.707 360.578 218.846C362.61 226.078 358.654 233.586 358.466 241.094C358.371 244.735 359.192 248.442 358.502 252.017C357.928 255.076 356.314 257.84 353.936 259.838C351.558 261.837 348.563 262.946 345.461 262.977C342.36 263.008 339.343 261.959 336.926 260.008C334.509 258.057 332.841 255.326 332.206 252.279C331.038 246.657 333.513 240.679 332.032 235.122C330.936 231.022 327.757 227.534 327.496 223.296C327.191 218.249 331.081 213.887 331.807 208.884C332.533 203.881 330.007 198.995 329.63 193.948C328.955 184.904 332.685 177.804 341.678 176.835" fill="#4074BA"/>
<path d="M352.63 279.857C352.698 279.696 352.749 279.527 352.783 279.355C352.87 278.976 352.979 278.488 353.109 277.899C353.378 276.639 353.835 274.811 354.343 272.561C357.179 260.837 361.224 249.442 366.413 238.56C367.408 236.47 368.235 234.795 368.823 233.637L369.483 232.304C369.568 232.152 369.636 231.991 369.687 231.824C369.576 231.955 369.481 232.099 369.403 232.253L368.678 233.549C368.039 234.678 367.161 236.339 366.13 238.414C360.761 249.246 356.699 260.682 354.031 272.48C353.53 274.745 353.16 276.588 352.942 277.869C352.848 278.459 352.768 278.947 352.703 279.326C352.66 279.5 352.635 279.678 352.63 279.857Z" fill="#263238"/>
<path d="M341.888 201.522C341.892 201.79 341.916 202.058 341.961 202.323C342.026 202.884 342.121 203.648 342.237 204.61L343.347 213.021C344.284 220.121 345.576 229.923 346.933 240.766C348.29 251.609 349.459 261.433 350.293 268.548C350.714 272.065 351.055 274.935 351.302 276.966C351.425 277.928 351.52 278.692 351.592 279.253C351.618 279.52 351.661 279.785 351.723 280.047C351.746 279.78 351.746 279.512 351.723 279.246C351.672 278.678 351.607 277.913 351.52 276.944C351.309 274.905 351.019 272.036 350.663 268.504C349.938 261.382 348.798 251.551 347.441 240.708C346.084 229.865 344.741 220.063 343.71 212.97C343.188 209.467 342.759 206.612 342.462 204.588C342.302 203.626 342.179 202.869 342.092 202.308C342.049 202.04 341.981 201.777 341.888 201.522Z" fill="#263238"/>
<path d="M370.064 270.019H332.134V274.461H370.064V270.019Z" fill="#263238"/>
<path d="M335.654 274.461L340.103 301.42H363.633L366.711 274.461H335.654Z" fill="#263238"/>
<path d="M366.834 274.279C366.834 274.388 359.83 274.556 351.186 274.665C342.542 274.774 335.538 274.774 335.538 274.665C335.538 274.556 342.542 274.388 351.186 274.279C359.83 274.17 366.834 274.177 366.834 274.279Z" fill="#455A64"/>
<path d="M365.542 287.773H365.332H364.7C363.891 287.803 363.081 287.771 362.276 287.679C360.983 287.551 359.747 287.083 358.691 286.324C358.029 285.844 357.493 285.209 357.13 284.474C356.709 283.634 356.629 282.664 356.905 281.765C357.064 281.262 357.38 280.824 357.806 280.514C358.232 280.205 358.745 280.041 359.271 280.047C359.831 280.093 360.351 280.354 360.723 280.775C361.087 281.217 361.336 281.742 361.449 282.304C361.906 284.605 360.295 287.169 357.82 287.97C355.345 288.771 352.325 287.387 351.092 284.875C350.769 284.241 350.582 283.546 350.54 282.836C350.491 282.095 350.685 281.359 351.092 280.739C351.306 280.424 351.586 280.16 351.912 279.964C352.237 279.768 352.601 279.645 352.979 279.603C353.368 279.581 353.757 279.661 354.106 279.835C354.456 280.008 354.755 280.269 354.975 280.593C355.414 281.216 355.641 281.964 355.621 282.727C355.606 283.464 355.42 284.187 355.076 284.838C354.408 286.099 353.348 287.107 352.057 287.708C350.836 288.285 349.529 288.657 348.188 288.807C346.898 288.994 345.581 288.88 344.342 288.472C343.144 288.069 342.12 287.268 341.438 286.2C341.122 285.693 340.924 285.12 340.859 284.525C340.793 283.93 340.862 283.328 341.061 282.763C341.229 282.224 341.54 281.74 341.96 281.364C342.381 280.988 342.895 280.734 343.449 280.629C343.961 280.551 344.484 280.604 344.969 280.785C345.454 280.966 345.885 281.269 346.221 281.663C346.499 282.047 346.668 282.498 346.711 282.969C346.755 283.441 346.671 283.916 346.468 284.343C346.131 285.098 345.575 285.732 344.872 286.164C344.282 286.541 343.651 286.849 342.992 287.081C342.389 287.314 341.83 287.497 341.322 287.642C340.548 287.869 339.76 288.049 338.963 288.181L338.339 288.276H338.129C338.129 288.276 338.194 288.276 338.332 288.217L338.949 288.094C339.486 287.977 340.284 287.795 341.286 287.482C341.78 287.329 342.331 287.132 342.926 286.899C343.569 286.662 344.183 286.352 344.755 285.975C345.399 285.549 345.903 284.944 346.207 284.234C346.39 283.848 346.466 283.419 346.425 282.993C346.384 282.567 346.228 282.16 345.975 281.816C345.667 281.462 345.274 281.192 344.834 281.031C344.393 280.871 343.919 280.825 343.456 280.899C342.958 281.001 342.497 281.237 342.122 281.58C341.746 281.924 341.47 282.363 341.322 282.85C341.14 283.37 341.079 283.925 341.142 284.473C341.204 285.02 341.39 285.546 341.685 286.011C342.329 287.005 343.288 287.752 344.407 288.13C345.597 288.511 346.858 288.616 348.094 288.436C349.392 288.284 350.656 287.922 351.839 287.365C353.058 286.794 354.059 285.841 354.692 284.649C355.031 284.063 355.204 283.394 355.191 282.716C355.178 282.038 354.98 281.377 354.619 280.804C354.439 280.531 354.191 280.31 353.899 280.163C353.608 280.016 353.283 279.948 352.957 279.967C352.636 280.005 352.326 280.112 352.049 280.28C351.773 280.448 351.535 280.674 351.353 280.942C350.99 281.493 350.819 282.148 350.867 282.807C350.905 283.465 351.075 284.109 351.367 284.7C352.521 287.052 355.359 288.407 357.66 287.613C359.961 286.819 361.485 284.46 361.064 282.348C360.972 281.835 360.746 281.355 360.411 280.957C360.256 280.771 360.066 280.619 359.852 280.507C359.637 280.396 359.403 280.329 359.163 280.309C358.698 280.303 358.245 280.446 357.867 280.717C357.49 280.989 357.209 281.374 357.065 281.816C356.8 282.649 356.868 283.552 357.254 284.336C357.587 285.039 358.085 285.651 358.705 286.12C359.728 286.87 360.925 287.344 362.182 287.497C362.978 287.6 363.781 287.654 364.584 287.657H365.216L365.542 287.773Z" fill="#455A64"/>
</svg>
