<svg width="107" height="136" viewBox="0 0 107 136" fill="none" xmlns="http://www.w3.org/2000/svg">
<path d="M49.0569 1.18369C46.714 1.86183 44.7098 2.41168 44.5909 2.42085C44.4719 2.42085 44.2889 2.46667 44.1882 2.52166C44.0875 2.57665 39.173 3.9971 33.2794 5.67415L22.5628 8.71667L17.7765 14.9392C15.1408 18.3665 10.8945 23.8926 8.332 27.2192L3.67382 33.2767L3.07896 44.0539L2.4841 54.831L3.35351 60.3111L4.23206 65.7914L8.59741 74.1308L12.9719 82.4703L18.1884 87.0982L23.4048 91.7261L29.2984 95.7034L35.1922 99.6894L41.461 100.67C44.9112 101.201 49.1392 101.862 50.8598 102.127L53.9897 102.622L61.4299 100.433C65.5207 99.232 72.3112 97.2524 76.5118 96.0243C80.7124 94.7961 84.245 93.7515 84.3456 93.7054C84.4555 93.6602 86.6793 90.8005 89.2876 87.3548C97.5421 76.4585 101.99 70.5751 102.539 69.8512L103.07 69.1455L103.793 58.5334C104.187 52.6957 104.516 47.7471 104.516 47.5363C104.516 47.243 103.354 44.0997 99.7483 34.6147C97.1216 27.7141 94.8335 21.6932 94.6504 21.2166L94.3302 20.3644L93.0946 19.3838C92.4175 18.8523 90.4132 17.2577 88.647 15.8464C72.54 2.99819 71.8537 2.46667 71.3594 2.40253C70.6182 2.29255 53.9897 0.0473228 53.6327 0.0015025C53.404 -0.0259941 52.0586 0.322245 49.0569 1.18369ZM60.1304 1.49528L66.6738 2.40253H56.9273C51.5644 2.40253 47.2266 2.39335 47.2723 2.36587C47.4919 2.27423 53.3307 0.606339 53.4497 0.597178C53.5229 0.597178 56.5338 1.0004 60.1304 1.49528ZM71.2954 3.26397C71.2862 3.6122 69.6847 14.6918 69.6298 14.7467C69.6024 14.7742 68.3302 14.1786 66.802 13.4362C62.3542 11.2552 45.8996 3.13566 45.863 3.09901C45.8447 3.08067 51.5552 3.06235 58.5563 3.06235H71.2954V3.26397ZM54.3648 8.0202C68.074 14.7651 68.98 15.2232 68.8245 15.2874C68.4858 15.4249 40.6008 23.3977 40.5641 23.3702C40.5458 23.3519 41.1315 20.3919 41.8728 16.7903C42.605 13.198 43.5201 8.72583 43.8953 6.8655C44.6549 3.13567 44.6367 3.21813 44.7281 3.27312C44.7739 3.29145 49.1026 5.42672 54.3648 8.0202ZM81.1334 10.6687C88.9672 16.9187 92.262 19.5488 92.5269 19.7504C92.6732 19.8603 92.71 19.9154 92.6189 19.9154C92.262 19.9154 70.3436 15.0858 70.307 14.9942C70.2796 14.9117 71.7712 4.24453 71.8994 3.59388C71.9543 3.30978 70.9202 2.52166 81.1334 10.6687ZM42.9344 8.47839C42.3761 11.1726 41.461 15.6357 40.9027 18.4124L39.8686 23.4528L30.6621 20.3735C25.6012 18.6782 21.4006 17.2761 21.3273 17.2486C21.2359 17.2211 21.3365 17.1202 21.6294 16.9369C22.2243 16.5795 27.2119 13.5554 36.2903 8.04768C40.4726 5.50919 43.8953 3.47473 43.9136 3.51139C43.9228 3.54805 43.4835 5.78412 42.9344 8.47839ZM41.7813 3.9696C41.6806 4.05208 32.2453 9.77973 26.2235 13.3995C24.2651 14.5726 22.2974 15.7731 21.849 16.048C21.4098 16.3322 21.0345 16.5429 21.0071 16.5246C20.9704 16.4788 22.8191 9.75225 22.9563 9.43148C23.0296 9.27565 24.5945 8.80831 32.3642 6.58141C37.4892 5.10597 41.7264 3.90546 41.7813 3.8963C41.8362 3.88713 41.8362 3.91462 41.7813 3.9696ZM21.062 13.8669L20.1559 17.1111L19.4787 17.7709C19.1126 18.1375 16.8522 20.3369 14.4636 22.6737C12.075 25.0106 9.40276 27.6225 8.53334 28.4838L6.94096 30.0509L13.9237 20.9784C17.7582 15.9839 21.126 11.6034 21.4006 11.2368C21.6751 10.8702 21.9131 10.5861 21.9313 10.6045C21.9496 10.6228 21.5561 12.0891 21.062 13.8669ZM68.9984 17.2852C68.7604 18.11 67.2778 23.1687 65.7129 28.5389C64.1479 33.9091 62.8484 38.3079 62.8393 38.3263C62.821 38.3354 60.4873 36.8325 57.6503 34.9721C54.8133 33.1118 50.7225 30.4359 48.5535 29.0154C41.4244 24.3508 40.9119 24.0118 41.0309 23.9476C41.0858 23.9201 43.63 23.1778 46.6775 22.3072C49.7249 21.4365 56.0671 19.6221 60.771 18.2658C65.475 16.9187 69.3552 15.8097 69.3828 15.8097C69.4102 15.8006 69.2455 16.4695 68.9984 17.2852ZM76.9237 17.1753C80.2 17.8809 83.3298 18.5682 83.8789 18.6873C87.9789 19.5946 93.378 20.7493 93.4884 20.7493C93.5611 20.7493 93.6255 20.8043 93.6255 20.8684C93.6255 20.9326 93.1774 22.6555 92.6282 24.6991C92.0697 26.7335 90.8982 31.0773 90.0197 34.3581C89.132 37.6298 88.3815 40.3882 88.3358 40.4799C88.2809 40.6081 87.7501 39.9116 85.8466 37.2266C84.5195 35.3479 82.7258 32.8186 81.8656 31.6089C80.017 29.0154 75.5783 22.7563 73.0434 19.1914C72.0641 17.8076 71.1215 16.4695 70.9385 16.2222C70.6822 15.8648 70.6548 15.7915 70.8013 15.8281C70.8927 15.8556 73.6565 16.4604 76.9237 17.1753ZM80.8955 31.3706C84.6294 36.6308 87.6677 40.9564 87.6403 40.9747C87.6128 41.0022 85.8923 40.8556 83.8149 40.6448C81.7374 40.434 77.546 40.0216 74.4985 39.7192C71.451 39.4168 67.772 39.041 66.3169 38.8944C64.8618 38.7386 63.6081 38.6195 63.5348 38.6195C63.4524 38.6195 63.425 38.5645 63.4616 38.4637C63.4982 38.3812 64.9441 33.4508 66.683 27.4941C68.4218 21.5374 69.886 16.5337 69.9318 16.3688L70.0325 16.0663L72.0642 18.9348C73.1898 20.511 77.1616 26.1103 80.8955 31.3706ZM29.8933 20.786C34.9358 22.463 39.1273 23.8834 39.2097 23.9293C39.3378 24.0026 39.2921 24.0575 38.926 24.3233C38.6881 24.4974 37.6814 25.2214 36.7021 25.927C35.7229 26.6419 32.0806 29.2811 28.603 31.7922C25.1344 34.3032 20.5861 37.5931 18.5086 39.1052C16.4221 40.6081 14.7107 41.827 14.7016 41.8086C14.6558 41.7628 20.6319 17.7251 20.6867 17.7251C20.7142 17.7251 24.8599 19.0997 29.8933 20.786ZM19.8174 18.4765C19.7991 18.5407 18.472 23.856 16.8797 30.28C15.2873 36.7041 13.9694 41.9828 13.9511 42.0011C13.9419 42.0194 11.9011 40.1774 9.42107 37.923C6.95011 35.6595 4.82692 33.735 4.70795 33.6433C4.58898 33.5517 4.48831 33.4417 4.48831 33.3959C4.48831 33.3226 19.7349 18.3665 19.8174 18.3665C19.8357 18.3665 19.8357 18.4216 19.8174 18.4765ZM97.9726 31.7464C100.068 37.2632 102.118 42.6426 102.521 43.7056C102.923 44.7595 103.345 45.8868 103.463 46.1983L103.683 46.7665L103.345 46.6382C103.162 46.574 100.553 45.6026 97.5605 44.4846C93.067 42.8075 89.3974 41.4421 88.9032 41.2679C88.8483 41.2404 89.736 37.8131 91.2094 32.342C94.2474 21.1159 94.1011 21.6565 94.1287 21.684C94.1471 21.7024 95.8768 26.2295 97.9726 31.7464ZM39.8137 39.7101V54.9135L31.0556 50.6063C26.2327 48.2419 20.6044 45.4743 18.5361 44.4663C16.477 43.449 14.7747 42.6151 14.7656 42.6151C14.7564 42.6059 16.3763 41.4146 18.3805 39.9667C20.3756 38.5278 26.013 34.459 30.8908 30.9216C35.7778 27.3933 39.7771 24.5066 39.7954 24.5066C39.8046 24.5066 39.8137 31.3523 39.8137 39.7101ZM43.154 26.2478C44.362 27.036 48.9929 30.0785 53.4497 32.9927C57.9065 35.9161 61.741 38.427 61.979 38.5737C62.2261 38.7295 62.4183 38.867 62.4183 38.8944C62.4092 38.9403 59.929 40.7272 45.9453 50.7987C43.0534 52.879 40.6282 54.6294 40.5732 54.6752C40.4818 54.7485 40.4543 51.7335 40.4543 39.6275V24.4883L40.7106 24.6532C40.8479 24.7449 41.946 25.4597 43.154 26.2478ZM9.84208 39.1602C11.9103 41.0297 13.6308 42.6151 13.6674 42.6793C13.7132 42.7434 12.0933 46.7481 9.40276 53.1906C7.01417 58.9091 5.00081 63.7294 4.92759 63.9036C4.81778 64.1785 4.77201 62.5564 4.59814 51.5319C4.47916 44.5579 4.36019 37.7764 4.33273 36.4659L4.27783 34.0833L5.18384 34.9171C5.67803 35.3754 7.77376 37.2815 9.84208 39.1602ZM76.0726 40.5073L87.8599 41.6804L87.6403 41.9553C87.5304 42.111 83.6502 47.4538 79.0194 53.8321C74.3979 60.2012 70.5999 65.3607 70.5816 65.2874C70.5724 65.2048 68.9617 59.3123 67.0033 52.1917L63.4524 39.2427L63.8734 39.2885C64.1022 39.316 69.5932 39.8658 76.0726 40.5073ZM64.2944 44.7137C65.0814 47.5821 66.262 51.8709 66.9117 54.2444C67.5615 56.6088 68.5224 60.1187 69.0441 62.0341C69.5657 63.9494 69.9867 65.5347 69.9592 65.5531C69.9409 65.5714 66.93 64.5359 63.2694 63.2438C59.5996 61.9515 56.0305 60.6869 55.3257 60.4395C54.6211 60.192 51.9488 59.2481 49.3772 58.3409C46.8148 57.4337 43.8496 56.398 42.788 56.0315C41.7355 55.6649 40.857 55.3534 40.8387 55.335C40.8113 55.3167 41.2048 55.0235 54.2184 45.6393C58.9406 42.2302 62.821 39.4535 62.8393 39.4626C62.8484 39.4809 63.5073 41.8362 64.2944 44.7137ZM95.7305 44.4846C98.7234 45.6026 101.752 46.7206 102.457 46.9772C103.162 47.2339 103.756 47.4538 103.774 47.4721C103.793 47.4905 103.473 48.2786 103.07 49.2225C102.668 50.1664 100.618 54.9868 98.5219 59.9263C93.6899 71.2899 94.2023 70.1444 94.1379 69.8695C94.0827 69.6587 93.1682 64.8291 91.8409 57.7727C91.5754 56.334 90.7885 52.21 90.1112 48.5993C89.4249 44.9978 88.8666 42.0194 88.8666 41.9919C88.8666 41.9186 88.6195 41.827 95.7305 44.4846ZM3.98497 52.0726C4.06734 56.8838 4.12225 60.8336 4.10394 60.8519C4.08564 60.8702 3.84769 59.5139 3.5823 57.846L3.10641 54.8127L3.45418 48.4802C3.64636 44.9978 3.81109 42.4135 3.82024 42.7434C3.82939 43.0733 3.91175 47.2705 3.98497 52.0726ZM90.9531 56.4622C92.4267 64.2701 93.6255 70.685 93.6255 70.7217C93.6255 70.7676 93.516 70.7767 93.378 70.7492C92.756 70.621 74.0501 66.5795 72.3661 66.2038C71.7164 66.0663 71.1672 65.9288 71.1398 65.9014C71.0941 65.8555 88.1344 42.2943 88.226 42.2943C88.2534 42.2852 89.4797 48.6635 90.9531 56.4622ZM29.335 50.478C40.1431 55.7933 39.3836 55.4175 39.3744 55.5183C39.3744 55.5642 35.2379 58.9824 30.1862 63.1246L20.9979 70.6576L19.7715 65.434C19.1035 62.5564 17.6667 56.3798 16.5776 51.7151L14.5918 43.2291L17.0718 44.4388C18.4263 45.1077 23.9539 47.8204 29.335 50.478ZM17.2092 57.1771C18.9205 64.5359 20.339 70.6026 20.3664 70.6668C20.3848 70.7217 18.9753 70.2818 17.2274 69.6862C5.97088 65.8372 4.99165 65.4981 5.01911 65.3698C5.07402 65.1315 14.0518 43.6598 14.0701 43.7332C14.0793 43.7698 15.4977 49.8181 17.2092 57.1771ZM103.125 59.0648C102.768 64.3801 102.466 68.7422 102.448 68.7514C102.402 68.8156 94.8611 70.6943 94.7599 70.6759C94.6964 70.6576 95.4738 68.7331 96.5447 66.2038C97.5881 63.757 99.6287 58.9641 101.084 55.5549C102.539 52.1367 103.738 49.36 103.756 49.3691C103.765 49.3874 103.491 53.7496 103.125 59.0648ZM46.9703 58.1759C56.9456 61.6949 69.4011 66.0938 69.6207 66.1763C69.8129 66.2496 69.7487 66.3138 68.98 66.8911C67.6714 67.8809 48.4254 82.6352 47.0893 83.6799C46.4395 84.184 45.8904 84.5872 45.8721 84.5781C45.863 84.5688 45.6891 83.6616 45.4786 82.5527C45.2772 81.453 44.1058 75.1389 42.8704 68.5407C41.6441 61.9333 40.6099 56.398 40.5824 56.2331C40.5458 56.0774 40.5458 55.9399 40.5732 55.9399C40.6008 55.9399 43.4744 56.9479 46.9703 58.1759ZM42.3304 69.0997C43.6666 76.2478 44.8654 82.6353 44.9844 83.2858C45.1125 83.9365 45.2041 84.4864 45.1858 84.4955C45.1582 84.523 44.8654 84.3581 31.7419 76.9901C26.5712 74.085 22.1235 71.6015 21.8673 71.4641C21.4006 71.2349 21.4006 71.2257 21.5653 71.0516C21.849 70.7767 39.8503 56.0407 39.8778 56.0681C39.8961 56.0774 40.9943 61.9424 42.3304 69.0997ZM14.5002 69.4021C17.7765 70.5201 20.4671 71.4549 20.4946 71.4732C20.5311 71.519 23.057 90.1407 23.0296 90.1865C23.0204 90.2049 6.51083 67.8625 5.74209 66.7903L5.39433 66.3046L6.97757 66.8361C7.84697 67.1385 11.2331 68.2932 14.5002 69.4021ZM80.9595 68.7148C86.3865 69.897 91.3833 70.9783 92.0513 71.1158C92.71 71.2624 93.2593 71.3999 93.2593 71.4365C93.2593 71.4641 92.9023 71.7848 92.4635 72.133C90.7152 73.5443 81.9296 80.6649 76.2831 85.2562L72.4394 88.3812L72.3753 88.0421C72.3387 87.8496 72.0001 83.1759 71.6157 77.659C71.2405 72.1422 70.9019 67.3859 70.8744 67.0927C70.8287 66.6712 70.847 66.5704 70.9476 66.5704C71.0209 66.5704 75.5234 67.5326 80.9595 68.7148ZM71.0209 77.9248C71.4327 83.7808 71.7438 88.6011 71.7164 88.6287C71.6889 88.6561 71.0758 88.592 70.3619 88.482C69.639 88.372 63.9924 87.5472 57.7968 86.6308C51.6102 85.7235 46.531 84.9629 46.5127 84.9446C46.4944 84.9354 47.8306 83.8907 49.487 82.626C52.7908 80.1151 68.3668 68.1741 69.4651 67.3218L70.1514 66.7812L70.2155 67.0194C70.2521 67.1477 70.6182 72.0597 71.0209 77.9248ZM13.0177 77.7049C16.2116 82.0395 19.3689 86.3284 20.0461 87.2356C20.7142 88.1429 21.2999 88.9493 21.3548 89.0226C21.4098 89.0959 21.3182 89.0319 21.1443 88.876C20.9704 88.7202 19.1767 87.1349 17.1633 85.357L13.5027 82.122L11.0501 77.4391C7.47175 70.621 6.91351 69.5304 7.06908 69.6862C7.15144 69.7595 9.82377 73.3702 13.0177 77.7049ZM101.843 69.677C101.835 69.7228 100.563 71.4183 99.0251 73.4435C97.4878 75.4688 95.2907 78.3739 94.1287 79.9043C92.9759 81.4255 90.6237 84.5322 88.9215 86.7866C87.2102 89.0501 85.7825 90.938 85.7367 90.9929C85.6909 91.0388 85.7733 90.8189 85.9197 90.489C86.2309 89.7924 91.548 77.7598 93.1866 74.0484L94.3118 71.4823L98.0186 70.5476C102.128 69.512 101.889 69.5671 101.843 69.677ZM30.6804 77.1367C35.8328 80.0234 41.1041 82.9834 42.4037 83.7074C43.694 84.4314 44.7281 85.0546 44.6915 85.0821C44.5268 85.2287 23.8715 90.9655 23.8075 90.8922C23.7708 90.8463 23.542 89.3251 23.3041 87.5106C23.0662 85.696 22.4988 81.4805 22.0504 78.1448C21.1993 71.8031 21.2084 71.8856 21.2816 71.8856C21.2999 71.8856 25.5371 74.25 30.6804 77.1367ZM90.6695 78.1722C89.2876 81.2881 87.2651 85.8977 86.1668 88.3995C85.0595 90.9105 84.1169 92.9631 84.062 92.9631C83.9704 92.9631 72.9701 89.041 72.8238 88.9586C72.7688 88.9219 74.3886 87.6022 83.4214 80.2891C84.9314 79.0703 87.7226 76.7976 89.6353 75.2488C91.5388 73.7001 93.113 72.4446 93.1314 72.4629C93.1498 72.4813 92.0421 75.0473 90.6695 78.1722ZM49.3864 93.6049C51.5187 98.0039 53.2392 101.633 53.2209 101.651C53.1935 101.678 46.7323 99.3962 38.8528 96.5738C30.964 93.7607 24.5762 91.4421 24.6403 91.4237C24.7043 91.4054 29.39 90.0857 35.0549 88.482C40.7197 86.869 45.3871 85.5678 45.4328 85.5769C45.4694 85.5861 47.254 89.1968 49.3864 93.6049ZM57.8425 87.2815C64.0565 88.1979 69.6298 89.0044 70.2247 89.0959L71.3137 89.2518L70.728 89.6733C70.4077 89.9024 66.5731 92.6976 62.2078 95.8869C57.8333 99.0762 54.2093 101.697 54.1452 101.724C54.072 101.752 52.7541 99.1306 50.155 93.7699C48.0319 89.3709 46.2656 85.7235 46.2473 85.6594C46.2199 85.5953 46.2748 85.5678 46.3754 85.5953C46.467 85.6136 51.6285 86.3742 57.8425 87.2815ZM77.8206 91.4328C80.9229 92.5418 83.1559 93.3937 83.0827 93.4306C83.0187 93.4675 79.9162 94.384 76.1916 95.4738C72.4668 96.5646 66.3352 98.3515 62.5555 99.4607C58.7851 100.57 55.6918 101.468 55.6827 101.459C55.6735 101.45 56.9456 100.505 58.5105 99.3602C60.0846 98.2141 63.8002 95.5107 66.7653 93.3393C70.1972 90.828 72.2106 89.4076 72.3021 89.4442C72.3753 89.4718 74.8646 90.3606 77.8206 91.4328ZM36.3818 96.3544C41.6166 98.2233 46.8971 100.112 48.1142 100.551C49.3314 100.982 50.3198 101.357 50.2923 101.376C50.2741 101.394 49.1758 101.248 47.8489 101.037C46.5219 100.835 43.209 100.313 40.4726 99.8913C37.7454 99.4607 35.4575 99.0845 35.3935 99.0486C35.0732 98.8466 26.0313 92.7437 25.9489 92.6699C25.9032 92.6238 26.0862 92.6699 26.3607 92.7704C26.6353 92.8719 31.1471 94.4845 36.3818 96.3544Z" fill="#235DAB"/>
<path d="M7.89191 84.2571V116.914H3.94595V84.2571H7.89191ZM18.9401 116.914V84.2571H38.6062V87.7652H22.886V98.7996H37.5879V102.308H22.886V113.406H38.8608V116.914H18.9401ZM48.8549 116.914V84.2571H59.8653C62.4112 84.2571 64.5009 84.693 66.1344 85.5646C67.7679 86.4257 68.9771 87.611 69.7621 89.1206C70.547 90.6301 70.9395 92.3472 70.9395 94.2706C70.9395 96.1949 70.547 97.9015 69.7621 99.3897C68.9771 100.878 67.7732 102.047 66.1503 102.898C64.5273 103.737 62.4536 104.158 59.929 104.158H51.0188V100.586H59.8018C61.5414 100.586 62.9415 100.33 64.0023 99.8203C65.0736 99.3095 65.848 98.5866 66.3253 97.6517C66.8133 96.7057 67.0572 95.5789 67.0572 94.2706C67.0572 92.9631 66.8133 91.8207 66.3253 90.8427C65.8374 89.8647 65.0578 89.11 63.9864 88.5784C62.915 88.0363 61.499 87.7652 59.7381 87.7652H52.8009V116.914H48.8549ZM64.1932 102.243L72.2124 116.914H67.63L59.7381 102.243H64.1932ZM81.9877 116.914H77.8508L89.816 84.2571H93.8895L105.855 116.914H101.717L91.9799 89.4235H91.7253L81.9877 116.914ZM83.5152 104.158H100.19V107.665H83.5152V104.158Z" fill="#235DAB"/>
<path d="M8.57745 123.385V127.609H8.06699V123.385H8.57745ZM13.3494 123.385V127.609H12.8554L10.5583 124.293H10.5172V127.609H10.0067V123.385H10.5007L12.806 126.711H12.8472V123.385H13.3494ZM14.546 123.838V123.385H17.7076V123.838H16.382V127.609H15.8716V123.838H14.546ZM18.9012 127.609V123.385H21.4453V123.838H19.4116V125.267H21.3135V125.72H19.4116V127.156H21.4782V127.609H18.9012ZM22.771 127.609V123.385H24.1954C24.5247 123.385 24.795 123.441 25.0063 123.554C25.2177 123.665 25.3741 123.819 25.4757 124.014C25.5772 124.209 25.628 124.431 25.628 124.68C25.628 124.929 25.5772 125.15 25.4757 125.342C25.3741 125.535 25.2184 125.686 25.0085 125.796C24.7985 125.905 24.5302 125.959 24.2036 125.959H23.051V125.497H24.1871C24.4122 125.497 24.5933 125.464 24.7305 125.398C24.8692 125.332 24.9694 125.239 25.0311 125.117C25.0942 124.996 25.1258 124.85 25.1258 124.68C25.1258 124.511 25.0942 124.363 25.0311 124.237C24.968 124.11 24.8671 124.013 24.7285 123.943C24.5899 123.873 24.4068 123.838 24.179 123.838H23.2815V127.609H22.771ZM24.7553 125.712L25.7926 127.609H25.1998L24.179 125.712H24.7553ZM30.227 123.385V127.609H29.733L27.436 124.293H27.3948V127.609H26.8843V123.385H27.3783L29.6836 126.711H29.7248V123.385H30.227ZM31.8271 127.609H31.2919L32.8398 123.385H33.3667L34.9146 127.609H34.3794L33.1197 124.053H33.0868L31.8271 127.609ZM32.0247 125.959H34.1819V126.413H32.0247V125.959ZM35.254 123.838V123.385H38.4155V123.838H37.0899V127.609H36.5795V123.838H35.254ZM40.1195 123.385V127.609H39.609V123.385H40.1195ZM45.1055 125.497C45.1055 125.942 45.0253 126.328 44.8647 126.652C44.7041 126.977 44.4839 127.227 44.204 127.403C43.924 127.579 43.6043 127.668 43.2448 127.668C42.8853 127.668 42.5656 127.579 42.2856 127.403C42.0057 127.227 41.7855 126.977 41.6249 126.652C41.4644 126.328 41.3841 125.942 41.3841 125.497C41.3841 125.052 41.4644 124.666 41.6249 124.342C41.7855 124.017 42.0057 123.767 42.2856 123.591C42.5656 123.415 42.8853 123.328 43.2448 123.328C43.6043 123.328 43.924 123.415 44.204 123.591C44.4839 123.767 44.7041 124.017 44.8647 124.342C45.0253 124.666 45.1055 125.052 45.1055 125.497ZM44.6115 125.497C44.6115 125.131 44.5505 124.823 44.4284 124.571C44.3076 124.32 44.1436 124.129 43.9364 124C43.7305 123.871 43.5 123.806 43.2448 123.806C42.9895 123.806 42.7583 123.871 42.5511 124C42.3453 124.129 42.1814 124.32 42.0592 124.571C41.9385 124.823 41.8781 125.131 41.8781 125.497C41.8781 125.863 41.9385 126.172 42.0592 126.424C42.1814 126.675 42.3453 126.865 42.5511 126.994C42.7583 127.125 42.9895 127.189 43.2448 127.189C43.5 127.189 43.7305 127.125 43.9364 126.994C44.1436 126.865 44.3076 126.675 44.4284 126.424C44.5505 126.172 44.6115 125.863 44.6115 125.497ZM49.7123 123.385V127.609H49.2182L46.9212 124.293H46.8801V127.609H46.3695V123.385H46.8636L49.1688 126.711H49.2101V123.385H49.7123ZM51.3123 127.609H50.7772L52.325 123.385H52.8519L54.3998 127.609H53.8647L52.605 124.053H52.5721L51.3123 127.609ZM51.51 125.959H53.6671V126.413H51.51V125.959ZM55.4622 127.609V123.385H55.9726V127.156H57.9322V127.609H55.4622ZM61.1642 127.609V123.385H63.7082V123.838H61.6747V125.267H63.5765V125.72H61.6747V127.156H63.7412V127.609H61.1642ZM66.3349 127.609H65.0341V123.385H66.3925C66.8015 123.385 67.1514 123.47 67.4423 123.638C67.7332 123.806 67.9562 124.048 68.1112 124.363C68.2663 124.677 68.3438 125.052 68.3438 125.489C68.3438 125.929 68.2656 126.308 68.1092 126.626C67.9527 126.942 67.725 127.185 67.4258 127.356C67.1267 127.525 66.763 127.609 66.3349 127.609ZM65.5445 127.156H66.302C66.6505 127.156 66.9394 127.089 67.1686 126.954C67.3977 126.818 67.5685 126.627 67.681 126.378C67.7936 126.129 67.8499 125.833 67.8499 125.489C67.8499 125.148 67.7943 124.854 67.6832 124.608C67.572 124.36 67.4059 124.171 67.1851 124.038C66.9641 123.906 66.689 123.838 66.3596 123.838H65.5445V127.156ZM72.3722 123.385H72.8826V126.182C72.8826 126.471 72.8147 126.729 72.6788 126.956C72.5444 127.181 72.3544 127.36 72.1087 127.49C71.8631 127.619 71.575 127.684 71.2442 127.684C70.9136 127.684 70.6254 127.619 70.3798 127.49C70.1341 127.36 69.9434 127.181 69.8075 126.956C69.6731 126.729 69.6058 126.471 69.6058 126.182V123.385H70.1163V126.141C70.1163 126.347 70.1615 126.531 70.2522 126.691C70.3427 126.851 70.4717 126.977 70.6391 127.069C70.8079 127.16 71.0096 127.206 71.2442 127.206C71.4789 127.206 71.6806 127.16 71.8493 127.069C72.0182 126.977 72.1472 126.851 72.2363 126.691C72.3269 126.531 72.3722 126.347 72.3722 126.141V123.385ZM77.6998 124.705H77.1894C77.1592 124.558 77.1064 124.428 77.031 124.317C76.9568 124.206 76.8663 124.112 76.7592 124.037C76.6536 123.96 76.5363 123.902 76.4073 123.863C76.2783 123.825 76.1438 123.806 76.0039 123.806C75.7486 123.806 75.5174 123.871 75.3102 124C75.1043 124.129 74.9404 124.32 74.8182 124.571C74.6975 124.823 74.6371 125.131 74.6371 125.497C74.6371 125.863 74.6975 126.172 74.8182 126.424C74.9404 126.675 75.1043 126.865 75.3102 126.994C75.5174 127.125 75.7486 127.189 76.0039 127.189C76.1438 127.189 76.2783 127.17 76.4073 127.131C76.5363 127.092 76.6536 127.035 76.7592 126.959C76.8663 126.883 76.9568 126.789 77.031 126.677C77.1064 126.564 77.1592 126.435 77.1894 126.289H77.6998C77.6615 126.505 77.5915 126.699 77.49 126.869C77.3884 127.04 77.2622 127.184 77.1112 127.304C76.9602 127.422 76.7908 127.513 76.6028 127.574C76.4162 127.636 76.2166 127.668 76.0039 127.668C75.6443 127.668 75.3246 127.579 75.0446 127.403C74.7647 127.227 74.5445 126.977 74.3839 126.652C74.2234 126.328 74.1431 125.942 74.1431 125.497C74.1431 125.052 74.2234 124.666 74.3839 124.342C74.5445 124.017 74.7647 123.767 75.0446 123.591C75.3246 123.415 75.6443 123.328 76.0039 123.328C76.2166 123.328 76.4162 123.358 76.6028 123.42C76.7908 123.482 76.9602 123.573 77.1112 123.693C77.2622 123.811 77.3884 123.955 77.49 124.125C77.5915 124.295 77.6615 124.487 77.6998 124.705ZM79.1034 127.609H78.5683L80.1161 123.385H80.643L82.1909 127.609H81.6557L80.396 124.053H80.3631L79.1034 127.609ZM79.301 125.959H81.4581V126.413H79.301V125.959ZM82.5302 123.838V123.385H85.6918V123.838H84.3662V127.609H83.8558V123.838H82.5302ZM87.3958 123.385V127.609H86.8854V123.385H87.3958ZM92.3816 125.497C92.3816 125.942 92.3015 126.328 92.1414 126.652C91.9804 126.977 91.7602 127.227 91.4803 127.403C91.2003 127.579 90.8806 127.668 90.5211 127.668C90.1616 127.668 89.8418 127.579 89.5619 127.403C89.282 127.227 89.0617 126.977 88.9012 126.652C88.7406 126.328 88.6604 125.942 88.6604 125.497C88.6604 125.052 88.7406 124.666 88.9012 124.342C89.0617 124.017 89.282 123.767 89.5619 123.591C89.8418 123.415 90.1616 123.328 90.5211 123.328C90.8806 123.328 91.2003 123.415 91.4803 123.591C91.7602 123.767 91.9804 124.017 92.1414 124.342C92.3015 124.666 92.3816 125.052 92.3816 125.497ZM91.8878 125.497C91.8878 125.131 91.8268 124.823 91.7046 124.571C91.5839 124.32 91.4199 124.129 91.2127 124C91.0069 123.871 90.7763 123.806 90.5211 123.806C90.2659 123.806 90.0347 123.871 89.8275 124C89.6217 124.129 89.4576 124.32 89.3355 124.571C89.2147 124.823 89.1544 125.131 89.1544 125.497C89.1544 125.863 89.2147 126.172 89.3355 126.424C89.4576 126.675 89.6217 126.865 89.8275 126.994C90.0347 127.125 90.2659 127.189 90.5211 127.189C90.7763 127.189 91.0069 127.125 91.2127 126.994C91.4199 126.865 91.5839 126.675 91.7046 126.424C91.8268 126.172 91.8878 125.863 91.8878 125.497ZM96.9882 123.385V127.609H96.4941L94.1977 124.293H94.1563V127.609H93.6457V123.385H94.1398L96.4454 126.711H96.4868V123.385H96.9882ZM13.1192 134.617H12.584L14.1319 130.392H14.6589L16.2067 134.617H15.6716L14.4119 131.061H14.3789L13.1192 134.617ZM13.3168 132.967H15.474V133.42H13.3168V132.967ZM20.6117 130.392V134.617H20.1177L17.8207 131.3H17.7795V134.617H17.269V130.392H17.763L20.0683 133.718H20.1096V130.392H20.6117ZM23.3398 134.617H22.039V130.392H23.3974C23.8063 130.392 24.1562 130.477 24.4472 130.646C24.7381 130.814 24.9611 131.055 25.1161 131.37C25.2711 131.684 25.3487 132.059 25.3487 132.496C25.3487 132.936 25.2705 133.315 25.1141 133.633C24.9576 133.949 24.7299 134.193 24.4307 134.363C24.1316 134.532 23.7679 134.617 23.3398 134.617ZM22.5494 134.163H23.3069C23.6554 134.163 23.9443 134.096 24.1734 133.961C24.4025 133.826 24.5734 133.634 24.6859 133.385C24.7984 133.136 24.8547 132.84 24.8547 132.496C24.8547 132.155 24.7992 131.862 24.688 131.616C24.5769 131.368 24.4108 131.179 24.1899 131.046C23.9689 130.913 23.6938 130.846 23.3645 130.846H22.5494V134.163ZM28.6466 134.617V130.392H30.071C30.4003 130.392 30.6706 130.448 30.882 130.562C31.0933 130.672 31.2497 130.826 31.3513 131.022C31.4528 131.216 31.5035 131.439 31.5035 131.688C31.5035 131.937 31.4528 132.157 31.3513 132.35C31.2497 132.542 31.0939 132.694 30.884 132.803C30.674 132.912 30.4058 132.967 30.0792 132.967H28.9265V132.505H30.0628C30.2878 132.505 30.4689 132.471 30.6061 132.406C30.7447 132.34 30.8449 132.246 30.9066 132.125C30.9697 132.003 31.0013 131.857 31.0013 131.688C31.0013 131.519 30.9697 131.37 30.9066 131.244C30.8435 131.118 30.7427 131.02 30.6041 130.951C30.4655 130.881 30.2823 130.846 30.0545 130.846H29.1571V134.617H28.6466ZM30.6308 132.719L31.6682 134.617H31.0754L30.0545 132.719H30.6308ZM32.7599 134.617V130.392H35.304V130.846H33.2704V132.274H35.1723V132.728H33.2704V134.163H35.3369V134.617H32.7599ZM38.9351 131.449C38.9104 131.24 38.8102 131.077 38.6345 130.962C38.4589 130.846 38.2435 130.789 37.9882 130.789C37.8016 130.789 37.6383 130.819 37.4984 130.879C37.3598 130.94 37.2514 131.023 37.1732 131.129C37.0963 131.235 37.0579 131.355 37.0579 131.489C37.0579 131.603 37.0847 131.7 37.1382 131.781C37.193 131.86 37.263 131.927 37.3481 131.981C37.4332 132.033 37.5224 132.076 37.6157 132.111C37.709 132.144 37.7947 132.171 37.873 132.191L38.3011 132.306C38.4109 132.336 38.5331 132.375 38.6675 132.426C38.8034 132.477 38.933 132.547 39.0566 132.635C39.1814 132.721 39.2843 132.833 39.3652 132.968C39.4462 133.105 39.4867 133.272 39.4867 133.47C39.4867 133.699 39.4271 133.904 39.3076 134.089C39.1896 134.273 39.0167 134.42 38.7889 134.528C38.5625 134.637 38.2874 134.692 37.9636 134.692C37.6617 134.692 37.4002 134.643 37.1793 134.545C36.9598 134.447 36.7869 134.311 36.6606 134.137C36.5358 133.961 36.4651 133.759 36.4486 133.528H36.9755C36.9893 133.688 37.0428 133.819 37.1361 133.924C37.2308 134.027 37.3502 134.104 37.4942 134.155C37.6397 134.205 37.7961 134.229 37.9636 134.229C38.1584 134.229 38.3334 134.197 38.4884 134.134C38.6435 134.069 38.7663 133.98 38.8569 133.866C38.9474 133.75 38.9927 133.616 38.9927 133.462C38.9927 133.321 38.9536 133.207 38.8754 133.12C38.7972 133.031 38.6943 132.96 38.5666 132.905C38.439 132.849 38.3011 132.801 38.1529 132.761L37.6342 132.612C37.3049 132.517 37.0442 132.382 36.8521 132.206C36.66 132.03 36.5639 131.799 36.5639 131.514C36.5639 131.278 36.6277 131.072 36.7554 130.896C36.8844 130.719 37.0572 130.581 37.274 130.483C37.4922 130.384 37.7358 130.335 38.0047 130.335C38.2765 130.335 38.518 130.383 38.7292 130.481C38.9405 130.578 39.108 130.709 39.2315 130.877C39.3563 131.045 39.4222 131.235 39.4291 131.449H38.9351ZM40.7318 134.617V130.392H43.2758V130.846H41.2422V132.274H43.1441V132.728H41.2422V134.163H43.3088V134.617H40.7318ZM44.7745 134.617H44.2393L45.7872 130.392H46.3142L47.8619 134.617H47.3268L46.0671 131.061H46.0342L44.7745 134.617ZM44.9721 132.967H47.1292V133.42H44.9721V132.967ZM48.9243 134.617V130.392H50.3487C50.678 130.392 50.9484 130.448 51.1596 130.562C51.3709 130.672 51.5274 130.826 51.6289 131.022C51.7305 131.216 51.7813 131.439 51.7813 131.688C51.7813 131.937 51.7305 132.157 51.6289 132.35C51.5274 132.542 51.3717 132.694 51.1617 132.803C50.9518 132.912 50.6835 132.967 50.3569 132.967H49.2043V132.505H50.3404C50.5655 132.505 50.7466 132.471 50.8839 132.406C51.0224 132.34 51.1226 132.246 51.1844 132.125C51.2475 132.003 51.279 131.857 51.279 131.688C51.279 131.519 51.2475 131.37 51.1844 131.244C51.1212 131.118 51.0204 131.02 50.8818 130.951C50.7432 130.881 50.56 130.846 50.3322 130.846H49.4348V134.617H48.9243ZM50.9085 132.719L51.946 134.617H51.3531L50.3322 132.719H50.9085ZM56.4297 131.713H55.9192C55.889 131.565 55.8362 131.436 55.7607 131.324C55.6866 131.214 55.5961 131.12 55.489 131.044C55.3834 130.968 55.2661 130.909 55.1371 130.871C55.0081 130.832 54.8736 130.814 54.7337 130.814C54.4785 130.814 54.2472 130.878 54.04 131.007C53.8342 131.136 53.6702 131.327 53.548 131.579C53.4273 131.831 53.367 132.139 53.367 132.505C53.367 132.871 53.4273 133.18 53.548 133.431C53.6702 133.683 53.8342 133.873 54.04 134.002C54.2472 134.132 54.4785 134.197 54.7337 134.197C54.8736 134.197 55.0081 134.177 55.1371 134.138C55.2661 134.1 55.3834 134.043 55.489 133.967C55.5961 133.89 55.6866 133.796 55.7607 133.685C55.8362 133.571 55.889 133.442 55.9192 133.297H56.4297C56.3913 133.512 56.3213 133.706 56.2197 133.877C56.1182 134.047 55.992 134.192 55.841 134.312C55.69 134.43 55.5206 134.52 55.3326 134.582C55.146 134.644 54.9464 134.675 54.7337 134.675C54.3741 134.675 54.0544 134.587 53.7744 134.41C53.4946 134.234 53.2743 133.984 53.1138 133.66C52.9532 133.335 52.8729 132.95 52.8729 132.505C52.8729 132.059 52.9532 131.674 53.1138 131.349C53.2743 131.025 53.4946 130.775 53.7744 130.599C54.0544 130.423 54.3741 130.335 54.7337 130.335C54.9464 130.335 55.146 130.365 55.3326 130.427C55.5206 130.489 55.69 130.58 55.841 130.7C55.992 130.818 56.1182 130.962 56.2197 131.133C56.3213 131.302 56.3913 131.495 56.4297 131.713ZM57.6603 134.617V130.392H58.1707V132.274H60.4185V130.392H60.9289V134.617H60.4185V132.728H58.1707V134.617H57.6603ZM64.5654 134.617H64.0303L65.5781 130.392H66.105L67.6529 134.617H67.1177L65.8581 131.061H65.8251L64.5654 134.617ZM64.7631 132.967H66.9202V133.42H64.7631V132.967ZM68.7153 134.617V130.392H69.2257V134.163H71.1852V134.617H68.7153ZM72.3813 134.617V130.392H72.8918V134.163H74.8513V134.617H72.3813ZM76.5579 130.392V134.617H76.0475V130.392H76.5579ZM78.16 134.617H77.6249L79.1727 130.392H79.6996L81.2475 134.617H80.7123L79.4527 131.061H79.4198L78.16 134.617ZM78.3577 132.967H80.5148V133.42H78.3577V132.967ZM85.6525 130.392V134.617H85.1586L82.8615 131.3H82.8203V134.617H82.3099V130.392H82.8038L85.1092 133.718H85.1503V130.392H85.6525ZM90.4719 131.713H89.9613C89.9312 131.565 89.8783 131.436 89.8029 131.324C89.7287 131.214 89.6382 131.12 89.5312 131.044C89.4255 130.968 89.3082 130.909 89.1792 130.871C89.0502 130.832 88.9157 130.814 88.7758 130.814C88.5206 130.814 88.2894 130.878 88.0822 131.007C87.8763 131.136 87.7123 131.327 87.5902 131.579C87.4694 131.831 87.4091 132.139 87.4091 132.505C87.4091 132.871 87.4694 133.18 87.5902 133.431C87.7123 133.683 87.8763 133.873 88.0822 134.002C88.2894 134.132 88.5206 134.197 88.7758 134.197C88.9157 134.197 89.0502 134.177 89.1792 134.138C89.3082 134.1 89.4255 134.043 89.5312 133.967C89.6382 133.89 89.7287 133.796 89.8029 133.685C89.8783 133.571 89.9312 133.442 89.9613 133.297H90.4719C90.4334 133.512 90.3634 133.706 90.2619 133.877C90.1603 134.047 90.0341 134.192 89.8831 134.312C89.7322 134.43 89.5628 134.52 89.3747 134.582C89.1881 134.644 88.9885 134.675 88.7758 134.675C88.4162 134.675 88.0965 134.587 87.8166 134.41C87.5367 134.234 87.3164 133.984 87.1559 133.66C86.9953 133.335 86.9151 132.95 86.9151 132.505C86.9151 132.059 86.9953 131.674 87.1559 131.349C87.3164 131.025 87.5367 130.775 87.8166 130.599C88.0965 130.423 88.4162 130.335 88.7758 130.335C88.9885 130.335 89.1881 130.365 89.3747 130.427C89.5628 130.489 89.7322 130.58 89.8831 130.7C90.0341 130.818 90.1603 130.962 90.2619 131.133C90.3634 131.302 90.4334 131.495 90.4719 131.713ZM91.7024 134.617V130.392H94.2465V130.846H92.2132V132.274H94.1149V132.728H92.2132V134.163H94.2796V134.617H91.7024Z" fill="#235DAB"/>
</svg>
