<svg width="579" height="424" viewBox="0 0 579 424" fill="none" xmlns="http://www.w3.org/2000/svg">
<path d="M579 372.604H0V372.889H579V372.604Z" fill="#EBEBEB"/>
<path d="M520.984 390.916H482.631V391.2H520.984V390.916Z" fill="#EBEBEB"/>
<path d="M383.553 394.012H373.49V394.296H383.553V394.012Z" fill="#EBEBEB"/>
<path d="M481.473 380.355H459.251V380.639H481.473V380.355Z" fill="#EBEBEB"/>
<path d="M110.763 382.267H60.7487V382.552H110.763V382.267Z" fill="#EBEBEB"/>
<path d="M128.411 382.267H121.081V382.552H128.411V382.267Z" fill="#EBEBEB"/>
<path d="M260.724 387.069H152.242V387.354H260.724V387.069Z" fill="#EBEBEB"/>
<path d="M274.446 321.846H50.8477C49.0961 321.843 47.4172 321.158 46.1797 319.939C44.9422 318.721 44.2471 317.07 44.2471 315.348V6.44148C44.2624 4.72985 44.9642 3.09325 46.2 1.88717C47.4359 0.681088 49.1061 0.00293211 50.8477 0H274.446C276.2 0 277.881 0.68465 279.122 1.90333C280.362 3.12202 281.058 4.77491 281.058 6.49838V315.348C281.058 317.072 280.362 318.724 279.122 319.943C277.881 321.162 276.2 321.846 274.446 321.846ZM50.8477 0.227615C49.1729 0.23063 47.5676 0.886631 46.3844 2.05163C45.2012 3.21663 44.5366 4.79543 44.5366 6.44148V315.348C44.5366 316.994 45.2012 318.573 46.3844 319.738C47.5676 320.903 49.1729 321.559 50.8477 321.562H274.446C276.122 321.559 277.728 320.903 278.913 319.739C280.098 318.574 280.766 316.995 280.769 315.348V6.44148C280.766 4.79439 280.098 3.21561 278.913 2.05094C277.728 0.886262 276.122 0.230623 274.446 0.227615H50.8477Z" fill="#EBEBEB"/>
<path d="M524.933 321.846H301.323C299.571 321.843 297.891 321.158 296.651 319.94C295.412 318.722 294.714 317.071 294.711 315.348V6.44148C294.729 4.72881 295.434 3.09223 296.671 1.88646C297.909 0.68069 299.581 0.00290014 301.323 0H524.933C526.673 0.00592309 528.34 0.685402 529.573 1.89116C530.807 3.09693 531.507 4.73182 531.522 6.44148V315.348C531.522 317.068 530.829 318.717 529.594 319.935C528.359 321.153 526.683 321.84 524.933 321.846ZM301.323 0.227615C299.647 0.230623 298.041 0.886262 296.856 2.05094C295.671 3.21561 295.004 4.79439 295.001 6.44148V315.348C295.004 316.995 295.671 318.574 296.856 319.739C298.041 320.903 299.647 321.559 301.323 321.562H524.933C526.609 321.559 528.215 320.903 529.401 319.739C530.586 318.574 531.253 316.995 531.256 315.348V6.44148C531.253 4.79439 530.586 3.21561 529.401 2.05094C528.215 0.886262 526.609 0.230623 524.933 0.227615H301.323Z" fill="#EBEBEB"/>
<path d="M253.718 372.604H275.28V227.079H253.718L253.718 372.604Z" fill="#E6E6E6"/>
<path d="M261.314 372.604H253.718V344.949H269.27L261.314 372.604Z" fill="#F0F0F0"/>
<path d="M481.763 372.604H503.325V227.079H481.763V372.604Z" fill="#E6E6E6"/>
<path d="M253.729 365.048H488.386V227.068L253.729 227.068L253.729 365.048Z" fill="#F0F0F0"/>
<path d="M480.79 372.604H488.387V344.949H472.835L480.79 372.604Z" fill="#F0F0F0"/>
<path d="M411.02 238.494V352.631H480.582V238.494H411.02Z" fill="#E6E6E6"/>
<path d="M438.882 242.512H452.639C458.471 242.594 464.122 240.527 468.48 236.719H423.11C427.452 240.51 433.075 242.575 438.882 242.512Z" fill="#F0F0F0"/>
<path d="M336.272 238.494V352.631H405.833V238.494H336.272Z" fill="#E6E6E6"/>
<path d="M363.461 242.512H377.23C383.049 242.583 388.686 240.518 393.037 236.719H347.666C352.012 240.518 357.646 242.584 363.461 242.512Z" fill="#F0F0F0"/>
<path d="M261.523 238.506V352.643H331.084V238.506H261.523Z" fill="#E6E6E6"/>
<path d="M288.724 242.512H302.481C308.3 242.583 313.937 240.518 318.288 236.719H272.917C277.267 240.519 282.905 242.586 288.724 242.512Z" fill="#F0F0F0"/>
<path d="M86.3868 372.604H233.522L233.522 47.5484H86.3868L86.3868 372.604Z" fill="#F0F0F0"/>
<path d="M86.3868 372.604H230.419L230.419 47.5484H86.3868L86.3868 372.604Z" fill="#F5F5F5"/>
<path d="M221.641 365.23L221.641 54.9233L95.1645 54.9233L95.1645 365.23H221.641Z" fill="#F0F0F0"/>
<path d="M209.216 112.669C209.217 108.219 208.327 103.812 206.595 99.7001C204.863 95.5883 202.324 91.852 199.123 88.7047C195.922 85.5574 192.121 83.0608 187.937 81.3574C183.754 79.6541 179.27 78.7773 174.742 78.7773H142.087C132.941 78.7773 124.169 82.3481 117.702 88.704C111.235 95.06 107.601 103.68 107.601 112.669H209.216Z" fill="#FAFAFA"/>
<path d="M209.227 345.94V271.806H107.613V345.94H209.227Z" fill="#F5F5F5"/>
<path d="M209.227 133.53H164.401V262.235H209.227V133.53Z" fill="#F5F5F5"/>
<path d="M152.428 133.53H107.601V262.235H152.428V133.53Z" fill="#F5F5F5"/>
<path d="M123.906 197.307H105.494C104.738 197.307 104.014 197.012 103.479 196.487C102.945 195.962 102.645 195.25 102.645 194.507C102.648 193.766 102.949 193.055 103.483 192.531C104.016 192.007 104.739 191.711 105.494 191.708H123.906C124.66 191.711 125.383 192.007 125.917 192.531C126.45 193.055 126.752 193.766 126.755 194.507C126.755 195.25 126.454 195.962 125.92 196.487C125.386 197.012 124.661 197.307 123.906 197.307Z" fill="#E0E0E0"/>
<path d="M97.4457 365.23L97.4457 54.9233H95.1644L95.1644 365.23H97.4457Z" fill="#F0F0F0"/>
<path d="M326.602 191.401L482.631 191.401V31.1038L326.602 31.1038V191.401Z" fill="#E6E6E6"/>
<path d="M322.665 191.401L478.694 191.401V31.1038L322.665 31.1038V191.401Z" fill="#F5F5F5"/>
<path d="M313.552 199.731L482.631 199.731V191.401L313.552 191.401V199.731Z" fill="#E6E6E6"/>
<path d="M309.116 199.731L469.488 199.731V191.401L309.116 191.401V199.731Z" fill="#F5F5F5"/>
<path d="M471.642 183.923V38.5918L329.729 38.5918V183.923H471.642Z" fill="white"/>
<path d="M404.617 183.923V38.5918H396.754V183.923H404.617Z" fill="#F5F5F5"/>
<path d="M332.693 183.923V38.5918H329.717V183.923H332.693Z" fill="#E6E6E6"/>
<path d="M407.593 183.923V38.5918H404.617V183.923H407.593Z" fill="#E6E6E6"/>
<path d="M347.574 195.213C344.702 165.988 342.698 118.576 344.25 102.711C344.282 102.441 344.37 102.18 344.51 101.945C344.649 101.71 344.837 101.506 345.061 101.345C345.36 101.13 345.715 101.001 346.084 100.974C346.454 100.947 346.824 101.023 347.153 101.193C347.481 101.362 347.754 101.619 347.941 101.934C348.128 102.248 348.222 102.608 348.211 102.973C347.944 110.837 347.632 130.48 349.369 164.36C350.214 181.227 351.43 192.812 350.596 195.213H347.574Z" fill="#E6E6E6"/>
<path d="M336.874 127.862C328.698 118.94 312.011 112.601 295.012 112.635C288.33 112.635 315.323 123.003 326.544 134.44C335.264 143.317 345.072 158.26 348.442 166.557C346.242 149.087 345.084 136.773 336.874 127.862Z" fill="#E6E6E6"/>
<path d="M353.074 130.582C359.86 121.296 375.516 114.149 392.446 113.341C399.093 113.022 373.779 124.721 364.33 136.626C357 145.901 349.473 161.276 347.4 169.698C346.925 152.206 346.242 139.869 353.074 130.582Z" fill="#E6E6E6"/>
<path d="M336.515 95.3022C329.567 87.7454 315.462 82.3737 301.057 82.4079C295.406 82.4079 318.253 91.1938 327.76 100.867C335.148 108.39 343.474 121.045 346.288 128.067C344.47 113.295 343.428 102.848 336.515 95.3022Z" fill="#E6E6E6"/>
<path d="M350.226 106.466C356.016 98.6023 369.228 92.5478 383.588 91.865C389.215 91.6032 367.781 101.47 359.779 111.588C353.572 119.44 347.192 132.46 345.443 139.596C345.084 124.778 344.482 114.33 350.226 106.466Z" fill="#E6E6E6"/>
<path d="M348.72 227.079C344.408 227.08 340.259 225.46 337.124 222.55C333.989 219.64 332.105 215.662 331.86 211.431L330.366 186.029H367.086L365.592 211.431C365.347 215.664 363.462 219.644 360.324 222.554C357.186 225.464 353.034 227.083 348.72 227.079Z" fill="#E6E6E6"/>
<path d="M369.46 191.799H327.992L326.799 181.226H370.641L369.46 191.799Z" fill="#E6E6E6"/>
<path d="M289.5 424C413.502 424 514.025 418.232 514.025 411.117C514.025 404.002 413.502 398.234 289.5 398.234C165.498 398.234 64.9753 404.002 64.9753 411.117C64.9753 418.232 165.498 424 289.5 424Z" fill="#F5F5F5"/>
<path d="M60.5634 66.6112C60.5695 64.7175 61.3377 62.9031 62.7002 61.5641C64.0626 60.225 65.9088 59.4701 67.8357 59.4641H392.33C394.257 59.4701 396.103 60.225 397.466 61.5641C398.828 62.9031 399.597 64.7175 399.603 66.6112V89.6116H60.5634V66.6112Z" fill="#263238"/>
<path d="M119.355 80.5643C118.141 80.5643 116.955 80.2105 115.945 79.5478C114.936 78.885 114.149 77.9429 113.685 76.8408C113.22 75.7386 113.099 74.5258 113.336 73.3558C113.573 72.1857 114.157 71.111 115.015 70.2674C115.874 69.4238 116.967 68.8494 118.158 68.6166C119.348 68.3839 120.582 68.5033 121.704 68.9599C122.825 69.4164 123.784 70.1895 124.458 71.1814C125.133 72.1734 125.493 73.3395 125.493 74.5325C125.493 76.1322 124.846 77.6664 123.695 78.7976C122.544 79.9288 120.983 80.5643 119.355 80.5643ZM119.355 69.764C118.396 69.764 117.457 70.0437 116.66 70.5676C115.862 71.0916 115.24 71.8363 114.872 72.7077C114.505 73.579 114.409 74.5378 114.596 75.4628C114.784 76.3878 115.246 77.2375 115.924 77.9044C116.603 78.5712 117.467 79.0254 118.409 79.2094C119.35 79.3934 120.325 79.299 121.212 78.938C122.099 78.5771 122.856 77.9659 123.389 77.1818C123.923 76.3976 124.207 75.4756 124.207 74.5325C124.204 73.2687 123.692 72.0576 122.783 71.164C121.873 70.2704 120.641 69.767 119.355 69.764Z" fill="#F0F0F0"/>
<path d="M99.8661 80.5643C98.6527 80.562 97.4672 80.2064 96.4595 79.5422C95.4517 78.8781 94.6668 77.9352 94.2041 76.8329C93.7413 75.7305 93.6215 74.5181 93.8596 73.3488C94.0977 72.1795 94.6831 71.1058 95.5419 70.2634C96.4007 69.421 97.4943 68.8476 98.6845 68.6158C99.8748 68.384 101.108 68.5041 102.229 68.961C103.35 69.4178 104.308 70.1909 104.981 71.1826C105.655 72.1743 106.015 73.34 106.015 74.5325C106.015 75.3256 105.856 76.1108 105.547 76.8434C105.238 77.576 104.784 78.2414 104.213 78.8016C103.642 79.3619 102.964 79.806 102.218 80.1084C101.472 80.4109 100.673 80.5658 99.8661 80.5643ZM99.8661 69.764C98.9069 69.7662 97.97 70.0478 97.1736 70.5732C96.3772 71.0985 95.7571 71.844 95.3916 72.7155C95.0262 73.5871 94.9317 74.5455 95.1203 75.4697C95.3088 76.394 95.7718 77.2426 96.4508 77.9084C97.1299 78.5741 97.9944 79.0271 98.9353 79.2102C99.8762 79.3933 100.851 79.2982 101.737 78.9369C102.623 78.5757 103.38 77.9645 103.913 77.1806C104.445 76.3966 104.73 75.4751 104.73 74.5325C104.727 73.2668 104.213 72.0539 103.301 71.16C102.389 70.266 101.154 69.764 99.8661 69.764Z" fill="#F0F0F0"/>
<path d="M80.3885 80.5643C79.1751 80.562 77.9897 80.2064 76.9819 79.5422C75.9742 78.8781 75.1893 77.9352 74.7266 76.8329C74.2638 75.7305 74.1439 74.5181 74.382 73.3488C74.6202 72.1795 75.2056 71.1058 76.0644 70.2634C76.9232 69.421 78.0168 68.8476 79.207 68.6158C80.3972 68.384 81.6307 68.5041 82.7514 68.961C83.8722 69.4178 84.8301 70.1909 85.504 71.1826C86.1778 72.1743 86.5375 73.34 86.5375 74.5325C86.5375 75.3256 86.3784 76.1108 86.0692 76.8434C85.7601 77.576 85.3069 78.2414 84.7358 78.8016C84.1647 79.3619 83.4867 79.806 82.7408 80.1084C81.9948 80.4109 81.1955 80.5658 80.3885 80.5643ZM80.3885 69.764C79.4289 69.764 78.4908 70.0437 77.6929 70.5676C76.895 71.0916 76.2731 71.8363 75.9058 72.7077C75.5386 73.579 75.4425 74.5378 75.6297 75.4628C75.8169 76.3878 76.2791 77.2375 76.9576 77.9044C77.6362 78.5712 78.5007 79.0254 79.4419 79.2094C80.3831 79.3934 81.3587 79.299 82.2453 78.938C83.1319 78.5771 83.8897 77.9659 84.4228 77.1818C84.956 76.3976 85.2405 75.4756 85.2405 74.5325C85.2375 73.2687 84.7253 72.0576 83.816 71.164C82.9068 70.2703 81.6744 69.767 80.3885 69.764Z" fill="#F0F0F0"/>
<path d="M392.331 309.066H67.8358C65.909 309.06 64.0628 308.305 62.7003 306.966C61.3378 305.627 60.5697 303.813 60.5636 301.919V89.6118H399.603V301.919C399.597 303.813 398.829 305.627 397.466 306.966C396.104 308.305 394.257 309.06 392.331 309.066Z" fill="#4074BA"/>
<path d="M397.542 95.7229H62.6248V283.88H397.542V95.7229Z" fill="white"/>
<path d="M211.023 111.85H83.4457C81.009 111.85 79.0337 113.791 79.0337 116.186V132.927C79.0337 135.321 81.009 137.263 83.4457 137.263H211.023C213.459 137.263 215.434 135.321 215.434 132.927V116.186C215.434 113.791 213.459 111.85 211.023 111.85Z" fill="#4074BA"/>
<path d="M376.721 112.988C377.584 112.988 378.411 113.325 379.022 113.924C379.632 114.524 379.975 115.338 379.975 116.186V132.927C379.975 133.775 379.632 134.588 379.022 135.188C378.411 135.788 377.584 136.125 376.721 136.125H249.144C248.281 136.125 247.453 135.788 246.843 135.188C246.233 134.588 245.89 133.775 245.89 132.927V116.186C245.89 115.338 246.233 114.524 246.843 113.924C247.453 113.325 248.281 112.988 249.144 112.988H376.721ZM376.721 111.85H249.144C247.975 111.853 246.854 112.31 246.027 113.123C245.201 113.935 244.735 115.037 244.732 116.186V132.927C244.732 134.077 245.197 135.18 246.024 135.993C246.851 136.806 247.974 137.263 249.144 137.263H376.721C377.891 137.263 379.013 136.806 379.84 135.993C380.668 135.18 381.133 134.077 381.133 132.927V116.186C381.13 115.037 380.664 113.935 379.837 113.123C379.01 112.31 377.89 111.853 376.721 111.85Z" fill="#4074BA"/>
<path d="M101.707 148.643C105.963 148.643 110.123 149.884 113.661 152.207C117.199 154.531 119.957 157.833 121.585 161.697C123.214 165.561 123.64 169.812 122.81 173.914C121.979 178.016 119.93 181.784 116.921 184.741C113.912 187.698 110.078 189.712 105.905 190.528C101.731 191.344 97.4051 190.925 93.4737 189.325C89.5422 187.724 86.1819 185.014 83.8177 181.537C81.4536 178.059 80.1917 173.971 80.1917 169.789C80.1978 164.183 82.4666 158.808 86.5003 154.843C90.5339 150.879 96.0029 148.649 101.707 148.643ZM101.707 147.505C97.2229 147.505 92.8392 148.812 89.1105 151.261C85.3819 153.709 82.4757 157.19 80.7596 161.261C79.0435 165.333 78.5945 169.814 79.4694 174.136C80.3442 178.459 82.5037 182.429 85.6747 185.546C88.8456 188.662 92.8857 190.784 97.2839 191.644C101.682 192.504 106.241 192.063 110.384 190.376C114.527 188.689 118.068 185.833 120.56 182.169C123.051 178.504 124.381 174.196 124.381 169.789C124.381 163.879 121.992 158.211 117.74 154.032C113.488 149.853 107.721 147.505 101.707 147.505Z" fill="#4074BA"/>
<path opacity="0.4" d="M118.116 178.552C116.51 181.463 114.134 183.893 111.238 185.587C108.343 187.281 105.036 188.175 101.667 188.175C98.2975 188.175 94.9907 187.281 92.0954 185.587C89.2002 183.893 86.8239 181.463 85.2175 178.552C90.086 175.353 95.8106 173.646 101.667 173.646C107.523 173.646 113.248 175.353 118.116 178.552Z" fill="#4074BA"/>
<path opacity="0.4" d="M101.707 171.689C106.312 171.689 110.045 168.021 110.045 163.495C110.045 158.97 106.312 155.301 101.707 155.301C97.1026 155.301 93.3697 158.97 93.3697 163.495C93.3697 168.021 97.1026 171.689 101.707 171.689Z" fill="#4074BA"/>
<path opacity="0.4" d="M369.472 181.249H148.78C145.687 181.249 142.721 180.042 140.534 177.893C138.348 175.743 137.119 172.828 137.119 169.789C137.119 168.284 137.421 166.795 138.007 165.405C138.593 164.015 139.452 162.752 140.535 161.689C141.618 160.626 142.904 159.783 144.318 159.208C145.733 158.633 147.249 158.338 148.78 158.34H369.472C371.002 158.338 372.519 158.633 373.933 159.208C375.348 159.783 376.634 160.626 377.717 161.689C378.8 162.752 379.659 164.015 380.245 165.405C380.831 166.795 381.133 168.284 381.133 169.789C381.133 172.828 379.904 175.743 377.717 177.893C375.53 180.042 372.564 181.249 369.472 181.249Z" fill="#4074BA"/>
<path d="M101.707 209.405C105.963 209.405 110.123 210.645 113.661 212.969C117.199 215.292 119.957 218.594 121.585 222.458C123.214 226.322 123.64 230.574 122.81 234.676C121.979 238.777 119.93 242.545 116.921 245.502C113.912 248.46 110.078 250.473 105.905 251.289C101.731 252.105 97.4051 251.686 93.4737 250.086C89.5422 248.486 86.1819 245.775 83.8177 242.298C81.4536 238.821 80.1917 234.732 80.1917 230.55C80.1948 224.943 82.4626 219.566 86.4969 215.602C90.5312 211.637 96.002 209.408 101.707 209.405ZM101.707 208.267C97.2229 208.267 92.8392 209.574 89.1105 212.022C85.3819 214.471 82.4757 217.951 80.7596 222.023C79.0435 226.095 78.5945 230.575 79.4694 234.898C80.3442 239.22 82.5037 243.191 85.6747 246.307C88.8456 249.423 92.8857 251.546 97.2839 252.406C101.682 253.265 106.241 252.824 110.384 251.137C114.527 249.451 118.068 246.595 120.56 242.93C123.051 239.266 124.381 234.958 124.381 230.55C124.381 224.64 121.992 218.972 117.74 214.794C113.488 210.615 107.721 208.267 101.707 208.267Z" fill="#4074BA"/>
<path opacity="0.4" d="M118.116 239.245C116.51 242.156 114.134 244.586 111.238 246.28C108.343 247.974 105.036 248.868 101.667 248.868C98.2975 248.868 94.9907 247.974 92.0954 246.28C89.2002 244.586 86.8239 242.156 85.2175 239.245C90.0888 236.054 95.8124 234.351 101.667 234.351C107.521 234.351 113.245 236.054 118.116 239.245Z" fill="#4074BA"/>
<path opacity="0.4" d="M101.707 232.395C106.312 232.395 110.045 228.726 110.045 224.2C110.045 219.675 106.312 216.006 101.707 216.006C97.1026 216.006 93.3697 219.675 93.3697 224.2C93.3697 228.726 97.1026 232.395 101.707 232.395Z" fill="#4074BA"/>
<path opacity="0.4" d="M148.78 219.033H369.472C372.564 219.033 375.53 220.241 377.717 222.39C379.904 224.539 381.133 227.454 381.133 230.494C381.133 233.533 379.904 236.448 377.717 238.597C375.53 240.747 372.564 241.954 369.472 241.954H148.78C145.687 241.954 142.721 240.747 140.534 238.597C138.348 236.448 137.119 233.533 137.119 230.494C137.119 227.457 138.346 224.545 140.531 222.398C142.716 220.251 145.679 219.045 148.768 219.045L148.78 219.033Z" fill="#4074BA"/>
<path opacity="0.1" d="M315.115 241.613C315.114 248.575 315.808 255.52 317.188 262.349C310.712 266.129 305.345 271.496 301.612 277.925C297.879 284.355 295.909 291.626 295.892 299.029C295.869 302.408 296.258 305.778 297.05 309.066H392.331C394.257 309.06 396.104 308.306 397.466 306.966C398.829 305.627 399.597 303.813 399.603 301.919V138.037C375.644 143.303 354.223 156.43 338.867 175.255C323.51 194.081 315.134 217.485 315.115 241.613Z" fill="black"/>
<path d="M491.146 313.034C528.767 276.061 528.767 216.115 491.146 179.142C453.525 142.169 392.53 142.169 354.909 179.142C317.288 216.115 317.288 276.061 354.909 313.034C392.53 350.008 453.525 350.008 491.146 313.034Z" fill="#4074BA"/>
<path d="M485.577 307.002C519.874 273.295 519.874 218.646 485.577 184.939C451.28 151.232 395.674 151.232 361.377 184.939C327.08 218.646 327.08 273.295 361.377 307.002C395.674 340.708 451.28 340.708 485.577 307.002Z" fill="white"/>
<path d="M393.847 188.067L388.243 195.123C388.243 195.123 383.321 198.787 381.457 201.951C379.28 204.068 377.288 206.242 375.319 208.529C373.063 211.145 370.96 213.884 369.02 216.735C366.895 219.783 365.139 223.063 363.786 226.511C362.929 228.693 362.455 231.001 362.385 233.339C362.354 234.992 362.653 236.636 363.265 238.176C364.032 240.063 365.3 241.713 366.935 242.956L368.163 243.866L370.004 244.208C373.639 244.887 377.329 245.245 381.028 245.277L382.487 245.152L380.982 230.722C379.743 230.722 377.08 230.961 375.864 230.938C375.864 230.71 375.956 230.483 376.014 230.255C376.748 227.508 377.756 224.84 379.025 222.288C380.322 219.523 381.816 216.757 383.367 214.003C384.734 211.568 386.205 209.121 387.629 206.731L394.577 202.429L398.642 195.339L393.847 188.067ZM375.771 233.02C375.761 232.911 375.761 232.8 375.771 232.69C375.82 232.771 375.855 232.86 375.875 232.952C375.91 233.225 375.829 233.237 375.771 233.02Z" fill="#7F3E3B"/>
<path d="M433.312 203.316C433.486 202.44 427.395 199.436 423.203 201.882C419.578 203.999 419.115 206.89 420.435 210.338C420.435 210.577 420.528 210.816 420.562 211.055C420.643 211.613 420.713 212.193 420.748 212.717C421.014 216.347 420.041 219.727 415.884 221.651C415.884 221.878 415.317 222.117 415.131 222.277C413.592 223.608 412.61 225.453 412.375 227.455C412.375 228.934 413.8 230.107 415.456 231.518L417.772 233.054L420.945 232.758C430.683 229.947 435.234 221.207 435.026 220.558C432.525 216.507 432.559 209.405 433.312 203.316Z" fill="#7F3E3B"/>
<path d="M454.364 224.052L452.604 223.756C450.288 223.392 439.959 221.093 434.968 220.66C433.81 223.084 430.012 229.002 420.273 231.814L417.864 232.371L415.548 231.233C414.833 230.726 414.237 230.073 413.801 229.319C413.365 228.564 413.1 227.727 413.024 226.863C413.103 225.974 413.368 225.111 413.802 224.328C414.237 223.544 414.831 222.858 415.548 222.311C415.633 222.239 415.7 222.149 415.745 222.049C415.745 221.776 415.745 221.594 415.745 221.571C415.016 221.662 405.775 223.039 404.999 223.164C396.288 224.746 387.735 227.081 379.442 230.141L379.535 230.96L381.214 245.288L381.839 250.717C381.839 250.717 386.471 250.205 392.55 249.158C390.894 263.657 390.57 284.666 395.631 311.672L415.398 311.308L449.744 310.682C449.883 308.406 449.628 303.694 449.385 297.253L449.072 287.306C448.887 278.52 448.922 267.959 449.721 256.669C449.848 254.882 449.999 253.084 450.161 251.263C457.178 258.717 464.207 265.842 464.207 265.842L467.531 262.701C471.781 260.686 475.127 257.079 478.046 252.743L481.948 249.044C481.948 249.044 463.86 225.622 454.364 224.052Z" fill="#4074BA"/>
<path opacity="0.3" d="M444.857 245.414C445.122 247.783 445.891 250.071 447.115 252.128L449.779 256.612C449.906 254.825 450.057 253.027 450.219 251.206C448.389 249.237 446.559 247.291 444.857 245.414Z" fill="black"/>
<path opacity="0.3" d="M450.23 251.218C450.068 253.039 449.918 254.837 449.79 256.624C449.906 254.837 450.068 253.027 450.23 251.218Z" fill="black"/>
<path d="M420.435 210.339C420.435 210.578 420.516 210.817 420.562 211.056C420.562 210.817 420.481 210.578 420.435 210.339Z" fill="#7F3E3B"/>
<path opacity="0.2" d="M420.748 212.717C420.748 212.17 420.643 211.579 420.562 211.055C420.643 211.613 420.713 212.17 420.748 212.717Z" fill="black"/>
<path d="M427.951 207.641C427.719 207.8 427.499 207.971 427.256 208.13C425.23 209.464 422.871 210.228 420.435 210.338C420.435 210.577 420.516 210.816 420.562 211.055C420.644 211.613 420.713 212.193 420.748 212.717C420.748 212.717 420.748 212.785 420.748 212.819C423.752 212.099 426.342 210.236 427.951 207.641Z" fill="#7F3E3B"/>
<path d="M440.955 222.39C440.853 221.922 440.618 221.493 440.278 221.15C439.938 220.808 439.506 220.567 439.033 220.456L436.624 219.886C436.323 219.817 436.007 219.844 435.723 219.965C435.439 220.086 435.203 220.294 435.049 220.558L434.968 220.66C433.81 223.084 430.012 229.002 420.273 231.813L419.52 231.984L417.864 232.371L415.548 231.233C414.833 230.726 414.237 230.073 413.801 229.319C413.365 228.564 413.1 227.727 413.024 226.863C413.103 225.974 413.368 225.111 413.802 224.328C414.237 223.544 414.831 222.858 415.548 222.311C415.675 222.183 415.788 222.041 415.884 221.889C415.988 221.628 415.965 221.503 415.78 221.389C413.221 219.579 407.5 222.367 407.269 222.845C407.025 223.084 406.782 223.335 406.539 223.619C405.825 224.446 405.292 225.408 404.973 226.446C404.654 227.483 404.557 228.575 404.686 229.651C404.928 231.462 405.581 233.196 406.597 234.725C407.613 236.254 408.967 237.538 410.557 238.483C410.61 238.499 410.667 238.499 410.719 238.483C410.78 238.5 410.844 238.5 410.905 238.483C410.955 238.448 410.996 238.402 411.024 238.348C411.052 238.295 411.067 238.236 411.067 238.175C411.072 236.83 411.481 235.516 412.243 234.398C413.006 233.28 414.087 232.409 415.351 231.893L417.378 232.963C408.67 268.084 414.576 310.181 414.738 311.319H415.409C415.409 310.887 409.272 268.425 418.05 233.111L420.169 232.61C422.635 235.569 421.466 239.962 421.454 240.008C421.438 240.068 421.439 240.132 421.457 240.193C421.476 240.253 421.511 240.307 421.558 240.349C421.624 240.401 421.706 240.43 421.79 240.429C421.831 240.44 421.876 240.44 421.917 240.429C422.38 240.224 433.335 235.512 437.168 231.017C438.978 228.869 440.255 226.336 440.897 223.619C441.024 223.221 441.044 222.798 440.955 222.39Z" fill="white"/>
<path opacity="0.2" d="M427.951 207.641C427.719 207.8 427.499 207.971 427.256 208.13C425.23 209.464 422.871 210.228 420.435 210.338C420.435 210.577 420.516 210.816 420.562 211.055C420.644 211.613 420.713 212.193 420.748 212.717C420.748 212.717 420.748 212.785 420.748 212.819C423.752 212.099 426.342 210.236 427.951 207.641Z" fill="black"/>
<path d="M413.649 182.512C418.177 176.822 415.305 173.408 413.383 173.727C411.565 174.569 409.839 176.947 408.948 182.273C408.734 183.53 408.703 184.81 408.855 186.075C410.719 185.984 413.649 182.512 413.649 182.512Z" fill="#263238"/>
<path d="M432.629 195.065C445.17 173.385 420.4 170.859 415.351 175.718C413.649 177.271 412.213 179.085 411.102 181.09L410.048 183.127C409.611 184.09 409.225 185.073 408.89 186.075C407.616 189.673 406.951 193.452 406.921 197.262C406.913 199.002 407.26 200.725 407.941 202.331C408.622 203.937 409.623 205.392 410.886 206.611C412.149 207.83 413.648 208.788 415.294 209.428C416.94 210.068 418.7 210.378 420.47 210.338C422.906 210.228 425.264 209.464 427.29 208.13C427.534 207.971 427.754 207.8 427.985 207.641C429.639 206.483 431.051 205.022 432.142 203.339C434.713 199.254 434.042 197.194 432.629 195.065Z" fill="#7F3E3B"/>
<path d="M409.411 182.456C409.335 182.555 409.3 182.679 409.316 182.802C409.331 182.925 409.394 183.038 409.492 183.116C409.578 183.181 409.684 183.217 409.793 183.218C409.886 183.216 409.975 183.184 410.048 183.127C410.094 183.107 410.134 183.076 410.164 183.036C410.534 182.556 411.012 182.165 411.56 181.895C412.108 181.625 412.712 181.482 413.325 181.477C413.452 181.483 413.577 181.44 413.672 181.357C413.767 181.274 413.826 181.158 413.834 181.033C413.839 180.972 413.832 180.91 413.812 180.852C413.792 180.793 413.761 180.739 413.72 180.693C413.68 180.646 413.63 180.608 413.574 180.581C413.518 180.553 413.457 180.537 413.394 180.532C412.587 180.527 411.792 180.719 411.078 181.09C410.433 181.427 409.865 181.892 409.411 182.456Z" fill="#263238"/>
<path d="M421.94 196.09C421.895 196.047 421.835 196.023 421.773 196.023C421.71 196.023 421.65 196.047 421.605 196.09C420.812 196.742 419.879 197.208 418.876 197.453C417.872 197.697 416.825 197.714 415.815 197.501C415.753 197.49 415.69 197.504 415.639 197.538C415.587 197.571 415.551 197.623 415.537 197.683C415.526 197.744 415.539 197.808 415.573 197.86C415.607 197.913 415.661 197.951 415.722 197.967C416.275 198.075 416.838 198.125 417.401 198.115C419.059 198.1 420.657 197.503 421.906 196.431C421.931 196.411 421.952 196.386 421.968 196.358C421.984 196.33 421.993 196.299 421.997 196.267C422 196.236 421.996 196.204 421.987 196.173C421.977 196.142 421.961 196.114 421.94 196.09Z" fill="#263238"/>
<path d="M415.722 187.964C414.189 190.169 412.362 192.163 410.291 193.893C411.449 195.464 413.95 195.35 413.95 195.35L415.722 187.964Z" fill="#630F0F"/>
<path d="M411.623 188.237C412.144 188.34 412.781 187.794 412.908 187.008C413.035 186.223 412.827 185.517 412.306 185.415C411.785 185.313 411.206 185.859 411.021 186.644C410.835 187.429 411.09 188.135 411.623 188.237Z" fill="#263238"/>
<path d="M420.678 190.058C421.199 190.16 421.767 189.614 421.964 188.829C422.161 188.044 421.871 187.338 421.35 187.235C420.829 187.133 420.25 187.679 420.065 188.465C419.879 189.25 420.146 189.91 420.678 190.058Z" fill="#263238"/>
<path d="M440.561 177.653C445.459 173.533 434.296 165.134 434.296 165.134C434.296 165.134 435.547 168.139 432.953 168.969C430.359 169.8 412.109 163.108 412.375 170.699C412.425 171.769 412.774 172.805 413.383 173.692C413.926 174.456 414.59 175.129 415.351 175.684C419.59 178.848 427.302 179.815 431.471 179.815C430.809 181.4 430.346 183.059 430.093 184.754C429.773 186.541 429.834 188.374 430.27 190.136C430.707 191.899 431.51 193.554 432.629 194.997C434.945 198.957 438.037 198.844 440.677 195.828C444.915 191.89 449.003 183.912 440.561 177.653Z" fill="#263238"/>
<path d="M438.43 193.552C436.508 192.778 434.343 193.689 432.64 195.066C431.706 195.796 430.897 196.668 430.243 197.649C428.611 200.164 429.19 203.089 432.119 203.339H432.629H433.324C435.63 203.108 437.785 202.104 439.426 200.494C440.034 199.918 440.473 199.19 440.695 198.389C440.917 197.588 440.915 196.742 440.688 195.942C440.523 195.4 440.233 194.903 439.842 194.489C439.45 194.075 438.968 193.754 438.43 193.552Z" fill="#7F3E3B"/>
<path d="M395.689 311.615C395.689 311.615 395.376 314.278 394.89 318.751C412.624 324.644 431.809 324.82 449.651 319.252C449.767 313.846 449.848 310.614 449.848 310.614L415.456 311.251H414.784L395.689 311.615Z" fill="#263238"/>
<path d="M485.202 265.785C485.104 264.816 484.878 263.863 484.53 262.951C484.364 262.499 484.167 262.057 483.94 261.631L483.604 261.017L483.419 260.698C481.763 257.898 479.945 255.247 478.092 252.731L467.577 262.69C468.967 264.397 470.322 266.104 471.572 267.856C471.34 268.438 471.041 268.992 470.681 269.507C468.997 271.805 467.055 273.908 464.891 275.777C460.356 279.792 455.605 283.564 450.659 287.078L449.049 287.283L442.588 288.148L436.23 292.37L440.411 300.724L445.668 298.084C446.924 297.914 448.16 297.628 449.362 297.23C451.22 296.754 452.838 295.629 453.913 294.066C456.988 292.869 459.999 291.516 462.934 290.015C466.088 288.415 469.143 286.633 472.082 284.677C473.572 283.676 475.046 282.579 476.505 281.388C478.055 280.138 479.489 278.756 480.79 277.257C482.456 275.406 483.739 273.252 484.565 270.918C485.148 269.271 485.365 267.521 485.202 265.785ZM471.665 267.583C471.665 267.526 471.665 267.458 471.665 267.413C471.665 267.139 471.769 267.037 471.769 267.196C471.764 267.329 471.736 267.459 471.688 267.583H471.665Z" fill="#7F3E3B"/>
<path d="M370.657 299.431C373.47 282.401 361.703 266.354 344.374 263.589C327.045 260.825 310.717 272.39 307.904 289.42C305.091 306.451 316.859 322.498 334.188 325.262C351.516 328.027 367.844 316.462 370.657 299.431Z" fill="#263238"/>
<path d="M356.734 291.483H342.235V277.234C342.235 276.458 341.922 275.715 341.364 275.166C340.806 274.617 340.049 274.309 339.259 274.309C338.47 274.309 337.713 274.617 337.155 275.166C336.597 275.715 336.283 276.458 336.283 277.234V291.483H321.785C320.996 291.483 320.239 291.791 319.681 292.339C319.123 292.888 318.809 293.632 318.809 294.408C318.809 295.183 319.123 295.927 319.681 296.476C320.239 297.024 320.996 297.333 321.785 297.333H336.283V311.581C336.283 311.965 336.36 312.346 336.51 312.7C336.659 313.055 336.879 313.378 337.155 313.649C337.431 313.921 337.759 314.136 338.12 314.283C338.481 314.43 338.868 314.506 339.259 314.506C339.65 314.506 340.037 314.43 340.398 314.283C340.759 314.136 341.087 313.921 341.364 313.649C341.64 313.378 341.859 313.055 342.009 312.7C342.158 312.346 342.235 311.965 342.235 311.581V297.333H356.734C357.523 297.333 358.28 297.024 358.838 296.476C359.396 295.927 359.71 295.183 359.71 294.408C359.71 293.632 359.396 292.888 358.838 292.339C358.28 291.791 357.523 291.483 356.734 291.483Z" fill="white"/>
<path d="M422.404 184.095C422.985 184.21 423.53 184.464 423.99 184.832C424.45 185.201 424.811 185.674 425.044 186.211C425.083 186.293 425.146 186.362 425.224 186.411C425.301 186.459 425.392 186.485 425.484 186.484C425.549 186.5 425.616 186.5 425.681 186.484C425.738 186.459 425.79 186.422 425.833 186.377C425.875 186.331 425.909 186.278 425.93 186.219C425.952 186.161 425.961 186.099 425.958 186.037C425.955 185.975 425.94 185.914 425.912 185.859C425.611 185.179 425.145 184.583 424.556 184.121C423.967 183.659 423.272 183.345 422.531 183.207C422.405 183.19 422.278 183.223 422.177 183.299C422.076 183.375 422.009 183.487 421.993 183.611C421.976 183.735 422.009 183.86 422.087 183.959C422.164 184.058 422.278 184.123 422.404 184.14V184.095Z" fill="#263238"/>
</svg>
