<svg width="442" height="286" viewBox="0 0 442 286" fill="none" xmlns="http://www.w3.org/2000/svg">
<path d="M383.76 207.514C383.76 206.498 383.711 132.469 383.627 12.737L383.76 12.8648L0.154059 12.9031L0.33613 12.737C0.33613 81.6043 0.33613 147.488 0.33613 207.514L0.168065 207.36L383.802 207.514L0.168065 207.667H0V207.514C0 147.463 0 81.6043 0 12.737V12.5709H0.210082L383.816 12.6093H383.956V12.737C383.802 132.494 383.802 206.498 383.76 207.514Z" fill="#E0E0E0"/>
<path d="M383.767 12.7368H0.125977V27.6538H383.767V12.7368Z" fill="#E0E0E0"/>
<path d="M12.6609 19.7515C12.6609 20.2281 12.5059 20.694 12.2155 21.0902C11.9251 21.4864 11.5123 21.7951 11.0295 21.9772C10.5467 22.1593 10.0155 22.2066 9.50324 22.1131C8.99094 22.0197 8.52055 21.7897 8.15162 21.4522C7.78269 21.1147 7.53181 20.685 7.43074 20.2174C7.32966 19.7498 7.38294 19.2653 7.58383 18.8254C7.78472 18.3854 8.12419 18.0097 8.55926 17.7458C8.99433 17.4819 9.50543 17.3418 10.0279 17.343C10.3742 17.343 10.7172 17.4054 11.0371 17.5265C11.357 17.6476 11.6476 17.8251 11.8922 18.0488C12.1367 18.2726 12.3305 18.5381 12.4625 18.8303C12.5944 19.1224 12.6618 19.4355 12.6609 19.7515Z" fill="white"/>
<path d="M20.8113 19.7515C20.8113 20.2281 20.6562 20.694 20.3658 21.0902C20.0754 21.4864 19.6627 21.7951 19.1799 21.9772C18.6971 22.1593 18.1659 22.2066 17.6536 22.1131C17.1413 22.0197 16.6709 21.7897 16.302 21.4522C15.9331 21.1147 15.6822 20.685 15.5811 20.2174C15.4801 19.7498 15.5333 19.2653 15.7342 18.8254C15.9351 18.3854 16.2746 18.0097 16.7096 17.7458C17.1447 17.4819 17.6558 17.3418 18.1783 17.343C18.5246 17.343 18.8676 17.4054 19.1875 17.5265C19.5074 17.6476 19.798 17.8251 20.0426 18.0488C20.2871 18.2726 20.4809 18.5381 20.6128 18.8303C20.7448 19.1224 20.8122 19.4355 20.8113 19.7515Z" fill="white"/>
<path d="M28.9773 19.7515C28.9773 20.2278 28.8224 20.6935 28.5324 21.0895C28.2423 21.4856 27.83 21.7943 27.3476 21.9766C26.8652 22.1589 26.3343 22.2066 25.8222 22.1136C25.3101 22.0207 24.8397 21.7913 24.4705 21.4545C24.1013 21.1177 23.8499 20.6885 23.748 20.2213C23.6461 19.7541 23.6984 19.2699 23.8982 18.8298C24.098 18.3897 24.4364 18.0136 24.8706 17.7489C25.3047 17.4843 25.8151 17.343 26.3373 17.343C26.6842 17.3422 27.0279 17.4039 27.3486 17.5246C27.6694 17.6454 27.9608 17.8227 28.2061 18.0466C28.4514 18.2704 28.6459 18.5362 28.7782 18.8288C28.9105 19.1214 28.9782 19.4349 28.9773 19.7515Z" fill="white"/>
<path d="M416.89 42.4943H28.8862V278.47H416.89V42.4943Z" fill="#FAFAFA"/>
<path d="M416.89 42.4943H28.8862V57.5773H416.89V42.4943Z" fill="#263238"/>
<path d="M416.89 57.5783C416.89 57.2716 416.89 52.8189 416.841 42.4952L416.89 42.5399L28.9422 42.6613L29.1243 42.4952V57.5783L28.9422 57.4122L416.946 57.5783L28.8862 57.7508H28.7041V42.3291H28.9072L416.89 42.4505H416.939V42.4952C416.904 52.8189 416.89 57.2716 416.89 57.5783Z" fill="#263238"/>
<path d="M372.079 278.451C357.108 264.096 335.126 257.069 313.383 257.209C297.501 257.305 280.933 261.63 266.178 256.289C252.516 251.345 243.847 239.341 233.224 230.097C216.68 215.821 194.819 207.799 172.048 207.648C156.769 207.603 139.948 210.804 127.343 202.92C118.842 197.599 114.493 188.432 108.52 180.759C91.0136 158.265 57.3098 148.887 29.103 158.828V278.291L372.079 278.451Z" fill="#EBEBEB"/>
<path d="M416.89 278.47C416.89 277.384 416.834 186.356 416.743 42.4946L416.89 42.6287H28.9421L29.1242 42.4626C29.1242 126.496 29.1242 206.428 29.1242 278.438L28.9561 278.285L416.96 278.438L28.9561 278.592H28.7881V278.438C28.7881 206.428 28.7881 126.496 28.7881 42.4626V42.2965H29.0052H416.953H417.1V42.4307C416.946 186.356 416.89 277.384 416.89 278.47Z" fill="#263238"/>
<path d="M77.4917 94.1128C77.4917 94.3492 75.5869 94.5473 73.227 94.5473C70.8671 94.5473 68.9624 94.3492 68.9624 94.1128C68.9624 93.8765 70.8741 93.6848 73.227 93.6848C75.5799 93.6848 77.4917 93.8765 77.4917 94.1128Z" fill="#263238"/>
<path d="M82.0229 83.5334C82.282 83.5334 82.4921 85.2966 82.4921 87.4815C82.4921 89.6663 82.282 91.4295 82.0229 91.4295C81.7638 91.4295 81.5537 89.6599 81.5537 87.4815C81.5537 85.303 81.7638 83.5334 82.0229 83.5334Z" fill="#263238"/>
<path d="M86.8462 93.8636C86.8462 93.6208 88.7509 93.4292 91.1038 93.4292C93.4567 93.4292 95.3684 93.6208 95.3684 93.8636C95.3684 94.1064 93.4637 94.2916 91.1038 94.2916C88.7439 94.2916 86.8462 94.1 86.8462 93.8636Z" fill="#263238"/>
<path d="M82.3168 104.443C82.0577 104.443 81.8477 102.673 81.8477 100.495C81.8477 98.3165 82.0577 96.5469 82.3168 96.5469C82.5759 96.5469 82.786 98.3165 82.786 100.495C82.786 102.673 82.5759 104.443 82.3168 104.443Z" fill="#263238"/>
<path d="M89.2068 99.9133C89.0107 100.06 88.1704 99.447 87.3301 98.5271C86.4898 97.6071 85.9786 96.7511 86.1746 96.6105C86.3707 96.47 87.2181 97.0769 88.0514 97.9904C88.8847 98.904 89.4099 99.7536 89.2068 99.9133Z" fill="#263238"/>
<path d="M88.8073 87.9032C88.9963 88.0693 88.4361 88.855 87.5678 89.6536C86.6995 90.4522 85.8451 90.9696 85.6631 90.8035C85.481 90.6374 86.0342 89.8516 86.9025 89.0467C87.7709 88.2418 88.6252 87.7371 88.8073 87.9032Z" fill="#263238"/>
<path d="M79.0325 90.9697C78.8714 91.1486 78.0661 90.7908 77.2328 90.1584C76.3995 89.5259 75.8743 88.8807 76.0353 88.689C76.1964 88.4974 77.0087 88.8679 77.842 89.5004C78.6753 90.1328 79.1865 90.778 79.0325 90.9697Z" fill="#263238"/>
<path d="M78.6538 96.2464C78.8429 96.4125 78.3597 97.1791 77.5684 97.9713C76.7771 98.7634 75.9858 99.2489 75.7967 99.1084C75.6077 98.9679 76.0838 98.1821 76.8751 97.3899C77.6664 96.5977 78.4858 96.0803 78.6538 96.2464Z" fill="#263238"/>
<path d="M318.103 73.638C318.103 73.7722 317.017 73.8808 315.68 73.8808C314.342 73.8808 313.257 73.7722 313.257 73.638C313.257 73.5039 314.342 73.3953 315.68 73.3953C317.017 73.3953 318.103 73.5039 318.103 73.638Z" fill="#263238"/>
<path d="M320.673 67.6328C320.82 67.6328 320.939 68.6358 320.939 69.8688C320.939 71.1017 320.82 72.1111 320.673 72.1111C320.526 72.1111 320.407 71.1081 320.407 69.8688C320.407 68.6294 320.526 67.6328 320.673 67.6328Z" fill="#263238"/>
<path d="M323.411 73.4911C323.411 73.3569 324.497 73.2483 325.834 73.2483C327.172 73.2483 328.25 73.3569 328.25 73.4911C328.25 73.6252 327.172 73.7402 325.834 73.7402C324.497 73.7402 323.411 73.6316 323.411 73.4911Z" fill="#263238"/>
<path d="M320.841 79.5024C320.694 79.5024 320.575 78.4994 320.575 77.26C320.575 76.0207 320.694 75.0177 320.841 75.0177C320.988 75.0177 321.107 76.0207 321.107 77.26C321.107 78.4994 320.988 79.5024 320.841 79.5024Z" fill="#263238"/>
<path d="M324.756 76.9153C324.637 76.9983 324.16 76.647 323.684 76.1295C323.208 75.612 322.921 75.1201 323.033 75.0307C323.145 74.9412 323.621 75.299 324.097 75.8165C324.574 76.3339 324.868 76.8386 324.756 76.9153Z" fill="#263238"/>
<path d="M324.524 70.1116C324.629 70.2074 324.314 70.6546 323.824 71.1081C323.334 71.5617 322.844 71.8492 322.738 71.747C322.633 71.6448 322.949 71.2104 323.439 70.7568C323.929 70.3032 324.419 70.0157 324.524 70.1116Z" fill="#263238"/>
<path d="M318.979 71.8493C318.881 71.9515 318.425 71.7471 317.956 71.3893C317.487 71.0316 317.179 70.661 317.256 70.5588C317.333 70.4566 317.809 70.6546 318.278 71.0124C318.747 71.3701 319.07 71.7471 318.979 71.8493Z" fill="#263238"/>
<path d="M318.761 74.8518C318.866 74.9412 318.593 75.3756 318.144 75.8292C317.696 76.2828 317.248 76.5639 317.136 76.468C317.024 76.3722 317.304 75.9378 317.752 75.4906C318.2 75.0434 318.677 74.7623 318.761 74.8518Z" fill="#263238"/>
<path d="M208.126 123.889C206.904 124.136 205.637 124.136 204.415 123.889C205.636 123.634 206.905 123.634 208.126 123.889Z" fill="#263238"/>
<path d="M210.136 119.283C210.407 120.413 210.407 121.584 210.136 122.714C209.856 121.585 209.856 120.412 210.136 119.283Z" fill="#263238"/>
<path d="M212.195 123.774C213.417 123.527 214.684 123.527 215.906 123.774C214.685 124.03 213.416 124.03 212.195 123.774Z" fill="#263238"/>
<path d="M210.227 128.38C209.956 127.248 209.956 126.076 210.227 124.943C210.497 126.076 210.497 127.248 210.227 128.38Z" fill="#263238"/>
<path d="M213.224 126.406C213.14 126.47 212.776 126.202 212.412 125.806C212.048 125.41 211.817 125.033 211.908 124.963C211.999 124.892 212.363 125.167 212.727 125.563C213.091 125.959 213.315 126.342 213.224 126.406Z" fill="#263238"/>
<path d="M213.056 121.181C213.133 121.257 212.895 121.596 212.517 121.947C212.139 122.299 211.76 122.516 211.683 122.446C211.606 122.375 211.844 122.03 212.223 121.685C212.601 121.34 212.972 121.11 213.056 121.181Z" fill="#263238"/>
<path d="M208.799 122.516C208.729 122.593 208.379 122.439 208.014 122.165C207.65 121.89 207.419 121.602 207.496 121.526C207.573 121.449 207.916 121.602 208.281 121.877C208.645 122.152 208.869 122.433 208.799 122.516Z" fill="#263238"/>
<path d="M208.63 124.828C208.714 124.898 208.504 125.231 208.161 125.576C207.818 125.921 207.461 126.144 207.391 126.074C207.321 126.004 207.517 125.671 207.86 125.327C208.203 124.982 208.546 124.745 208.63 124.828Z" fill="#263238"/>
<path d="M306.716 131.051C306.716 131.185 305.631 131.294 304.294 131.294C302.956 131.294 301.871 131.217 301.871 131.051C301.871 130.885 302.949 130.802 304.287 130.802C305.624 130.802 306.716 130.917 306.716 131.051Z" fill="#E0E0E0"/>
<path d="M309.286 125.039C309.433 125.039 309.552 126.042 309.552 127.282C309.552 128.521 309.433 129.524 309.286 129.524C309.139 129.524 309.02 128.521 309.02 127.282C309.02 126.042 309.139 125.039 309.286 125.039Z" fill="#E0E0E0"/>
<path d="M312.024 130.904C312.024 130.769 313.11 130.661 314.447 130.661C315.785 130.661 316.863 130.769 316.863 130.904C316.863 131.038 315.785 131.146 314.447 131.146C313.11 131.146 312.024 131.038 312.024 130.904Z" fill="#E0E0E0"/>
<path d="M309.455 136.915C309.308 136.915 309.188 135.906 309.188 134.673C309.188 133.44 309.308 132.431 309.455 132.431C309.602 132.431 309.721 133.434 309.721 134.673C309.721 135.912 309.574 136.915 309.455 136.915Z" fill="#E0E0E0"/>
<path d="M313.369 134.334C313.25 134.424 312.774 134.072 312.298 133.555C311.821 133.037 311.534 132.539 311.646 132.456C311.758 132.373 312.235 132.718 312.711 133.235C313.187 133.753 313.481 134.251 313.369 134.334Z" fill="#E0E0E0"/>
<path d="M313.138 127.524C313.243 127.62 312.928 128.061 312.438 128.514C311.948 128.968 311.458 129.262 311.353 129.153C311.248 129.045 311.563 128.617 312.053 128.157C312.543 127.697 313.033 127.428 313.138 127.524Z" fill="#E0E0E0"/>
<path d="M307.592 129.256C307.494 129.364 307.039 129.16 306.569 128.802C306.1 128.444 305.792 128.067 305.869 127.965C305.946 127.863 306.422 128.067 306.892 128.425C307.361 128.783 307.683 129.153 307.592 129.256Z" fill="#E0E0E0"/>
<path d="M307.375 132.258C307.48 132.354 307.207 132.788 306.759 133.235C306.311 133.683 305.862 133.977 305.75 133.874C305.638 133.772 305.918 133.344 306.367 132.897C306.815 132.45 307.263 132.169 307.375 132.258Z" fill="#E0E0E0"/>
<path d="M179.099 74.0275L179.414 74.7174C179.688 75.3121 180.087 75.8518 180.589 76.3057C181.092 76.7595 181.687 77.1185 182.341 77.3622L183.168 77.6689L182.376 77.9564C181.711 78.2033 181.108 78.5698 180.601 79.034C180.095 79.4983 179.696 80.0508 179.428 80.6587L179.204 81.157L178.868 80.5181C178.266 79.3674 177.192 78.4792 175.878 78.0458L175.178 77.803L176.116 77.3942C177.299 76.8629 178.226 75.9534 178.721 74.8388L179.099 74.0275Z" fill="#E0E0E0"/>
<path d="M56.112 125.723L56.3221 126.183C56.5029 126.579 56.7681 126.938 57.1023 127.239C57.4365 127.541 57.833 127.779 58.2688 127.94L58.815 128.144L58.2898 128.336C57.8483 128.501 57.4474 128.744 57.1107 129.053C56.774 129.361 56.5082 129.727 56.3291 130.131L56.182 130.463L55.9579 130.048C55.5583 129.284 54.8472 128.692 53.9762 128.4L53.5 128.246L54.1232 127.972C54.901 127.621 55.5148 127.027 55.8529 126.298L56.112 125.723Z" fill="#E0E0E0"/>
<path d="M366.015 81.1571L366.218 81.6171C366.587 82.4158 367.287 83.0494 368.165 83.3803L368.711 83.5783L368.193 83.7764C367.75 83.9389 367.348 84.181 367.01 84.4883C366.672 84.7956 366.405 85.1618 366.225 85.5651L366.078 85.9037L365.861 85.4821C365.458 84.7194 364.744 84.1304 363.872 83.8402L363.396 83.6805L364.019 83.4058C364.804 83.0632 365.42 82.4666 365.749 81.7321L366.015 81.1571Z" fill="#E0E0E0"/>
<path d="M366.946 100.552L367.262 101.242C367.533 101.839 367.932 102.38 368.435 102.835C368.937 103.29 369.533 103.65 370.189 103.894L371.015 104.194L370.224 104.488C369.559 104.734 368.954 105.1 368.447 105.563C367.939 106.026 367.539 106.577 367.269 107.184L367.051 107.688L366.715 107.049C366.114 105.899 365.039 105.011 363.725 104.577L363.025 104.341L363.963 103.925C365.139 103.404 366.066 102.509 366.568 101.408L366.946 100.552Z" fill="#263238"/>
<path d="M237.558 69.8431L237.705 70.169C237.836 70.4503 238.028 70.7048 238.268 70.9176C238.509 71.1305 238.793 71.2973 239.106 71.4083L239.491 71.5552L239.12 71.6894C238.803 71.8044 238.516 71.977 238.275 72.1967C238.034 72.4164 237.845 72.6785 237.719 72.9671L237.614 73.2035L237.453 72.9096C237.173 72.3682 236.67 71.9501 236.052 71.7469L235.716 71.6383L236.157 71.4402C236.711 71.1961 237.146 70.7757 237.383 70.2584L237.558 69.8431Z" fill="#263238"/>
<path d="M139.941 122.803L140.131 123.218C140.293 123.578 140.533 123.905 140.836 124.179C141.139 124.453 141.499 124.67 141.895 124.815L142.392 125.001L141.916 125.173C141.515 125.321 141.15 125.542 140.844 125.822C140.538 126.102 140.298 126.435 140.138 126.802L140.004 127.109L139.801 126.726C139.435 126.034 138.786 125.5 137.995 125.237L137.561 125.09L138.128 124.841C138.837 124.525 139.397 123.985 139.703 123.321L139.941 122.803Z" fill="#263238"/>
<path d="M121.314 134.456C121.195 136.506 118.268 139.241 119.171 141.119C120.838 144.581 119.871 148.727 117.715 151.979C115.558 155.231 112.33 157.729 109.157 160.144C109.317 155.095 108.836 150.046 107.722 145.099C107.372 143.553 106.797 141.828 105.25 141.125C103.24 140.218 100.691 141.528 98.6323 140.723C96.4405 139.854 95.9993 137.12 94.1506 135.74C92.4769 134.494 90.019 134.628 87.9672 135.254C85.9155 135.88 84.0317 136.934 81.9239 137.362C79.8161 137.79 77.2742 137.407 76.1047 135.746C75.4045 134.724 75.9017 135.35 75.2154 134.309C75.2154 134.309 71.1048 134.437 69.6903 130.073C69.6903 130.073 67.7575 125.224 72.0362 123.084C72.0362 123.084 73.0095 114.319 82.6662 118.261C85.4673 119.398 88.7305 115.744 91.4406 116.983C93.6954 118.025 94.3607 120.887 96.6155 121.934C99.2065 123.135 102.218 121.347 105.117 121.238C106.974 121.238 108.755 121.911 110.068 123.109C111.382 124.307 112.119 125.932 112.119 127.626C112.119 127.626 112.575 125.876 115.719 126.643C118.863 127.409 121.538 130.457 121.314 134.456Z" fill="#263238"/>
<path d="M117.218 148.561C117.279 147.57 117.077 146.579 116.63 145.674C116.224 144.926 114.704 143.227 113.038 143.119L113.283 134.092C113.301 133.196 112.953 132.326 112.305 131.653C111.657 130.979 110.757 130.55 109.782 130.45L90.3912 128.585C88.8063 128.432 87.2038 128.573 85.6804 129C84.1569 129.427 82.7438 130.131 81.5263 131.069C80.3088 132.008 79.312 133.161 78.5958 134.46C77.8797 135.759 77.4591 137.176 77.3593 138.627C76.8901 145.431 76.61 153.755 77.4923 158.828C79.271 169.049 87.8422 170.327 87.8422 170.327L87.6322 177.456C87.303 185.052 93.5354 189.626 99.9638 189.626C106.392 189.626 112.331 184.56 112.141 177.041L112.772 154.043C113.858 153.951 114.868 153.496 115.608 152.765C116.674 151.582 117.245 150.093 117.218 148.561Z" fill="#FFBE9D"/>
<path d="M81.6582 144.166C81.6562 144.51 81.8016 144.84 82.0633 145.087C82.325 145.335 82.6823 145.478 83.0588 145.488C83.4258 145.508 83.7864 145.395 84.0629 145.174C84.3393 144.952 84.5094 144.641 84.5363 144.307C84.5429 144.135 84.5115 143.964 84.4441 143.804C84.3767 143.644 84.2746 143.498 84.1439 143.374C84.0131 143.251 83.8565 143.153 83.6833 143.086C83.5101 143.019 83.3239 142.984 83.1358 142.984C82.7688 142.965 82.4081 143.078 82.1317 143.299C81.8552 143.52 81.6852 143.832 81.6582 144.166Z" fill="#263238"/>
<path d="M79.3062 142.959C79.4813 143.131 80.5667 142.397 82.1073 142.397C83.6478 142.397 84.7823 143.106 84.9503 142.933C85.0274 142.857 84.8453 142.55 84.3551 142.224C83.6874 141.801 82.8921 141.578 82.0792 141.585C81.2787 141.574 80.4954 141.798 79.8454 142.224C79.3762 142.575 79.1871 142.882 79.3062 142.959Z" fill="#263238"/>
<path d="M96.5601 144.428C96.5563 144.772 96.7011 145.104 96.9632 145.351C97.2253 145.599 97.5836 145.742 97.9607 145.75C98.3277 145.77 98.6884 145.657 98.9648 145.436C99.2412 145.214 99.4113 144.903 99.4382 144.569C99.442 144.224 99.2972 143.893 99.0351 143.645C98.7731 143.398 98.4148 143.255 98.0377 143.246C97.6707 143.227 97.31 143.34 97.0336 143.561C96.7571 143.782 96.5871 144.094 96.5601 144.428Z" fill="#263238"/>
<path d="M94.4794 143.221C94.6545 143.393 95.7399 142.658 97.2805 142.665C98.8211 142.671 99.9555 143.368 100.124 143.195C100.201 143.118 100.026 142.812 99.5283 142.486C98.8606 142.063 98.0653 141.84 97.2525 141.847C96.4525 141.839 95.6702 142.062 95.0186 142.486C94.5494 142.837 94.3884 143.144 94.4794 143.221Z" fill="#263238"/>
<path d="M88.8712 153.666C88.0569 153.436 87.2151 153.297 86.3642 153.25C85.9721 153.219 85.6009 153.142 85.5309 152.899C85.5012 152.527 85.5938 152.156 85.797 151.832L86.9595 149.104C88.5841 145.201 89.7605 141.994 89.5785 141.937C89.3964 141.879 87.9538 144.99 86.3362 148.894C85.9441 149.852 85.5729 150.772 85.2228 151.647C84.9736 152.081 84.8992 152.58 85.0127 153.059C85.0708 153.185 85.1596 153.298 85.2724 153.389C85.3852 153.48 85.5191 153.546 85.664 153.583C85.8923 153.639 86.1276 153.669 86.3642 153.672C87.1967 153.769 88.0394 153.767 88.8712 153.666Z" fill="#263238"/>
<path d="M87.8064 170.333C93.0753 170.405 98.2628 169.142 102.792 166.685C102.792 166.685 98.9126 174.352 87.7153 173.412L87.8064 170.333Z" fill="#EB996E"/>
<path d="M93.7805 140.755C93.9345 141.138 95.4751 140.959 97.2818 141.157C99.0885 141.355 100.559 141.796 100.783 141.464C100.888 141.298 100.636 140.94 100.048 140.569C99.2616 140.107 98.3666 139.82 97.4358 139.732C96.5105 139.631 95.5721 139.732 94.6978 140.026C94.0536 140.275 93.7174 140.576 93.7805 140.755Z" fill="#263238"/>
<path d="M79.0531 139.681C79.3262 140.001 80.3836 139.681 81.6651 139.681C82.9466 139.681 84.025 139.892 84.2771 139.56C84.3891 139.394 84.214 139.074 83.7449 138.774C83.1096 138.414 82.3716 138.233 81.6239 138.254C80.8762 138.276 80.1522 138.499 79.5433 138.896C79.0811 139.196 78.934 139.522 79.0531 139.681Z" fill="#263238"/>
<path d="M89.2144 161.638C89.2144 161.607 89.3194 161.434 89.6345 161.255C90.0583 161.026 90.5425 160.907 91.035 160.91C91.5261 160.905 92.0097 161.019 92.4356 161.242C92.7507 161.421 92.8907 161.587 92.8627 161.619C92.2819 161.421 91.674 161.297 91.056 161.249C90.4239 161.292 89.8028 161.424 89.2144 161.638Z" fill="#EB996E"/>
<path d="M112.008 151.277C112.374 151.14 112.729 150.983 113.072 150.804C113.456 150.574 113.774 150.264 113.999 149.9C114.225 149.535 114.351 149.127 114.368 148.708C114.375 148.287 114.274 147.871 114.072 147.492C113.87 147.114 113.573 146.784 113.205 146.53C112.888 146.33 112.523 146.201 112.141 146.153C112.106 146.115 112.659 145.942 113.352 146.332C113.789 146.586 114.147 146.938 114.392 147.354C114.637 147.77 114.761 148.236 114.753 148.708C114.744 149.232 114.564 149.742 114.235 150.171C113.974 150.517 113.629 150.804 113.226 151.008C112.871 151.232 112.436 151.328 112.008 151.277Z" fill="#EB996E"/>
<path d="M75.2154 126.151C73.4087 130.559 77.7014 133.753 81.0486 134.456C85.7264 135.452 90.6983 132.756 93.8985 133.9C96.2864 134.756 98.5413 136.455 101.076 136.104C102.309 135.938 103.527 135.292 104.725 135.586C106.258 135.97 106.881 137.669 106.825 139.119C106.783 140.908 106.125 142.684 106.37 144.46C106.615 146.236 108.352 148.069 110.25 147.597C111.141 147.325 111.922 146.813 112.49 146.129C113.057 145.445 113.384 144.62 113.429 143.764C113.653 141.304 113.156 138.378 113.289 135.912C113.408 133.74 113.415 131.351 111.888 129.671C110.362 127.991 107.785 127.537 105.411 127.243C95.399 125.985 85.2888 125.498 75.1874 125.787" fill="#263238"/>
<path d="M69.3261 127.09C69.2657 126.943 69.2326 126.787 69.2281 126.63C69.2023 126.174 69.3034 125.719 69.5222 125.308C69.8684 124.647 70.4692 124.126 71.2098 123.845C71.6782 123.682 72.1845 123.631 72.6804 123.698C73.2056 123.742 73.7308 123.87 74.284 123.896C74.8578 123.925 75.4294 123.81 75.9366 123.564C76.4904 123.282 77.0052 122.941 77.4702 122.548C77.9744 122.152 78.4856 121.717 79.0738 121.328C79.6863 120.92 80.3888 120.638 81.1326 120.504C82.7394 120.283 84.3813 120.538 85.8174 121.232C87.3091 121.983 88.7003 122.89 89.9629 123.934C91.1896 124.976 92.5857 125.838 94.1015 126.489C94.8202 126.764 95.6016 126.874 96.3774 126.809C97.1126 126.707 97.8231 126.491 98.4782 126.17C99.707 125.497 101.013 124.949 102.372 124.535C103.594 124.216 104.883 124.179 106.125 124.426C107.149 124.638 108.091 125.099 108.849 125.761C109.415 126.262 109.857 126.867 110.145 127.537C110.324 127.959 110.421 128.407 110.432 128.86C110.441 128.977 110.441 129.094 110.432 129.211C110.432 129.288 110.432 129.326 110.432 129.326C110.423 128.731 110.295 128.142 110.054 127.588C109.755 126.947 109.311 126.37 108.751 125.895C108.009 125.273 107.097 124.845 106.111 124.656C104.912 124.434 103.672 124.482 102.498 124.797C101.16 125.219 99.8758 125.772 98.6673 126.445C97.9682 126.778 97.2092 126.995 96.4264 127.084C95.5948 127.16 94.7554 127.048 93.9825 126.758C92.4326 126.097 91.0036 125.222 89.7459 124.164C88.5037 123.137 87.1362 122.243 85.6703 121.5C84.3049 120.834 82.7428 120.581 81.2096 120.778C79.7461 121.002 78.6887 121.941 77.7083 122.733C77.2207 123.133 76.6823 123.478 76.1047 123.762C75.5499 124.023 74.928 124.142 74.305 124.107C73.7238 124.068 73.1986 123.934 72.6944 123.877C72.2243 123.808 71.743 123.848 71.2938 123.992C70.5907 124.248 70.0118 124.727 69.6622 125.34C69.435 125.734 69.3149 126.172 69.3121 126.617C69.2981 126.93 69.3821 127.084 69.3261 127.09Z" fill="#464646"/>
<path d="M74.7401 134.194C74.5797 134.235 74.4102 134.235 74.2499 134.194C74.0138 134.151 73.7904 134.063 73.5948 133.935C73.3991 133.807 73.2357 133.643 73.1154 133.453C72.7776 132.832 72.6837 132.124 72.8493 131.447C73.0144 130.552 73.4078 129.705 73.9978 128.975C74.7122 128.078 75.705 127.397 76.8479 127.02C78.1593 126.575 79.5956 126.542 80.9304 126.924C82.3495 127.407 83.6756 128.093 84.8589 128.955C86.0898 129.87 87.4853 130.584 88.9835 131.064C90.5138 131.418 92.1263 131.338 93.6052 130.834C95.0036 130.377 96.3479 129.792 97.6178 129.09C98.7831 128.451 99.9872 127.873 101.224 127.358C102.312 126.906 103.478 126.632 104.669 126.547C105.536 126.482 106.409 126.578 107.234 126.831C108.059 127.083 108.818 127.487 109.466 128.016C109.802 128.317 110.082 128.667 110.293 129.051C110.368 129.185 110.424 129.326 110.461 129.473C110.19 128.964 109.823 128.503 109.375 128.112C108.729 127.619 107.983 127.247 107.179 127.018C106.375 126.788 105.529 126.707 104.69 126.777C103.53 126.876 102.397 127.159 101.343 127.614C100.122 128.132 98.934 128.715 97.7858 129.358C96.4991 130.076 95.1359 130.673 93.7173 131.14C92.1693 131.67 90.4808 131.754 88.8784 131.383C87.3528 130.888 85.9316 130.158 84.6768 129.224C83.5276 128.377 82.2397 127.7 80.8604 127.218C79.5929 126.848 78.2276 126.868 76.9739 127.275C75.8814 127.63 74.927 128.27 74.2289 129.115C73.6484 129.81 73.255 130.62 73.0804 131.479C72.9014 132.119 72.9681 132.795 73.2695 133.395C73.3728 133.579 73.5162 133.741 73.6908 133.871C73.8655 134.002 74.0677 134.099 74.2849 134.156C74.4351 134.18 74.5874 134.193 74.7401 134.194Z" fill="#464646"/>
<path d="M117.624 151.219C117.624 151.219 117.876 150.912 118.247 150.325C118.756 149.485 119.041 148.549 119.08 147.59C119.112 146.942 119.022 146.294 118.814 145.674C118.557 144.956 118.179 144.279 117.694 143.668C117.204 143.029 116.622 142.326 116.111 141.56C115.53 140.773 115.212 139.85 115.194 138.902C115.294 137.967 115.614 137.063 116.132 136.251C116.58 135.529 116.848 134.727 116.916 133.9C116.936 133.202 116.755 132.511 116.393 131.896C116.031 131.281 115.499 130.763 114.851 130.393C113.946 129.905 112.886 129.715 111.847 129.856C111.468 129.918 111.094 130.001 110.726 130.105C110.805 130.048 110.892 130 110.985 129.965C111.255 129.858 111.537 129.779 111.825 129.728C112.902 129.531 114.021 129.694 114.977 130.188C115.682 130.569 116.264 131.114 116.664 131.767C117.064 132.42 117.267 133.158 117.253 133.906C117.189 134.778 116.917 135.626 116.454 136.391C115.962 137.162 115.656 138.021 115.558 138.908C115.575 139.795 115.874 140.659 116.419 141.394C116.909 142.135 117.484 142.812 117.974 143.495C118.469 144.138 118.852 144.847 119.108 145.597C119.315 146.257 119.394 146.944 119.339 147.629C119.279 148.603 118.957 149.548 118.401 150.382C118.249 150.61 118.073 150.824 117.876 151.021C117.701 151.161 117.631 151.225 117.624 151.219Z" fill="#464646"/>
<path d="M88.2891 143.764C88.2243 143.229 88.1261 142.698 87.995 142.173C87.7471 141.298 87.3016 140.481 86.6869 139.772C86.0723 139.064 85.3022 138.48 84.426 138.059C83.5497 137.638 82.5867 137.389 81.5987 137.327C80.6107 137.265 79.6194 137.393 78.6885 137.701C77.388 138.145 76.2568 138.924 75.4323 139.943C74.5478 141.041 74.0707 142.367 74.0707 143.729C74.0707 145.09 74.5478 146.417 75.4323 147.514C75.8411 148.041 76.3427 148.503 76.9168 148.881C77.454 149.255 78.0517 149.55 78.6885 149.756C79.7953 150.128 80.9866 150.241 82.1536 150.085C83.3206 149.929 84.4261 149.508 85.369 148.862C86.6529 147.98 87.5771 146.732 87.995 145.316C88.1251 144.793 88.2233 144.264 88.2891 143.732C88.3332 144.275 88.2812 144.82 88.1351 145.348C87.7625 146.844 86.8256 148.174 85.4881 149.104C84.5157 149.79 83.3692 150.241 82.1549 150.416C80.9406 150.59 79.6977 150.482 78.5414 150.101C77.87 149.89 77.2391 149.584 76.6717 149.194C76.0719 148.797 75.5448 148.317 75.1101 147.769C74.1733 146.618 73.6675 145.223 73.6675 143.789C73.6675 142.356 74.1733 140.96 75.1101 139.809C75.976 138.738 77.1699 137.925 78.5414 137.471C79.7801 137.067 81.1146 136.972 82.4069 137.196C83.7781 137.44 85.0437 138.038 86.0531 138.919C87.0624 139.8 87.7729 140.928 88.1001 142.167C88.255 142.687 88.3188 143.226 88.2891 143.764Z" fill="#263238"/>
<path d="M104.704 143.764C104.643 143.228 104.545 142.697 104.41 142.173C104.163 141.299 103.718 140.481 103.104 139.772C102.49 139.064 101.721 138.481 100.845 138.059C99.9691 137.638 99.0066 137.389 98.019 137.327C97.0315 137.266 96.0406 137.393 95.1102 137.701C93.8063 138.143 92.6722 138.922 91.847 139.943C90.9625 141.041 90.4854 142.367 90.4854 143.729C90.4854 145.09 90.9625 146.417 91.847 147.514C92.2577 148.04 92.759 148.501 93.3315 148.881C93.8721 149.254 94.4719 149.549 95.1102 149.756C96.0352 150.062 97.0198 150.19 98.0017 150.13C98.9835 150.071 99.9411 149.827 100.814 149.412C101.687 148.998 102.456 148.423 103.072 147.723C103.689 147.024 104.14 146.215 104.396 145.348C104.53 144.826 104.628 144.297 104.69 143.764C104.738 144.307 104.686 144.853 104.536 145.38C104.172 146.858 103.256 148.175 101.945 149.104C100.972 149.79 99.8259 150.241 98.6116 150.416C97.3973 150.59 96.1544 150.482 94.9981 150.101C94.3267 149.89 93.6958 149.584 93.1284 149.194C92.5267 148.797 91.9973 148.316 91.5598 147.769C90.6272 146.617 90.124 145.222 90.124 143.789C90.124 142.357 90.6272 140.962 91.5598 139.809C92.4306 138.74 93.626 137.927 94.9981 137.471C96.2368 137.067 97.5713 136.972 98.8636 137.196C100.233 137.442 101.497 138.041 102.505 138.922C103.513 139.803 104.222 140.929 104.55 142.167C104.697 142.688 104.749 143.227 104.704 143.764Z" fill="#263238"/>
<path d="M90.6992 142.665V142.729V142.614V142.742C90.3132 142.82 89.918 142.854 89.5227 142.844C88.8224 142.844 88.2412 142.767 88.2412 142.678C88.2412 142.588 88.8154 142.512 89.5227 142.512C89.9181 142.498 90.3137 142.532 90.6992 142.614V142.742V142.627V142.69V142.665Z" fill="#263238"/>
<path d="M113.352 144.109C111.88 144.182 110.404 144.141 108.94 143.987C107.468 143.948 106.001 143.797 104.557 143.534C106.028 143.468 107.504 143.509 108.968 143.655C110.441 143.698 111.907 143.849 113.352 144.109Z" fill="#263238"/>
<path d="M95.2922 153.314C95.4225 153.645 95.4396 154.004 95.3413 154.343C95.1913 155.193 94.7052 155.963 93.9748 156.508C93.2445 157.053 92.3206 157.335 91.3777 157.301C90.992 157.322 90.6083 157.235 90.2783 157.052C90.2783 157.001 90.7125 157.103 91.3777 157.052C92.2429 157.025 93.0744 156.739 93.7448 156.24C94.4152 155.74 94.8874 155.053 95.0892 154.285C95.2922 153.704 95.2502 153.314 95.2922 153.314Z" fill="#263238"/>
<path d="M67.5546 199.177C67.5635 199.245 67.5635 199.314 67.5546 199.381V199.982C67.5546 200.531 67.5546 201.311 67.5896 202.295C67.5896 204.32 67.5896 207.214 67.6386 210.785C67.6386 217.953 67.4005 227.855 66.7913 238.779C66.182 249.703 65.5518 259.573 65.1246 266.754C64.9286 270.312 64.7675 273.206 64.6555 275.231C64.5994 276.215 64.5574 276.982 64.5294 277.531C64.5294 277.78 64.4944 277.978 64.4874 278.132C64.4947 278.2 64.4947 278.268 64.4874 278.336C64.4769 278.268 64.4769 278.199 64.4874 278.132C64.4874 277.978 64.4874 277.78 64.4874 277.531C64.4874 276.982 64.5224 276.209 64.5504 275.225C64.6134 273.219 64.7255 270.319 64.9006 266.741C65.2297 259.58 65.8669 249.69 66.4622 238.766C67.0574 227.842 67.3795 217.946 67.4215 210.778C67.4215 207.214 67.4705 204.32 67.4845 202.295C67.4845 201.311 67.4845 200.531 67.5195 199.982V199.381C67.5221 199.312 67.5339 199.244 67.5546 199.177Z" fill="#263238"/>
<path d="M135.207 188.176C131.44 184.209 124.08 183.627 120.817 185.78C117.553 187.933 115.74 191.587 115.411 195.248C115.081 198.909 116.111 202.582 117.637 205.974C120.095 211.417 123.73 215.825 129.157 221.434L143.162 238.185L116.167 262.231L127.371 278.336L150.319 261.47L169.296 243.123" fill="#4074BA"/>
<path d="M37.5972 239.82C38.0353 239.527 38.5291 239.31 39.0537 239.181C40.2948 238.799 41.6043 238.637 42.9122 238.702C44.2228 238.767 45.5081 239.058 46.7006 239.558C47.2174 239.735 47.6926 239.999 48.1012 240.338C48.1012 240.382 47.541 240.101 46.6306 239.775C45.4469 239.35 44.1964 239.1 42.9262 239.034C41.6569 238.977 40.3856 239.103 39.1588 239.405C38.1854 239.641 37.6252 239.871 37.5972 239.82Z" fill="#263238"/>
<path d="M138.842 191.939C129.423 180.542 119.283 181.481 114.115 181.347V176.345C110.299 176.345 105.082 179.481 102.386 181.724L99.7178 185.065C99.0324 183.235 97.8878 181.577 96.3754 180.223C94.8629 178.869 93.0244 177.856 91.0065 177.265C89.5509 176.843 88.0586 176.535 86.5458 176.345V180.817C73.885 181.142 67.1134 184.298 58.6542 193.229C58.22 193.689 57.3587 194.475 56.3713 195.363L31.3438 222.194C26.2319 227.356 21.5401 234.46 22.6395 241.36C23.8369 249.128 28.8018 254.239 38.3045 260.097L64.6345 275.665L64.5084 278.342H127.343C127.343 278.342 169.955 249.665 170.998 239.041C171.81 230.646 157.133 212.854 138.842 191.939ZM65.6919 252.827L47.2679 240.286L67.1694 221.498L65.6919 252.827ZM126.027 253.823L125.53 244.541L128.205 220.156C133.457 225.65 143.176 236.556 143.176 238.185L126.027 253.823Z" fill="#4074BA"/>
<path d="M114.102 181.372C113.968 181.638 113.809 181.893 113.626 182.132C113.289 182.605 112.806 183.289 112.169 184.113C110.528 186.274 108.684 188.3 106.658 190.169C106.063 190.718 105.46 191.236 104.872 191.728L104.578 191.977V191.613C104.544 189.514 103.621 187.508 102.001 186.017C101.575 185.55 101.022 185.193 100.398 184.982C100.157 184.939 99.9083 184.977 99.6973 185.09C99.7793 184.997 99.8885 184.926 100.012 184.887C100.136 184.847 100.27 184.84 100.398 184.867C101.072 185.039 101.677 185.385 102.141 185.863C102.9 186.521 103.525 187.295 103.99 188.15C104.571 189.227 104.886 190.407 104.914 191.606L104.62 191.485C105.194 190.993 105.797 190.482 106.385 189.933C108.394 188.072 110.254 186.082 111.952 183.979L113.493 182.062C113.669 181.814 113.873 181.583 114.102 181.372Z" fill="#263238"/>
<path d="M86.5322 180.842C86.737 181.022 86.9201 181.221 87.0784 181.436L88.479 183.116C89.6484 184.547 91.231 186.54 92.9677 188.751L94.1021 190.195L93.787 190.239C94.1257 189.207 94.5958 188.214 95.1875 187.281C95.6768 186.524 96.3744 185.897 97.2113 185.461C97.7632 185.169 98.3874 185.011 99.025 185.001C99.2629 184.979 99.5031 185.009 99.7252 185.09C99.7252 185.09 99.4872 185.09 99.025 185.09C98.4208 185.146 97.8386 185.327 97.3233 185.62C96.5465 186.067 95.902 186.682 95.4466 187.409C94.8832 188.33 94.4323 189.305 94.1021 190.316L93.9901 190.616L93.787 190.361L92.6525 188.917C90.9159 186.707 89.3613 184.694 88.2479 183.231C87.7367 182.535 87.3025 181.954 86.9524 181.487C86.787 181.287 86.6461 181.07 86.5322 180.842Z" fill="#263238"/>
<g opacity="0.1">
<path d="M99.7036 185.09C100.753 186.139 101.541 187.383 102.014 188.736C102.487 190.089 102.632 191.52 102.442 192.929C102.309 193.862 102.19 195.107 103.142 195.452C103.807 195.689 104.542 195.274 105.082 194.865C109.167 191.861 112.529 188.12 114.955 183.877C115.19 183.543 115.317 183.155 115.32 182.759C115.314 182.562 115.226 182.375 115.074 182.236C114.921 182.096 114.716 182.016 114.5 182.011C114.213 182.084 113.964 182.25 113.8 182.478C110.887 185.544 107.666 188.732 104.753 191.792C104.884 190.089 104.306 188.403 103.135 187.071C101.979 185.793 100.719 184.471 99.7246 185.09" fill="black"/>
</g>
<path d="M126.573 277.269C126.491 277.187 126.418 277.097 126.356 277.001C126.202 276.796 126.013 276.528 125.768 276.196L123.618 273.155C121.791 270.51 119.235 266.824 116.259 262.537L116.188 262.429L116.287 262.346L122.855 256.366L137.147 243.461C138.968 241.839 140.453 240.523 141.503 239.577L142.708 238.536C142.842 238.409 142.987 238.291 143.142 238.185C143.027 238.327 142.898 238.46 142.757 238.581C142.469 238.855 142.056 239.219 141.608 239.673L137.309 243.653L123.086 256.628C120.775 258.73 118.548 260.742 116.511 262.588V262.397C119.438 266.709 121.959 270.414 123.758 273.078C124.627 274.356 125.327 275.416 125.824 276.17C126.048 276.509 126.223 276.809 126.363 277.001C126.444 277.083 126.515 277.173 126.573 277.269Z" fill="#263238"/>
<path d="M118.849 187.85L118.744 187.972L118.422 188.317C118.121 188.61 117.722 189.07 117.218 189.671C115.832 191.395 114.913 193.394 114.536 195.504C114.089 198.649 114.631 201.846 116.097 204.722C116.894 206.439 117.93 208.056 119.178 209.532C120.502 211.072 121.902 212.612 123.338 214.266C128.989 220.763 133.842 226.813 137.413 231.157L141.615 236.313C142.098 236.901 142.476 237.373 142.756 237.718L143.043 238.089L143.134 238.217C143.134 238.217 143.085 238.185 143.015 238.108L142.7 237.757L141.51 236.357C140.48 235.163 139.01 233.425 137.203 231.247C133.59 226.941 128.695 220.91 123.058 214.426C121.657 212.797 120.257 211.232 118.898 209.718C117.636 208.215 116.591 206.57 115.789 204.824C114.313 201.894 113.79 198.639 114.283 195.446C114.825 192.729 116.262 190.226 118.401 188.272L118.751 187.952C118.8 187.882 118.842 187.844 118.849 187.85Z" fill="#263238"/>
<path d="M142.469 196.098C142.469 196.13 142.084 196.251 141.426 196.57C140.505 197.034 139.667 197.622 138.94 198.314C137.867 199.351 136.928 200.495 136.139 201.726C135.179 203.264 134.134 204.756 133.009 206.198C131.952 207.51 130.585 208.589 129.009 209.354C127.433 210.119 125.689 210.552 123.905 210.619C122.834 210.668 121.761 210.575 120.719 210.344C120.436 210.285 120.158 210.211 119.886 210.12C119.789 210.091 119.695 210.055 119.605 210.012C121.008 210.319 122.451 210.444 123.891 210.382C125.446 210.285 126.966 209.914 128.366 209.29C130.077 208.523 131.561 207.392 132.693 205.993C133.933 204.524 134.871 202.952 135.824 201.585C136.638 200.344 137.614 199.196 138.73 198.167C139.49 197.474 140.37 196.9 141.335 196.468C141.598 196.356 141.87 196.26 142.147 196.181C142.25 196.14 142.358 196.112 142.469 196.098Z" fill="#FAFAFA"/>
<path d="M125.768 252.271H125.6L125.131 252.169C124.921 252.118 124.662 252.086 124.353 252.041C124.001 251.988 123.646 251.951 123.289 251.932C121.003 251.837 118.717 252.105 116.531 252.725C115.013 253.123 113.527 253.619 112.085 254.207C110.53 254.846 108.92 255.625 107.183 256.372C105.369 257.186 103.474 257.84 101.525 258.327C100.483 258.572 99.4189 258.726 98.3455 258.787C97.2359 258.836 96.1239 258.763 95.0332 258.57C92.9031 258.13 90.8695 257.365 89.018 256.309C87.2113 255.325 85.5937 254.207 84.0461 253.172C80.9859 251.076 78.0588 249.339 75.2787 248.585C74.037 248.233 72.748 248.04 71.4483 248.01C70.4685 247.993 69.4907 248.098 68.5422 248.323C67.7362 248.53 66.9569 248.815 66.2173 249.173L66.3503 249.083L66.7705 248.853C67.3211 248.581 67.9037 248.367 68.5072 248.214C69.4662 247.966 70.4585 247.842 71.4553 247.844C72.7739 247.854 74.0845 248.032 75.3488 248.374C78.1918 249.109 81.168 250.859 84.2421 252.942C85.7967 253.977 87.4144 255.076 89.2 256.047C91.0172 257.083 93.0129 257.832 95.1033 258.263C96.1635 258.454 97.2453 258.525 98.3245 258.474C99.3741 258.419 100.415 258.272 101.434 258.033C103.362 257.555 105.238 256.914 107.036 256.117C108.772 255.376 110.39 254.596 111.938 253.977C113.396 253.393 114.898 252.906 116.433 252.52C118.647 251.914 120.962 251.678 123.268 251.824C124.12 251.866 124.961 252.017 125.768 252.271Z" fill="#FAFAFA"/>
<path d="M56.5473 246.598C56.5473 246.598 56.5823 246.675 56.6033 246.822C56.6473 247.033 56.6754 247.246 56.6874 247.461C56.7573 248.252 56.7196 249.048 56.5753 249.831C56.3683 251.008 55.8702 252.126 55.1188 253.102C54.1562 254.261 52.9309 255.218 51.5264 255.906C50.1259 256.692 48.6763 257.35 47.5209 258.116C46.4765 258.763 45.5621 259.569 44.8179 260.499C44.3261 261.128 44.0462 261.874 44.0126 262.646C44.0126 263.195 44.1036 263.496 44.0616 263.502C44.0202 263.437 43.9917 263.365 43.9775 263.291C43.9175 263.082 43.8799 262.868 43.8655 262.652C43.8371 261.845 44.0816 261.048 44.5658 260.372C45.2999 259.393 46.2229 258.545 47.2898 257.867C48.4662 257.069 49.8878 256.398 51.3023 255.625C52.6612 254.954 53.8533 254.034 54.8037 252.923C55.5395 251.99 56.0437 250.921 56.2812 249.792C56.4415 249.026 56.5165 248.247 56.5053 247.467C56.4967 247.177 56.5107 246.886 56.5473 246.598Z" fill="#FAFAFA"/>
<path d="M162.224 220.156C160.787 220.377 159.389 220.776 158.071 221.345C156.661 221.973 155.394 222.84 154.339 223.9C153.722 224.529 153.19 225.224 152.756 225.97C152.294 226.743 151.979 227.618 151.524 228.48C151.107 229.349 150.477 230.118 149.682 230.729C148.935 231.285 148.086 231.718 147.175 232.007C145.642 232.47 144.024 232.652 142.413 232.543C141.338 232.484 140.267 232.369 139.206 232.199C138.815 232.152 138.429 232.077 138.051 231.975C138.445 231.976 138.839 232.008 139.227 232.071C139.984 232.141 141.069 232.275 142.42 232.307C143.995 232.38 145.571 232.178 147.063 231.713C147.971 231.445 148.807 231.007 149.518 230.427C150.23 229.848 150.801 229.139 151.195 228.346C151.636 227.503 151.958 226.621 152.441 225.823C152.901 225.061 153.463 224.355 154.115 223.721C155.206 222.633 156.522 221.751 157.987 221.127C158.964 220.704 160.002 220.408 161.069 220.246C161.358 220.202 161.651 220.173 161.944 220.156C162.037 220.142 162.131 220.142 162.224 220.156Z" fill="#FAFAFA"/>
<path d="M127.421 225.548L127.259 225.593L126.783 225.689C126.363 225.772 125.74 225.874 124.928 225.989C122.641 226.311 120.329 226.46 118.016 226.436C114.573 226.414 111.156 225.885 107.897 224.871C105.988 224.239 104.146 223.45 102.393 222.514C100.536 221.509 98.5917 220.644 96.5808 219.926C95.5582 219.596 94.4953 219.382 93.4156 219.287C92.3652 219.215 91.309 219.262 90.2714 219.428C88.315 219.793 86.4277 220.417 84.6693 221.281C81.273 222.923 78.4159 224.75 75.8319 226.021C73.8338 227.103 71.6552 227.88 69.3825 228.321C68.7679 228.441 68.1413 228.503 67.5127 228.506H67.0226C66.9668 228.513 66.9102 228.513 66.8545 228.506H67.0226L67.5057 228.455C68.1288 228.421 68.7474 228.338 69.3544 228.206C71.5934 227.721 73.7362 226.921 75.7059 225.836C78.2478 224.558 81.0909 222.699 84.5082 221.025C86.3005 220.131 88.2287 219.485 90.2294 219.109C91.2967 218.935 92.3834 218.884 93.4646 218.955C94.5762 219.055 95.6699 219.281 96.7208 219.626C98.7509 220.349 100.711 221.225 102.582 222.245C104.321 223.17 106.144 223.957 108.03 224.596C111.251 225.613 114.629 226.159 118.037 226.213C120.338 226.259 122.639 226.146 124.921 225.874C125.733 225.778 126.356 225.695 126.783 225.631L127.266 225.574C127.316 225.559 127.368 225.551 127.421 225.548Z" fill="#FAFAFA"/>
<path d="M58.9695 229.241C59.0377 228.914 59.0234 228.578 58.9275 228.257C58.7309 227.844 58.4287 227.479 58.0462 227.193C57.6638 226.908 57.212 226.709 56.7286 226.615C56.1194 226.449 55.4262 226.353 54.6839 226.2C53.861 226.061 53.0887 225.739 52.436 225.261C51.7518 224.698 51.2197 223.999 50.8814 223.217C50.5369 222.386 50.2675 221.532 50.0761 220.661C49.8944 219.814 49.6271 218.985 49.2778 218.183C48.9415 217.444 48.5013 216.748 47.9683 216.113C47.069 215.026 45.913 214.137 44.586 213.513C43.704 213.091 42.7609 212.786 41.785 212.606C41.0847 212.478 40.6855 212.452 40.6855 212.42C40.7826 212.403 40.8826 212.403 40.9797 212.42C41.2564 212.428 41.5324 212.452 41.806 212.491C42.8262 212.62 43.8169 212.898 44.7401 213.315C46.1129 213.933 47.3111 214.831 48.2414 215.94C48.8105 216.589 49.2816 217.305 49.642 218.068C50.0045 218.894 50.2811 219.75 50.4683 220.623C50.6539 221.469 50.9138 222.3 51.2456 223.108C51.5619 223.838 52.0551 224.493 52.6881 225.025C53.2957 225.48 54.0174 225.792 54.7889 225.932C55.4892 226.098 56.1894 226.207 56.8407 226.392C57.353 226.504 57.8272 226.729 58.2216 227.048C58.616 227.366 58.9185 227.769 59.1026 228.219C59.1737 228.472 59.1737 228.738 59.1026 228.992C59.0787 229.083 59.0333 229.168 58.9695 229.241Z" fill="#FAFAFA"/>
<path d="M114.277 196.474C113.626 196.148 112.935 195.892 112.218 195.714C111.368 195.555 110.491 195.555 109.641 195.714C108.508 195.918 107.409 196.255 106.371 196.717C105.201 197.196 103.969 197.822 102.624 198.468C101.2 199.191 99.6892 199.764 98.1218 200.173C96.3584 200.567 94.5245 200.621 92.7367 200.333C90.8317 200.016 88.9841 199.459 87.2466 198.679C83.6683 197.088 80.6922 194.954 77.8211 193.293C75.3467 191.722 72.5836 190.569 69.663 189.888C67.6898 189.446 65.6316 189.424 63.6477 189.824C62.9357 190.004 62.2345 190.217 61.5469 190.463C62.2062 190.124 62.9129 189.868 63.6477 189.703C65.6507 189.247 67.7443 189.233 69.754 189.664C72.7175 190.319 75.5249 191.462 78.0381 193.038C80.9373 194.692 83.9134 196.819 87.4357 198.385C89.1429 199.152 90.9571 199.702 92.8278 200.02C94.5682 200.302 96.3535 200.254 98.0728 199.88C99.6193 199.487 101.111 198.934 102.519 198.231C103.864 197.592 105.11 196.954 106.301 196.506C107.364 196.054 108.487 195.728 109.641 195.535C110.521 195.399 111.422 195.429 112.288 195.625C112.827 195.761 113.344 195.958 113.829 196.213C113.983 196.292 114.133 196.38 114.277 196.474Z" fill="#FAFAFA"/>
<path d="M110.32 277.582L112.267 278.47H123.471L125.733 276.783L117.582 264.479C116.58 264.882 112.183 265.508 110.761 265.961C109.535 266.354 108.244 266.553 106.945 266.549C105.496 266.578 104.048 266.469 102.624 266.223L102.316 266.134C102.126 266.059 101.921 266.02 101.714 266.019C100.502 265.923 99.5428 267.079 100.222 267.993C100.901 268.907 104.214 270.127 108.443 270.018H108.646C112.358 270.018 108.954 272.855 106.749 274.541C106.359 274.828 106.057 275.201 105.87 275.625C105.684 276.049 105.62 276.509 105.684 276.962C105.697 277.125 105.748 277.284 105.834 277.427C105.919 277.57 106.038 277.695 106.181 277.793C107.12 278.336 110.32 277.582 110.32 277.582Z" fill="#FFBE9D"/>
<path d="M64.5998 276.055C64.5923 275.996 64.5923 275.936 64.5998 275.876C64.5998 275.736 64.5998 275.563 64.5998 275.346C64.5998 274.854 64.6418 274.171 64.6768 273.308C64.7609 271.519 64.8729 268.97 65.02 265.827C65.3071 259.49 65.7202 250.776 66.1474 241.149C66.5746 231.521 66.8477 222.776 67.0437 216.458C67.1208 213.314 67.1768 210.765 67.2188 208.97C67.2188 208.108 67.2538 207.424 67.2678 206.932C67.2678 206.715 67.2678 206.543 67.2678 206.409C67.2589 206.347 67.2589 206.285 67.2678 206.223C67.2783 206.285 67.2783 206.347 67.2678 206.409C67.2678 206.543 67.2678 206.722 67.2678 206.932C67.2678 207.424 67.2678 208.108 67.2678 208.97C67.2678 210.74 67.2678 213.295 67.2118 216.458C67.1138 222.782 66.8337 231.515 66.4205 241.162C66.0073 250.808 65.5522 259.528 65.188 265.84C64.992 268.977 64.8379 271.526 64.7259 273.315C64.6628 274.177 64.6138 274.861 64.5788 275.346L64.5298 275.876C64.5604 275.933 64.5839 275.993 64.5998 276.055Z" fill="#263238"/>
<path d="M95.0821 277.269C95.0714 277.19 95.0714 277.111 95.0821 277.033C95.0821 276.86 95.0471 276.63 95.0191 276.336L94.8161 273.647C94.732 272.484 94.627 271.053 94.571 269.392C94.5149 267.731 94.3819 265.846 94.3679 263.757C94.3539 261.668 94.2698 259.375 94.3049 256.915C94.3049 255.689 94.3049 254.418 94.3049 253.082C94.3049 251.747 94.3679 250.425 94.4029 249.045C94.578 243.519 94.8931 237.45 95.3833 231.087C96.3636 218.355 97.6101 206.862 98.4084 198.538C98.8006 194.386 99.1087 191.025 99.3468 188.674C99.4518 187.531 99.5428 186.63 99.5989 185.998C99.6339 185.704 99.6549 185.474 99.6759 185.301C99.6969 185.129 99.7109 185.065 99.7109 185.065C99.7203 185.143 99.7203 185.223 99.7109 185.301L99.6759 186.004C99.6269 186.643 99.5639 187.537 99.4868 188.687C99.3258 191.019 99.0387 194.392 98.6675 198.557C97.9322 206.862 96.7278 218.361 95.7474 231.106C95.2572 237.495 94.9351 243.532 94.739 249.051C94.739 250.431 94.662 251.779 94.627 253.089C94.592 254.398 94.627 255.644 94.578 256.922C94.5359 259.375 94.578 261.662 94.578 263.751C94.578 265.84 94.683 267.731 94.725 269.386C94.767 271.04 94.8441 272.478 94.9071 273.64C94.9701 274.803 95.0121 275.697 95.0471 276.33V277.033C95.068 277.11 95.0797 277.189 95.0821 277.269Z" fill="#263238"/>
<path d="M100.236 214.33C100.201 214.298 100.594 214.151 101.028 214.49C101.152 214.59 101.248 214.716 101.308 214.858C101.367 214.999 101.389 215.151 101.371 215.301C101.326 215.487 101.221 215.656 101.07 215.787C100.918 215.918 100.727 216.004 100.522 216.035C100.316 216.066 100.105 216.04 99.9153 215.961C99.7259 215.881 99.567 215.752 99.4591 215.589C99.3889 215.453 99.3555 215.304 99.3615 215.154C99.3676 215.004 99.4131 214.857 99.4941 214.726C99.7812 214.273 100.194 214.298 100.194 214.343C100.194 214.388 99.8932 214.452 99.7322 214.829C99.6809 214.929 99.6543 215.038 99.6543 215.148C99.6543 215.258 99.6809 215.367 99.7322 215.467C99.8145 215.564 99.9238 215.638 100.049 215.682C100.173 215.727 100.309 215.739 100.441 215.719C100.573 215.699 100.697 215.646 100.799 215.567C100.901 215.488 100.978 215.385 101.021 215.269C101.035 215.163 101.025 215.056 100.991 214.953C100.958 214.851 100.901 214.756 100.825 214.675C100.558 214.349 100.236 214.388 100.236 214.33Z" fill="#263238"/>
<path d="M98.2687 243.014C98.2337 242.982 98.6328 242.829 99.067 243.174C99.1893 243.274 99.2837 243.399 99.3422 243.539C99.4007 243.679 99.4215 243.83 99.4031 243.979C99.3671 244.168 99.2652 244.342 99.1126 244.474C98.96 244.606 98.7648 244.69 98.5558 244.714C98.3501 244.751 98.1367 244.729 97.9458 244.65C97.7548 244.57 97.5959 244.439 97.4914 244.273C97.4233 244.135 97.3917 243.985 97.399 243.834C97.4063 243.683 97.4523 243.536 97.5334 243.404C97.8205 242.95 98.2337 242.982 98.2337 243.021C98.2337 243.059 97.9325 243.136 97.7715 243.506C97.7183 243.606 97.6906 243.715 97.6906 243.826C97.6906 243.936 97.7183 244.046 97.7715 244.145C97.8445 244.254 97.9515 244.34 98.0788 244.393C98.2061 244.446 98.3478 244.463 98.4856 244.441C98.6235 244.42 98.7512 244.361 98.8523 244.273C98.9534 244.185 99.0233 244.072 99.053 243.947C99.0692 243.842 99.0601 243.735 99.0262 243.633C98.9923 243.532 98.9345 243.438 98.8569 243.359C98.5978 243.014 98.2687 243.059 98.2687 243.014Z" fill="#263238"/>
<path d="M148.512 262.722C148.196 262.716 147.882 262.679 147.574 262.614C146.728 262.45 145.902 262.208 145.109 261.892C142.469 260.823 140.265 259.024 138.807 256.749C138.07 255.484 137.485 254.149 137.063 252.769C136.717 251.663 136.196 250.608 135.515 249.639C135.046 248.996 134.442 248.444 133.737 248.016C133.226 247.729 132.903 247.633 132.917 247.601C132.999 247.607 133.08 247.624 133.156 247.652C133.381 247.719 133.599 247.804 133.807 247.908C134.569 248.303 135.224 248.849 135.726 249.505C136.454 250.486 137.014 251.563 137.385 252.699C137.815 254.053 138.397 255.364 139.122 256.609C140.546 258.832 142.672 260.613 145.221 261.72C146.288 262.131 147.388 262.467 148.512 262.722Z" fill="#FAFAFA"/>
<path d="M220.248 278.451L208.343 246.93L213.847 216.688C215.451 208.53 216.347 201.355 213.946 197.248C207.524 186.304 199.772 185.32 189.184 182.81C186.999 182.292 170.382 181.781 168.554 182.171C154.136 183.647 144.906 190.623 139.843 201.975L134.353 222.162L126.811 243.244C126.18 244.469 125.256 245.549 124.105 246.404C122.955 247.259 121.609 247.867 120.166 248.183L91.0908 257.248L91.3359 262.442L91.0908 269.469L129.816 262.818C137.574 261.49 145.466 258.877 147.693 252.048L151.86 240.791C153.898 245.557 156.118 249.927 156.118 249.927L153.316 278.31L220.248 278.451Z" fill="#464646"/>
<path d="M210.276 222.45L199.212 256.2C198.368 258.773 196.839 261.116 194.762 263.02C192.685 264.923 190.124 266.329 187.308 267.112L141.258 278.304L135.152 263.802L176.776 249.684L186.993 215.889C186.993 215.889 189.352 196.992 208.085 197.963" fill="#464646"/>
<path d="M208.077 197.963H207.517C207.146 197.963 206.6 197.925 205.878 197.963C203.77 198.018 201.687 198.404 199.723 199.106C198.303 199.614 196.967 200.297 195.753 201.138C194.313 202.149 193.037 203.34 191.964 204.677C189.397 208.007 187.734 211.845 187.111 215.876C184.31 225.28 180.809 236.792 176.936 249.69V249.767H176.859L135.208 263.955L135.313 263.745L136.398 266.3C138.114 270.389 139.808 274.413 141.412 278.227L141.195 278.125L180.76 268.542L185.221 267.456C185.921 267.277 186.684 267.111 187.398 266.92C188.1 266.718 188.787 266.479 189.457 266.204C193.296 264.619 196.384 261.831 198.161 258.346C198.691 257.268 199.126 256.153 199.464 255.012C200.202 252.78 200.902 250.65 201.565 248.623C204.261 240.484 206.425 233.93 207.916 229.458L209.646 224.283L210.101 222.948C210.206 222.648 210.269 222.495 210.269 222.495C210.269 222.495 210.227 222.654 210.136 222.954C210.045 223.255 209.898 223.715 209.709 224.302C209.324 225.497 208.764 227.241 208.042 229.496L201.796 248.706C201.138 250.746 200.437 252.876 199.695 255.095C199.359 256.249 198.924 257.377 198.393 258.468C197.828 259.602 197.123 260.674 196.292 261.662C194.512 263.742 192.212 265.403 189.583 266.504C188.898 266.785 188.197 267.03 187.482 267.239C186.782 267.431 186.033 267.597 185.298 267.782L180.837 268.868L141.279 278.502L141.125 278.54L141.069 278.406C139.465 274.573 137.764 270.561 136.048 266.479L134.962 263.923L134.899 263.77L135.067 263.713L176.698 249.607L176.593 249.709C180.508 236.824 184.002 225.312 186.852 215.921C187.488 211.856 189.184 207.989 191.796 204.645C192.883 203.296 194.177 202.098 195.641 201.087C196.871 200.246 198.224 199.564 199.66 199.062C201.64 198.362 203.741 197.992 205.864 197.969C206.41 197.942 206.957 197.942 207.503 197.969L208.077 197.963Z" fill="#263238"/>
<path d="M179.066 242.101C178.884 242.138 178.698 242.151 178.512 242.139C178.01 242.136 177.51 242.082 177.021 241.979C175.39 241.633 173.885 240.909 172.651 239.878C171.4 238.869 170.426 237.606 169.808 236.191C169.696 235.949 169.605 235.699 169.535 235.444C169.471 235.256 169.425 235.064 169.395 234.869C169.339 234.55 169.318 234.371 169.346 234.371C169.374 234.371 169.535 235.061 170.046 236.096C170.713 237.442 171.681 238.645 172.889 239.628C174.09 240.624 175.529 241.35 177.091 241.749C178.281 242.043 179.066 242.03 179.066 242.101Z" fill="#263238"/>
<path d="M151.72 216.432C151.625 216.772 151.496 217.104 151.335 217.422C151.061 218.061 150.634 218.962 150.193 220.099C149.283 222.354 148.001 225.555 147.868 229.235C147.802 230.965 148.06 232.694 148.631 234.345C149.1 235.685 149.737 236.971 150.529 238.178C151.062 238.997 151.644 239.788 152.273 240.548C152.527 240.819 152.761 241.105 152.973 241.404C152.973 241.404 152.889 241.347 152.749 241.213C152.609 241.079 152.42 240.893 152.182 240.631C151.499 239.897 150.876 239.118 150.319 238.3C149.489 237.083 148.819 235.782 148.323 234.422C147.73 232.746 147.457 230.989 147.518 229.228C147.738 226.052 148.56 222.935 149.948 220.016C150.445 218.892 150.893 217.997 151.201 217.378C151.347 217.051 151.52 216.734 151.72 216.432Z" fill="#263238"/>
<path d="M180.823 254.188C180.376 253.255 179.807 252.376 179.128 251.568C178.356 250.835 177.488 250.191 176.544 249.652C176.884 249.678 177.211 249.781 177.496 249.952C178.957 250.666 180.075 251.85 180.633 253.274C180.778 253.56 180.843 253.874 180.823 254.188Z" fill="#263238"/>
<path d="M135.999 265.821C135.999 265.821 122.827 266.894 123.009 274.701L139.409 273.941L135.999 265.821Z" fill="#B78876"/>
<path d="M157.231 135.005C156.026 140.32 154.878 145.644 153.785 150.976C152.385 157.735 151.124 164.801 153.218 171.419C154.367 175.048 156.481 178.344 158.575 181.602C159.752 183.429 161.04 185.359 163.127 186.304C165.963 187.582 169.548 186.573 171.81 184.547C174.072 182.522 175.214 179.699 176.012 176.881C177.531 171.426 177.868 165.759 178.113 160.131C178.358 154.503 178.484 148.664 176.712 143.208C174.94 137.752 171.061 132.59 165.284 130.431" fill="#263238"/>
<path d="M158.184 130.738C159.832 129.568 161.834 128.888 163.919 128.789C165.599 125.684 169.584 124.26 173.309 123.602C178.799 122.624 178.211 122.49 183.316 124.547C188.421 126.604 195.69 132.418 196.621 137.452C197.467 141.867 199.017 146.146 201.222 150.152C202.622 152.803 205.354 154.624 206.971 157.179C207.844 158.565 208.357 160.114 208.473 161.709C208.588 163.303 208.302 164.901 207.636 166.379C206.32 169.26 203.526 171.802 203.792 174.907C203.939 176.715 203.869 178.006 204.653 179.673C207.307 185.32 206.054 192.846 200.354 196.104C194.653 199.362 186.404 198.225 182 193.549C178.176 189.511 177.441 183.749 177.798 178.421C178.155 173.093 179.5 167.797 179.122 162.45" fill="#263238"/>
<path d="M164.724 278.304L164.64 276.464L134.948 273.608L121.937 239.488L66.2173 238.338L83.0727 278.304C110.621 278.495 137.838 278.495 164.724 278.304Z" fill="#263238"/>
<path d="M97.1338 258.87C97.4212 259.326 97.8502 259.694 98.3666 259.927C98.883 260.16 99.4636 260.248 100.035 260.18C100.606 260.112 101.143 259.891 101.577 259.545C102.01 259.199 102.322 258.744 102.472 258.236C102.621 257.729 102.603 257.192 102.418 256.694C102.234 256.196 101.892 255.759 101.435 255.439C100.978 255.118 100.428 254.928 99.8528 254.893C99.2779 254.858 98.7046 254.98 98.2052 255.242C97.5358 255.593 97.0468 256.173 96.8459 256.854C96.645 257.534 96.7485 258.26 97.1338 258.87Z" fill="white"/>
<path d="M178.245 196.008C184.926 196.008 190.934 190.814 190.738 183.097L191.942 139.017C191.964 138.094 191.604 137.198 190.935 136.506C190.265 135.813 189.335 135.376 188.329 135.28L168.421 133.363C166.794 133.207 165.149 133.353 163.585 133.791C162.022 134.23 160.571 134.953 159.322 135.916C158.072 136.879 157.049 138.063 156.315 139.396C155.58 140.73 155.148 142.185 155.045 143.674C154.569 150.65 154.282 159.192 155.185 164.398C157.006 174.869 165.809 176.204 165.809 176.204L165.591 183.519C165.255 191.313 171.649 196.002 178.245 196.002V196.008Z" fill="#B78876"/>
<path d="M159.5 149.36C159.496 149.707 159.639 150.042 159.9 150.295C160.162 150.547 160.52 150.698 160.9 150.714C161.087 150.728 161.275 150.708 161.453 150.654C161.631 150.601 161.795 150.515 161.936 150.402C162.077 150.29 162.192 150.153 162.274 149.999C162.356 149.845 162.403 149.678 162.413 149.507C162.419 149.159 162.275 148.823 162.014 148.57C161.752 148.317 161.393 148.167 161.012 148.153C160.825 148.139 160.637 148.159 160.459 148.213C160.281 148.266 160.117 148.352 159.976 148.464C159.835 148.577 159.72 148.714 159.638 148.868C159.556 149.022 159.509 149.189 159.5 149.36Z" fill="#263238"/>
<path d="M157.077 148.12C157.259 148.293 158.379 147.545 159.962 147.545C161.545 147.545 162.707 148.274 162.875 148.095C162.959 148.018 162.777 147.705 162.273 147.367C161.583 146.94 160.767 146.717 159.934 146.728C159.111 146.726 158.309 146.963 157.644 147.405C157.154 147.724 156.993 148.044 157.077 148.12Z" fill="#263238"/>
<path d="M174.794 149.628C174.788 149.976 174.931 150.312 175.193 150.565C175.454 150.818 175.814 150.968 176.195 150.983C176.382 150.997 176.571 150.978 176.75 150.924C176.928 150.871 177.094 150.786 177.235 150.673C177.377 150.56 177.493 150.423 177.575 150.269C177.657 150.114 177.705 149.946 177.714 149.775C177.718 149.428 177.575 149.093 177.313 148.84C177.052 148.588 176.694 148.437 176.314 148.421C176.126 148.406 175.938 148.426 175.759 148.479C175.58 148.532 175.415 148.618 175.273 148.73C175.131 148.843 175.016 148.98 174.933 149.135C174.851 149.289 174.804 149.457 174.794 149.628Z" fill="#263238"/>
<path d="M172.651 148.389C172.833 148.568 173.947 147.814 175.529 147.814C177.112 147.814 178.274 148.542 178.449 148.363C178.533 148.287 178.351 147.974 177.84 147.635C177.152 147.21 176.339 146.987 175.508 146.996C174.683 146.995 173.879 147.232 173.211 147.673C172.728 147.993 172.56 148.312 172.651 148.389Z" fill="#263238"/>
<path d="M166.902 159.109C166.067 158.871 165.204 158.729 164.332 158.687C163.925 158.649 163.54 158.572 163.47 158.323C163.438 157.94 163.534 157.557 163.743 157.224C164.121 156.336 164.521 155.397 164.941 154.42C166.6 150.414 167.805 147.124 167.623 147.066C167.441 147.009 165.956 150.203 164.297 154.202C163.897 155.193 163.512 156.119 163.148 157.032C162.898 157.477 162.824 157.987 162.938 158.476C162.997 158.606 163.088 158.723 163.203 158.817C163.318 158.911 163.455 158.98 163.603 159.019C163.831 159.076 164.067 159.104 164.304 159.102C165.166 159.207 166.039 159.209 166.902 159.109Z" fill="#263238"/>
<path d="M165.81 176.21C171.214 176.284 176.535 174.988 181.18 172.467C181.18 172.467 177.448 179.66 165.964 178.683L165.81 176.21Z" fill="#AA6550"/>
<path d="M167.574 162.59C167.872 162.241 168.264 161.969 168.712 161.8C169.16 161.631 169.648 161.571 170.13 161.626C170.479 161.654 170.818 161.747 171.127 161.897C171.436 162.047 171.709 162.253 171.929 162.501C172.142 162.742 172.268 163.037 172.29 163.345C172.313 163.654 172.231 163.961 172.055 164.226C171.799 164.49 171.462 164.677 171.086 164.763C170.711 164.848 170.317 164.828 169.955 164.705C169.208 164.462 168.521 164.089 167.931 163.606C167.754 163.49 167.602 163.345 167.483 163.178C167.422 163.098 167.39 163.003 167.39 162.907C167.39 162.81 167.422 162.715 167.483 162.635" fill="#AA6550"/>
<path d="M171.565 160.105C171.306 160.105 171.299 161.664 169.828 162.776C168.358 163.887 166.53 163.715 166.516 163.938C166.516 164.034 166.922 164.238 167.7 164.258C168.717 164.278 169.71 163.968 170.501 163.382C171.249 162.822 171.729 162.018 171.838 161.14C171.873 160.488 171.677 160.099 171.565 160.105Z" fill="#263238"/>
<path d="M171.937 145.859C172.091 146.255 173.674 146.07 175.536 146.274C177.399 146.479 178.898 146.913 179.143 146.587C179.255 146.415 178.989 146.051 178.386 145.667C177.582 145.192 176.665 144.899 175.711 144.811C174.765 144.711 173.806 144.814 172.91 145.112C172.217 145.367 171.874 145.674 171.937 145.859Z" fill="#263238"/>
<path d="M157.657 143.936C157.937 144.268 159.058 143.936 160.346 143.936C161.635 143.936 162.769 144.153 163.021 143.815C163.133 143.649 162.958 143.316 162.475 143.01C161.824 142.634 161.064 142.445 160.294 142.467C159.524 142.488 158.779 142.72 158.154 143.131C157.692 143.438 157.538 143.776 157.657 143.936Z" fill="#263238"/>
<path d="M155.284 141.936C159.605 139.649 163.813 137.535 166.488 133.702C167.98 137.535 170.893 139.451 174.759 141.489C178.624 143.527 182.945 144.722 187.223 145.891C185.059 147.807 184.772 150.906 185.27 153.621C185.767 156.336 186.908 158.949 187.097 161.696C187.342 165.363 185.872 168.959 185.781 172.633C185.655 177.673 188.092 182.433 190.48 186.975L200.85 181.462L199.359 156.898L199.485 139.515L183.316 125.806L162.84 127.85L155.284 141.936Z" fill="#263238"/>
<path d="M152.98 193.587C158.239 198.436 157.679 207.08 163.484 211.417C167.028 214.075 172.203 214.324 176.551 212.982C180.9 211.641 184.555 208.926 187.91 206.064C191.264 203.202 194.436 200.129 198.253 197.81C201.957 195.555 208.301 194.169 209.198 190.182C209.856 187.269 206.495 183.762 205.864 180.842C204.863 176.204 210.36 172.62 211.277 167.97C213.112 158.674 207.734 147.763 202.132 139.861C196.53 131.958 193.365 123.008 179.163 122.273C166.453 121.756 157.798 127.32 153.569 135.369C151.468 139.401 150.957 143.962 150.543 148.421C149.584 158.834 149.052 169.873 154.325 179.149C155.417 181.066 156.72 183.506 155.249 185.206C153.905 186.758 150.859 186.694 150.004 188.515C149.15 190.335 151.398 192.124 152.98 193.587ZM168.82 131.856C170.522 131.792 175.571 131.856 181.201 138.698C184.569 142.793 184.562 149.424 184.492 155.206C184.429 159.505 184.492 170.384 184.492 170.384C184.492 170.384 185.235 184.126 180.116 185.34C173.813 186.835 168.33 185.806 163.631 181.724C158.933 177.642 156.244 171.911 155.172 166.072C154.101 160.233 153.499 154.279 154.339 148.408C154.782 144.806 156.087 141.336 158.162 138.244C159.344 136.554 160.905 135.111 162.742 134.01C164.579 132.909 166.65 132.175 168.82 131.856Z" fill="#4074BA"/>
<g opacity="0.3">
<path d="M208.077 185.691C203.875 187.773 200.969 190.872 197.573 193.925C194.177 196.979 190.332 199.937 185.668 201.036C181.004 202.135 175.395 200.825 173.063 196.998C186.207 199.043 201.466 189.466 205.976 178.012C205.707 179.007 205.692 180.045 205.934 181.046C206.542 182.633 207.258 184.185 208.077 185.691Z" fill="black"/>
</g>
<g opacity="0.3">
<path d="M155.817 182.529C156.273 184.079 157.072 185.529 158.164 186.787C159.256 188.046 160.619 189.088 162.168 189.85C162.887 190.123 163.561 190.487 164.171 190.929C164.471 191.156 164.69 191.461 164.798 191.802C164.907 192.144 164.901 192.508 164.78 192.846C164.558 193.19 164.212 193.454 163.801 193.591C163.389 193.729 162.939 193.732 162.525 193.6C161.719 193.303 161 192.839 160.424 192.245C158.135 190.227 155.775 188.182 155.13 185.346C155.503 184.933 155.762 184.444 155.887 183.921C155.919 183.456 155.895 182.989 155.817 182.529Z" fill="black"/>
</g>
<path d="M204.934 180.28C204.886 180.411 204.82 180.535 204.737 180.65C204.59 180.887 204.401 181.251 204.1 181.685C203.277 182.932 202.369 184.131 201.383 185.276C199.933 186.986 198.329 188.582 196.586 190.048C194.464 191.868 192.057 193.39 189.444 194.564C188.065 195.114 186.647 195.577 185.2 195.951C183.853 196.308 182.483 196.586 181.096 196.781C178.752 197.13 176.369 197.211 174.003 197.024C172.411 196.892 170.837 196.618 169.304 196.206C168.758 196.072 168.352 195.919 168.072 195.829C167.925 195.793 167.783 195.739 167.651 195.67C167.651 195.67 168.254 195.823 169.346 196.078C170.881 196.444 172.449 196.681 174.031 196.788C176.37 196.94 178.721 196.837 181.033 196.481C182.401 196.278 183.753 195.997 185.081 195.638C186.513 195.265 187.917 194.806 189.283 194.264C191.862 193.092 194.242 191.586 196.348 189.792C198.088 188.348 199.699 186.78 201.166 185.103C202.167 183.978 203.102 182.805 203.967 181.59C204.282 181.168 204.492 180.817 204.667 180.593C204.747 180.483 204.836 180.378 204.934 180.28Z" fill="#263238"/>
<path d="M172.7 192.13C172.433 192.23 172.153 192.296 171.867 192.328C171.095 192.456 170.312 192.52 169.528 192.52C166.909 192.528 164.337 191.883 162.091 190.655C159.845 189.426 158.009 187.661 156.783 185.55C156.411 184.917 156.104 184.254 155.866 183.57C155.764 183.323 155.698 183.066 155.669 182.803C156.067 183.702 156.515 184.58 157.014 185.435C158.266 187.471 160.078 189.173 162.271 190.374C164.464 191.575 166.963 192.233 169.521 192.284C171.488 192.335 172.693 192.06 172.7 192.13Z" fill="#263238"/>
<path d="M169.975 207.961C170.105 207.912 170.242 207.88 170.381 207.865C170.647 207.808 171.082 207.756 171.558 207.641C172.997 207.359 174.416 206.998 175.808 206.562C180.392 205.078 184.705 202.974 188.602 200.32C192.493 197.656 196.178 194.751 199.631 191.626L202.811 188.815C203.161 188.502 203.455 188.253 203.679 188.055C203.776 187.961 203.884 187.878 204.001 187.805C203.923 187.911 203.834 188.01 203.735 188.099L202.909 188.904C202.208 189.594 201.137 190.584 199.813 191.792C196.401 194.978 192.725 197.921 188.819 200.595C184.895 203.267 180.532 205.357 175.892 206.785C174.484 207.205 173.045 207.534 171.586 207.769C171.075 207.865 170.661 207.897 170.388 207.929C170.253 207.955 170.114 207.966 169.975 207.961Z" fill="#263238"/>
<path d="M416.582 221.364L391.876 194.788L391.82 194.839C390.847 193.964 389.993 193.184 389.558 192.731C381.001 183.685 374.202 180.593 361.1 180.427L335.638 180.925C330.904 181.283 320.162 179.436 310.225 191.453C292.123 212.145 277.607 229.745 278.426 238.05C279.456 248.559 323.39 278.521 323.39 278.521L383.781 278.476L383.655 274.279L409.712 258.851C419.11 253.057 424.019 247.991 425.209 240.325C426.252 233.502 421.617 226.474 416.582 221.364ZM305.94 237.181C305.94 235.565 315.463 225.376 320.645 219.933L323.341 243.461L322.879 252.654L305.94 237.181ZM382.556 251.664L381.12 220.655L400.812 239.238L382.556 251.664Z" fill="#464646"/>
<path d="M344.818 234.35L300.177 254.478C298.991 255.012 298.505 256.323 299.091 257.404L313.521 284.041C314.107 285.123 315.544 285.567 316.73 285.032L361.371 264.904C362.557 264.369 363.043 263.059 362.457 261.977L348.026 235.34C347.44 234.259 346.004 233.815 344.818 234.35Z" fill="#E0E0E0"/>
<path d="M330.583 257.19C331.05 256.93 331.591 256.802 332.137 256.822C332.684 256.842 333.212 257.009 333.654 257.303C334.096 257.597 334.433 258.004 334.622 258.472C334.811 258.941 334.843 259.45 334.715 259.935C334.586 260.42 334.303 260.86 333.901 261.198C333.499 261.536 332.996 261.758 332.455 261.836C331.915 261.913 331.361 261.843 330.865 261.634C330.368 261.424 329.951 261.085 329.666 260.659C329.283 260.088 329.165 259.402 329.337 258.751C329.509 258.101 329.957 257.539 330.583 257.19Z" fill="white"/>
<path d="M380.743 198.589C380.752 198.657 380.752 198.726 380.743 198.794C380.743 198.947 380.743 199.139 380.743 199.388C380.743 199.931 380.743 200.697 380.743 201.668C380.743 203.674 380.785 206.536 380.813 210.069C380.855 217.16 381.156 226.947 381.758 237.757C382.361 248.566 382.977 258.346 383.306 265.431C383.474 268.97 383.586 271.82 383.649 273.826C383.649 274.797 383.691 275.563 383.705 276.106C383.705 276.355 383.705 276.547 383.705 276.7C383.713 276.768 383.713 276.837 383.705 276.905C383.698 276.837 383.698 276.768 383.705 276.7C383.705 276.547 383.705 276.355 383.663 276.106C383.663 275.563 383.586 274.829 383.537 273.826C383.425 271.826 383.264 268.964 383.075 265.444C382.648 258.34 382.066 248.566 381.422 237.769C380.778 226.973 380.554 217.16 380.582 210.069C380.582 206.543 380.582 203.681 380.631 201.668C380.631 200.697 380.631 199.931 380.666 199.388C380.666 199.139 380.666 198.947 380.666 198.794C380.685 198.724 380.711 198.655 380.743 198.589Z" fill="#263238"/>
<path d="M317.865 184.694C321.086 182.554 324.833 183.199 328.061 185.333C331.289 187.467 333.082 191.083 333.404 194.705C333.726 198.327 332.704 201.956 331.198 205.316C328.768 210.701 325.176 215.058 319.805 220.604L305.968 237.181L332.683 260.972L321.612 276.905L299.245 260.48C291.605 254.596 285.107 248.578 280.338 242.356" fill="#464646"/>
<path d="M280.332 242.375L280.493 242.567L280.962 243.142C281.375 243.647 281.991 244.42 282.824 245.352C285.222 248.084 287.794 250.685 290.527 253.14C292.278 254.731 294.274 256.436 296.501 258.251C298.728 260.065 301.235 261.86 303.896 263.809L321.682 276.828L321.437 276.866C324.875 271.915 328.608 266.536 332.494 260.927V261.132L318.713 248.866L305.786 237.367L305.674 237.271L305.765 237.156C310.667 231.311 315.303 225.753 319.616 220.584C322.252 217.938 324.696 215.138 326.934 212.203C328.932 209.528 330.549 206.632 331.745 203.585C332.88 200.88 333.413 197.996 333.314 195.101C333.197 192.665 332.383 190.3 330.954 188.24C329.778 186.583 328.139 185.242 326.206 184.356C324.789 183.667 323.194 183.345 321.591 183.423C320.597 183.494 319.631 183.756 318.755 184.19C318.153 184.483 317.873 184.681 317.866 184.669L318.076 184.522C318.283 184.382 318.5 184.256 318.727 184.145C319.605 183.69 320.579 183.412 321.584 183.327C323.21 183.23 324.833 183.544 326.276 184.234C328.245 185.114 329.917 186.463 331.115 188.138C332.583 190.224 333.423 192.625 333.552 195.101C333.669 197.988 333.165 200.868 332.067 203.578C330.874 206.652 329.255 209.574 327.249 212.273C325.012 215.221 322.567 218.033 319.932 220.693C315.618 225.861 310.975 231.426 306.101 237.303V237.086L319.035 248.585L332.809 260.857L332.915 260.953L332.837 261.061C328.944 266.671 325.205 272.043 321.759 276.988L321.661 277.135L321.514 277.026L303.762 263.962C301.108 262.007 298.587 260.193 296.382 258.378C294.176 256.564 292.18 254.858 290.422 253.268C287.693 250.791 285.132 248.165 282.754 245.403C281.935 244.445 281.354 243.679 280.934 243.161C280.738 242.912 280.591 242.714 280.486 242.573C280.381 242.433 280.332 242.375 280.332 242.375Z" fill="#263238"/>
<path d="M410.413 238.798C409.936 238.696 409.468 238.564 409.012 238.402C406.773 237.753 404.351 237.869 402.199 238.728C401.761 238.931 401.31 239.108 400.847 239.258C401.207 238.942 401.627 238.689 402.087 238.51C403.164 238.012 404.343 237.726 405.549 237.668C406.755 237.611 407.961 237.785 409.089 238.178C409.567 238.312 410.015 238.522 410.413 238.798Z" fill="#263238"/>
<path d="M338.152 276.157L333.292 278.361C332.113 278.896 330.789 279.11 329.48 278.976C328.171 278.843 326.932 278.367 325.912 277.607L322.879 275.352L331.283 263.297C332.27 263.687 336.332 264.211 337.732 264.664C338.945 265.052 340.221 265.247 341.506 265.239C342.941 265.267 344.375 265.16 345.785 264.92C345.876 264.888 346.002 264.862 346.086 264.83C346.277 264.758 346.482 264.726 346.688 264.735C347.886 264.632 348.838 265.782 348.166 266.651C347.494 267.52 344.217 268.759 340.029 268.651H339.833C336.156 268.651 339.532 271.455 341.71 273.123C342.095 273.406 342.395 273.775 342.579 274.195C342.763 274.615 342.825 275.07 342.76 275.518C342.749 275.68 342.699 275.837 342.615 275.98C342.53 276.122 342.412 276.246 342.27 276.342C341.317 276.905 338.152 276.157 338.152 276.157Z" fill="#A36853"/>
<path d="M349.399 191.523C342.956 191.523 337.165 186.515 337.221 179.053L336.059 136.564H336.192C336.173 135.672 336.522 134.806 337.171 134.138C337.82 133.471 338.72 133.05 339.693 132.961L358.894 131.108C360.463 130.957 362.048 131.097 363.556 131.52C365.063 131.943 366.461 132.639 367.666 133.568C368.87 134.497 369.856 135.638 370.564 136.924C371.272 138.21 371.688 139.613 371.786 141.049C372.248 147.776 372.528 156.01 371.653 161.032C369.874 171.144 361.394 172.435 361.394 172.435L361.597 179.462C361.926 186.975 355.757 191.498 349.399 191.498V191.523Z" fill="#A36853"/>
<path d="M367.473 146.549C367.473 146.883 367.33 147.203 367.075 147.442C366.82 147.68 366.473 147.819 366.108 147.827C365.927 147.841 365.745 147.821 365.572 147.77C365.4 147.718 365.24 147.635 365.104 147.526C364.967 147.417 364.856 147.284 364.777 147.135C364.698 146.985 364.653 146.823 364.644 146.658C364.644 146.319 364.792 145.994 365.054 145.754C365.317 145.515 365.673 145.38 366.045 145.38C366.401 145.372 366.747 145.489 367.013 145.706C367.278 145.924 367.443 146.225 367.473 146.549Z" fill="#263238"/>
<path d="M369.797 145.348C369.622 145.52 368.551 144.792 366.996 144.799C365.442 144.805 364.356 145.495 364.195 145.329C364.034 145.163 364.293 144.945 364.783 144.62C365.444 144.202 366.228 143.979 367.031 143.981C367.824 143.976 368.599 144.2 369.244 144.62C369.734 144.971 369.895 145.271 369.797 145.348Z" fill="#263238"/>
<path d="M352.733 146.805C352.737 146.975 352.705 147.145 352.636 147.303C352.568 147.462 352.466 147.607 352.335 147.729C352.205 147.851 352.049 147.948 351.876 148.014C351.704 148.08 351.519 148.114 351.332 148.114C350.97 148.13 350.615 148.018 350.342 147.799C350.069 147.581 349.899 147.275 349.869 146.945C349.864 146.775 349.897 146.605 349.965 146.447C350.033 146.288 350.136 146.143 350.266 146.021C350.397 145.899 350.553 145.802 350.725 145.736C350.897 145.67 351.082 145.636 351.269 145.636C351.632 145.62 351.987 145.732 352.26 145.951C352.533 146.169 352.702 146.475 352.733 146.805Z" fill="#263238"/>
<path d="M354.791 145.61C354.616 145.782 353.537 145.054 351.99 145.054C350.442 145.054 349.343 145.757 349.189 145.584C349.105 145.514 349.287 145.207 349.777 144.881C350.435 144.461 351.221 144.237 352.025 144.243C352.818 144.238 353.592 144.461 354.238 144.881C354.721 145.226 354.882 145.533 354.791 145.61Z" fill="#263238"/>
<path d="M360.338 155.946C361.141 155.713 361.974 155.575 362.817 155.537C363.209 155.499 363.58 155.429 363.643 155.186C363.676 154.819 363.585 154.451 363.384 154.132C363.013 153.27 362.634 152.369 362.228 151.423C360.625 147.59 359.469 144.396 359.637 144.332C359.805 144.268 361.248 147.354 362.845 151.212C363.237 152.164 363.601 153.072 363.951 153.94C364.199 154.37 364.271 154.866 364.154 155.339C364.097 155.463 364.01 155.574 363.899 155.664C363.789 155.753 363.658 155.819 363.517 155.857C363.3 155.909 363.076 155.937 362.852 155.94C362.017 156.037 361.173 156.039 360.338 155.946Z" fill="#263238"/>
<path d="M361.394 172.435C356.182 172.505 351.051 171.256 346.57 168.825C346.57 168.825 350.407 176.421 361.478 175.476L361.394 172.435Z" fill="#8F5039"/>
<path d="M355.477 143.17C355.33 143.553 353.803 143.368 352.01 143.566C350.218 143.764 348.768 144.204 348.509 143.872C348.397 143.706 348.649 143.348 349.209 142.984C349.989 142.534 350.871 142.252 351.789 142.16C352.706 142.068 353.635 142.169 354.503 142.454C355.211 142.716 355.547 142.991 355.477 143.17Z" fill="#263238"/>
<path d="M369.244 141.317C368.978 141.636 367.921 141.317 366.66 141.317C365.4 141.317 364.321 141.528 364.076 141.195C363.964 141.036 364.139 140.723 364.601 140.422C365.225 140.054 365.96 139.873 366.702 139.905C367.445 139.913 368.166 140.137 368.761 140.544C369.216 140.838 369.363 141.163 369.244 141.317Z" fill="#263238"/>
<path d="M336.185 146.217C338.068 145.91 339.574 146.44 340.106 148.133C340.897 150.657 340.358 151.902 340.491 153.64L343.292 152.873C342.592 147.054 344.182 142.748 343.488 136.902C347.382 138.052 352.732 135.855 354.391 132.175C356.043 133.283 358.006 133.94 360.051 134.071C362.096 134.203 364.14 133.802 365.946 132.916C366.4 133.671 367.106 134.274 367.96 134.639C368.815 135.004 369.774 135.112 370.701 134.948C372.801 134.405 375.028 131.677 375.638 129.741C376.73 126.259 376.198 121.264 373.103 118.996C370.007 116.728 363.803 117.271 361.394 120.152C360.442 121.289 360.33 123.391 358.796 123.678C357.431 123.934 356.191 123.04 354.945 122.452C351.058 120.695 345.687 123.027 344.728 126.885C341.479 125.116 337.543 123.959 333.909 124.911C330.274 125.863 327.375 129.543 328.615 132.801C329.126 134.168 330.281 135.356 330.407 136.781C330.652 139.56 326.997 142.077 328.166 144.652C328.818 146.095 330.729 146.734 331.591 148.082C332.557 149.59 331.955 151.494 332.039 153.238C332.165 156.151 333.804 160.463 336.864 161.293" fill="#263238"/>
<path d="M336.472 146.185C336.002 146.246 335.56 146.421 335.19 146.692C334.82 146.963 334.537 147.319 334.371 147.724C333.964 148.499 333.769 149.351 333.804 150.21C333.742 151.551 334.214 152.867 335.134 153.915C335.606 154.424 336.24 154.786 336.948 154.95C337.657 155.113 338.403 155.071 339.084 154.828" fill="#A36853"/>
<path d="M338.384 152.637C338.384 152.669 337.971 152.81 337.32 152.599C336.944 152.467 336.612 152.247 336.36 151.96C336.057 151.589 335.879 151.144 335.849 150.682C335.814 150.24 335.914 149.798 336.136 149.405C336.324 149.082 336.593 148.804 336.921 148.593C337.495 148.248 337.943 148.267 337.936 148.306C337.638 148.445 337.352 148.605 337.082 148.785C336.777 149.016 336.54 149.312 336.388 149.645C336.237 149.979 336.177 150.342 336.213 150.701C336.233 151.056 336.355 151.4 336.568 151.697C336.781 151.995 337.077 152.235 337.425 152.394C337.737 152.498 338.058 152.579 338.384 152.637Z" fill="#8F5039"/>
<path d="M355.477 160.878C356.878 161.753 359.525 161.293 360.519 159.997C358.382 158.934 356.413 157.612 354.665 156.068C354.665 156.068 352.676 159.083 355.477 160.878Z" fill="#FAFAFA"/>
<path d="M359.994 163.83C359.425 163.623 358.826 163.494 358.215 163.447C357.607 163.493 357.008 163.615 356.437 163.811C356.437 163.811 356.542 163.613 356.857 163.44C357.271 163.223 357.741 163.108 358.219 163.108C358.697 163.108 359.166 163.223 359.581 163.44C359.896 163.625 360.036 163.798 359.994 163.83Z" fill="#AA6550"/>
<path d="M342.955 204.735C345.911 200.757 348.598 196.618 351.002 192.341C353.894 187.307 353.403 187.052 352.71 186.828C350.847 186.221 347.255 195.497 346.779 193.07C346.303 190.642 352.591 182.209 350.616 181.673C348.039 180.944 344.475 190.725 344.111 191.53C343.747 192.335 342.465 191.843 342.843 191.134C343.383 190.118 348.747 179.264 346.219 178.53C344.818 178.127 344.314 180.516 344.314 180.516C344.314 180.516 340.112 191.025 338.929 190.642C337.745 190.259 339.979 184.004 340.897 181.947C341.814 179.89 341.128 178.67 339.818 179.028C338.922 179.271 335.946 185.506 335.091 187.556C334.237 189.607 331.996 195.286 330.638 191.613C330.638 191.556 330.589 191.504 330.561 191.447C329.335 187.793 327.059 185.352 325.876 185.059C324.693 184.765 323.831 185.953 324.321 186.975C324.384 187.153 324.49 187.317 324.629 187.454C324.693 187.518 324.756 187.614 324.819 187.684C325.521 188.825 326.093 190.028 326.527 191.274C326.942 192.385 327.148 193.551 327.136 194.724C327.136 196.085 327.837 200.046 327.781 201.023" fill="#FFAD9D"/>
<path d="M327.081 199.573L310.141 230.237C310.141 230.237 300.561 204.958 295.393 194.903C293.426 191.07 289.476 188.412 285.688 186.649V186.579L284.897 186.291C282.178 185.106 279.321 184.204 276.381 183.602C258.51 178.932 241.676 180.561 222.188 186.796C222.188 186.796 212.069 189.275 207.16 201.317C202.748 212.177 197.797 228.787 196.95 231.726C190.879 250.367 199.548 260.749 211.614 259.471C216.586 258.755 220.815 254.999 222.685 253.542L229.064 248.074L229.204 252.309L222.041 278.47L295.386 278.329L282.151 247.352L285.093 233.151L290.128 244.062C291.709 247.493 294.354 250.428 297.738 252.508C301.121 254.587 305.097 255.721 309.176 255.769C313.256 255.817 317.262 254.778 320.704 252.779C324.146 250.78 326.873 247.908 328.551 244.516L345.701 205.125L327.081 199.573Z" fill="#4074BA"/>
<path d="M238.756 237.802C238.562 238.105 238.342 238.393 238.097 238.664C237.656 239.201 236.991 239.974 236.144 240.9C234.456 242.759 232.026 245.257 229.204 247.895C226.382 250.534 223.693 252.802 221.676 254.367C220.675 255.159 219.842 255.772 219.253 256.181C218.964 256.421 218.65 256.635 218.315 256.82C218.576 256.563 218.859 256.326 219.162 256.111C219.722 255.67 220.528 255.025 221.508 254.194C223.469 252.578 226.123 250.291 228.938 247.659C231.753 245.027 234.218 242.548 235.941 240.747C236.816 239.839 237.502 239.092 237.978 238.581C238.212 238.301 238.472 238.04 238.756 237.802Z" fill="#263238"/>
<path d="M282.389 246.355C282.384 246.235 282.396 246.115 282.425 245.997C282.481 245.729 282.537 245.397 282.614 244.988L283.377 241.27C284.021 238.133 284.903 233.802 285.604 228.979C285.781 227.773 285.94 226.6 286.08 225.459C286.253 224.374 286.321 223.277 286.283 222.181C286.153 220.324 285.851 218.479 285.38 216.668C285.001 215.109 284.679 213.857 284.462 212.982C284.364 212.541 284.308 212.196 284.28 211.966C284.263 211.845 284.263 211.723 284.28 211.602C284.325 211.715 284.353 211.834 284.364 211.954C284.413 212.184 284.497 212.522 284.616 212.957C284.847 213.819 285.233 215.058 285.646 216.617C286.159 218.436 286.489 220.295 286.633 222.169C286.675 223.279 286.614 224.39 286.451 225.491C286.318 226.634 286.157 227.816 285.982 229.023C285.282 233.859 284.35 238.191 283.643 241.315C283.279 242.842 282.985 244.094 282.768 245.014C282.663 245.416 282.579 245.748 282.516 246.017C282.486 246.133 282.444 246.246 282.389 246.355Z" fill="#263238"/>
<path d="M308.649 237.738C308.916 235.219 309.425 232.726 310.169 230.289C310.092 231.563 309.893 232.828 309.574 234.071C309.38 235.315 309.071 236.541 308.649 237.738Z" fill="#263238"/>
<path d="M311.233 238.645C310.882 237.225 310.647 235.784 310.533 234.332C310.287 232.893 310.163 231.439 310.162 229.982C310.513 231.401 310.747 232.843 310.862 234.294C311.107 235.734 311.231 237.188 311.233 238.645Z" fill="#263238"/>
<path d="M257.131 278.33C257.033 278.33 256.949 268.057 256.949 255.395C256.949 242.733 257.033 232.454 257.131 232.454C257.229 232.454 257.313 242.72 257.313 255.395C257.313 268.07 257.229 278.33 257.131 278.33Z" fill="#263238"/>
<g opacity="0.2">
<path d="M284.651 213.455C288.089 219.467 291.079 225.446 291.352 232.224C291.563 237.495 289.252 241.89 291.64 246.694C291.52 246.777 289.483 242.637 288.579 240.695C286.724 236.696 285.078 233.125 285.078 233.125C285.078 233.125 286.353 224.098 286.479 222.559C286.605 221.019 284.651 213.455 284.651 213.455Z" fill="black"/>
</g>
<g opacity="0.2">
<path d="M199.548 243.998C199.548 247.013 197.496 237.06 199.415 234.614C200.766 232.895 203.077 232.058 205.318 231.553C207.559 231.049 209.905 230.71 211.894 229.637C214.464 228.251 216.095 225.804 217.895 223.657C219.695 221.511 222.096 212.318 225.066 212.12V225.536C217.955 229.735 210.559 233.518 202.923 236.862C201.836 237.764 200.972 238.867 200.39 240.097C199.808 241.328 199.521 242.658 199.548 243.998Z" fill="black"/>
</g>
<g opacity="0.2">
<path d="M229.043 248.08C233.84 245.621 237.341 242.331 242.761 241.481C247.978 240.638 253.349 241.481 258.629 241.149C258.344 238.717 258.053 236.281 257.754 233.84L242.649 233.687L229.043 248.08Z" fill="black"/>
</g>
<path d="M225.066 211.967C225.164 211.967 225.248 214.95 225.248 218.63C225.248 222.31 225.164 225.299 225.066 225.299C224.881 223.08 224.82 220.854 224.884 218.63C224.82 216.407 224.881 214.183 225.066 211.967Z" fill="#263238"/>
<path d="M199.534 243.928C199.421 243.541 199.392 243.137 199.45 242.74C199.521 241.777 199.772 240.833 200.192 239.948C200.607 239.063 201.188 238.25 201.908 237.546C202.184 237.236 202.521 236.976 202.902 236.779C201.959 237.783 201.161 238.893 200.528 240.082C200.006 241.317 199.671 242.611 199.534 243.928Z" fill="#263238"/>
<path d="M202.552 236.983C202.93 236.892 203.298 236.77 203.652 236.619C204.352 236.364 205.36 235.98 206.586 235.45C209.037 234.428 212.377 232.895 215.92 230.978C219.464 229.062 222.552 227.177 224.716 225.733C225.801 225.005 226.669 224.405 227.251 223.977C227.566 223.767 227.861 223.534 228.133 223.28C227.789 223.451 227.461 223.648 227.153 223.868L224.555 225.529C222.349 226.922 219.254 228.781 215.717 230.678C212.181 232.575 208.876 234.121 206.46 235.201L203.589 236.479C203.227 236.618 202.881 236.787 202.552 236.983Z" fill="#263238"/>
<path d="M294.566 154.739C293.362 153.302 291.45 152.184 291.065 150.427C290.582 148.069 293.166 145.859 292.697 143.495C292.389 141.879 290.757 140.742 289.09 140.116C287.424 139.49 285.589 139.189 284.062 138.353C282.23 137.28 280.823 135.699 280.05 133.842C279.821 133.335 279.623 132.817 279.455 132.29C279.298 131.161 279.015 130.05 278.607 128.974C278.544 128.693 278.488 128.412 278.432 128.131L278.509 128.77C278.277 128.238 277.971 127.736 277.599 127.275C276.317 125.716 273.755 124.847 271.997 125.94L272.837 125.429C271.775 123.084 270.067 121.03 267.88 119.463C265.693 117.896 263.1 116.87 260.351 116.485C259.303 116.351 258.242 116.319 257.186 116.389C253.412 116.21 247.957 117.213 245.653 118.548C242.712 120.248 239.701 122.58 238.223 125.461C237.432 127.013 236.892 128.808 235.422 129.843C233.419 131.223 230.611 130.686 228.111 130.942C223.994 131.37 220.408 134.251 219.008 137.81C218.356 139.611 218.121 141.516 218.319 143.404C218.517 145.292 219.142 147.122 220.156 148.778C220.59 149.513 221.101 150.363 220.758 151.136C220.403 151.71 219.849 152.159 219.183 152.414C217.504 153.204 216.163 154.483 215.373 156.049C214.673 157.639 214.939 159.652 216.354 160.776C216.947 161.207 217.656 161.486 218.407 161.584C219.158 161.682 219.924 161.595 220.625 161.332C220.208 162.294 219.987 163.318 219.974 164.353C219.944 165.484 220.248 166.602 220.852 167.59C221.457 168.577 222.341 169.399 223.412 169.969C225.604 171.01 228.671 170.461 229.96 168.538C229.952 169.956 230.364 171.349 231.153 172.57C231.943 173.792 233.08 174.796 234.443 175.475C235.807 176.155 237.347 176.485 238.9 176.432C240.453 176.378 241.962 175.941 243.265 175.169C244.301 174.53 245.366 173.687 246.591 173.891C247.817 174.096 248.51 175.169 249.35 175.948C251.591 178.076 255.415 178.319 258.363 177.111C261.311 175.904 263.482 173.489 265.043 170.908C265.588 171.651 266.351 172.239 267.245 172.605C268.139 172.97 269.128 173.098 270.098 172.974C271.069 172.85 271.981 172.479 272.73 171.903C273.48 171.328 274.036 170.571 274.336 169.72C275.427 171.008 276.926 171.959 278.63 172.445C280.333 172.93 282.159 172.927 283.86 172.435C285.562 171.943 287.056 170.986 288.142 169.694C289.228 168.401 289.852 166.836 289.931 165.21C291.162 165.043 292.325 164.587 293.304 163.886C294.283 163.184 295.045 162.262 295.514 161.209C295.983 160.157 296.143 159.012 295.978 157.886C295.813 156.76 295.329 155.693 294.573 154.79L294.566 154.739ZM224.141 156.713C224.141 156.713 224.141 156.713 224.141 156.675L224.211 156.643L224.141 156.713Z" fill="#263238"/>
<path d="M268.567 172.742C268.567 172.742 277.537 171.387 279.393 160.712C280.317 155.403 280.023 146.702 279.533 139.592C279.429 138.074 278.989 136.591 278.24 135.233C277.492 133.874 276.449 132.668 275.176 131.686C273.903 130.704 272.426 129.967 270.832 129.52C269.239 129.073 267.563 128.924 265.906 129.083L245.598 131.044C244.568 131.144 243.617 131.593 242.934 132.304C242.252 133.014 241.888 133.933 241.914 134.877L244.05 181.245C242.573 181.532 239.218 182.196 237.573 182.631C237.573 182.631 253.273 214.643 257.117 214.273C260.962 213.902 276.325 183.608 276.325 183.608C273.65 182.873 270.934 182.265 268.188 181.788C268.145 178.768 268.271 175.749 268.567 172.742Z" fill="#FFAD9D"/>
<path d="M274.994 145.405C274.998 145.762 274.849 146.105 274.58 146.363C274.311 146.62 273.942 146.772 273.552 146.785C273.36 146.804 273.166 146.786 272.982 146.733C272.798 146.68 272.628 146.593 272.483 146.477C272.337 146.361 272.22 146.22 272.137 146.06C272.055 145.901 272.01 145.728 272.004 145.552C272 145.196 272.149 144.853 272.418 144.595C272.687 144.337 273.056 144.186 273.447 144.172C273.637 144.159 273.829 144.18 274.011 144.234C274.193 144.289 274.361 144.377 274.505 144.492C274.649 144.606 274.767 144.746 274.851 144.903C274.935 145.06 274.984 145.231 274.994 145.405Z" fill="#263238"/>
<path d="M277.466 144.141C277.277 144.319 276.143 143.553 274.525 143.559C272.908 143.566 271.724 144.3 271.556 144.121C271.465 144.038 271.654 143.719 272.172 143.374C272.877 142.939 273.71 142.71 274.56 142.716C275.4 142.715 276.219 142.956 276.899 143.406C277.361 143.738 277.557 144.064 277.466 144.141Z" fill="#263238"/>
<path d="M259.414 145.68C259.418 146.037 259.268 146.382 258.997 146.64C258.726 146.898 258.355 147.048 257.964 147.06C257.772 147.079 257.578 147.061 257.394 147.008C257.211 146.955 257.041 146.868 256.895 146.752C256.75 146.636 256.632 146.494 256.55 146.335C256.468 146.176 256.422 146.003 256.417 145.827C256.413 145.47 256.562 145.126 256.833 144.868C257.104 144.61 257.475 144.459 257.866 144.447C258.057 144.433 258.249 144.454 258.431 144.509C258.613 144.564 258.78 144.651 258.925 144.766C259.069 144.881 259.186 145.021 259.27 145.178C259.354 145.335 259.403 145.506 259.414 145.68Z" fill="#263238"/>
<path d="M261.591 144.415C261.409 144.594 260.268 143.828 258.657 143.834C257.046 143.84 255.856 144.575 255.681 144.396C255.597 144.313 255.786 143.994 256.304 143.649C257.004 143.208 257.835 142.974 258.685 142.978C259.525 142.978 260.343 143.219 261.024 143.668C261.514 143.994 261.682 144.339 261.591 144.415Z" fill="#263238"/>
<path d="M267.453 155.339C268.305 155.096 269.187 154.952 270.079 154.911C270.485 154.873 270.877 154.796 270.947 154.541C270.983 154.151 270.888 153.761 270.674 153.423C270.282 152.516 269.883 151.557 269.456 150.561C267.761 146.485 266.536 143.131 266.718 143.067C266.9 143.003 268.412 146.261 270.107 150.344L271.276 153.225C271.537 153.678 271.612 154.202 271.486 154.701C271.425 154.836 271.33 154.956 271.208 155.051C271.087 155.147 270.942 155.215 270.786 155.25C270.557 155.304 270.322 155.334 270.086 155.339C269.212 155.438 268.327 155.438 267.453 155.339Z" fill="#263238"/>
<path d="M268.566 172.742C263.056 172.812 257.633 171.485 252.901 168.908C252.901 168.908 256.704 176.236 268.412 175.239L268.566 172.742Z" fill="#ED9482"/>
<path d="M262.908 157.646C263.263 157.418 263.666 157.259 264.091 157.179C264.305 157.143 264.527 157.17 264.724 157.255C264.921 157.339 265.084 157.478 265.19 157.652C265.235 157.78 265.291 157.904 265.359 158.023C265.597 158.316 266.094 158.208 266.472 158.31C266.615 158.365 266.744 158.445 266.853 158.546C266.962 158.647 267.047 158.767 267.105 158.898C267.163 159.029 267.192 159.169 267.19 159.311C267.189 159.452 267.156 159.592 267.095 159.722C266.954 159.981 266.758 160.212 266.517 160.401C266.277 160.59 265.997 160.733 265.695 160.821C264.902 161.119 264.039 161.226 263.188 161.134C262.89 161.123 262.598 161.055 262.331 160.934C262.064 160.813 261.829 160.642 261.64 160.431C261.463 160.149 261.381 159.826 261.402 159.501C261.423 159.177 261.547 158.865 261.759 158.604C262.194 158.084 262.74 157.65 263.363 157.326" fill="#ED9482"/>
<path d="M262.705 156.362C262.964 156.362 262.971 157.946 264.47 159.077C265.968 160.207 267.831 160.035 267.845 160.259C267.845 160.361 267.432 160.572 266.64 160.591C265.621 160.6 264.63 160.283 263.839 159.696C263.066 159.131 262.564 158.313 262.439 157.416C262.39 156.77 262.586 156.349 262.705 156.362Z" fill="#263238"/>
<path d="M262.32 141.841C262.159 142.237 260.548 142.052 258.657 142.256C256.767 142.46 255.226 142.94 254.981 142.575C254.869 142.409 255.135 142.032 255.751 141.643C256.577 141.167 257.511 140.87 258.481 140.772C259.452 140.675 260.434 140.78 261.353 141.081C262.04 141.336 262.39 141.649 262.32 141.841Z" fill="#263238"/>
<path d="M276.871 140.799C276.584 141.138 275.471 140.799 274.133 140.799C272.796 140.799 271.668 141.023 271.409 140.672C271.29 140.505 271.472 140.167 271.962 139.854C272.627 139.474 273.401 139.283 274.185 139.305C274.969 139.326 275.729 139.56 276.367 139.975C276.843 140.307 276.997 140.652 276.871 140.799Z" fill="#263238"/>
<path d="M272.691 127.524C272.254 129.415 271.406 131.207 270.198 132.795C268.989 134.382 267.445 135.733 265.655 136.767C263.866 137.801 261.867 138.498 259.778 138.817C257.688 139.135 255.55 139.069 253.489 138.621C253.151 140.966 252.155 143.191 250.598 145.082C249.041 146.974 246.977 148.467 244.603 149.417C247.841 154.773 249.161 160.918 248.377 166.992C248.034 169.547 247.215 172.275 245.086 174.019C241.837 176.677 236.361 176.032 233.238 173.259C230.24 170.595 229.183 166.43 230.03 162.693C230.878 158.955 233.448 155.665 236.676 153.263C235.316 153.051 234.048 152.497 233.014 151.663C231.981 150.829 231.223 149.748 230.826 148.543C230.428 147.337 230.408 146.055 230.766 144.839C231.124 143.624 231.846 142.523 232.852 141.662C233.77 140.87 234.953 140.282 235.654 139.317C236.354 138.353 236.466 137.279 236.865 136.251C237.908 133.561 240.541 131.702 243.048 129.99C245.149 128.546 247.502 127.039 250.149 127.045C251.55 127.045 252.95 127.492 254.351 127.32C256.276 127.084 257.782 125.748 259.372 124.765C261.583 123.263 264.334 122.579 267.074 122.848C269.784 123.238 272.312 125.084 272.824 127.537" fill="#263238"/>
<path d="M271.647 128.578C271.234 130.642 272.348 132.756 274.042 134.2C275.737 135.644 277.831 136.538 279.924 137.394C279.195 135.365 278.175 133.432 276.892 131.645C276.245 130.747 275.409 129.976 274.433 129.375C273.457 128.774 272.36 128.356 271.206 128.144" fill="#263238"/>
<path d="M220.192 153.186C220.112 152.971 220.09 152.741 220.129 152.516C220.233 151.863 220.609 151.273 221.179 150.867C222.101 150.255 223.238 149.973 224.373 150.075C225.682 150.075 227.132 150.471 228.735 150.382C229.603 150.315 230.441 150.062 231.181 149.644C231.921 149.225 232.542 148.653 232.993 147.974C233.493 147.214 233.768 146.349 233.791 145.463C233.861 144.549 233.791 143.591 233.826 142.594C233.837 141.55 234.193 140.532 234.849 139.675C235.578 138.819 236.545 138.157 237.65 137.758C239.855 136.845 242.369 136.832 244.778 136.423C245.974 136.246 247.126 135.878 248.182 135.337C249.171 134.762 250.03 134.018 250.71 133.146C252.075 131.434 252.992 129.524 254.246 127.895C255.752 125.849 257.969 124.324 260.539 123.565C263.109 122.807 265.885 122.858 268.419 123.71C269.47 124.057 270.463 124.536 271.367 125.135C272.152 125.627 272.848 126.226 273.433 126.911C273.382 126.877 273.335 126.839 273.293 126.796L272.908 126.445C272.404 126.006 271.863 125.605 271.29 125.243C269.167 123.908 266.635 123.217 264.057 123.269C262.163 123.328 260.312 123.794 258.654 124.629C256.995 125.464 255.576 126.644 254.512 128.074C253.287 129.671 252.376 131.581 251.011 133.344C250.304 134.252 249.41 135.024 248.378 135.618C247.293 136.182 246.108 136.565 244.876 136.749C242.411 137.164 239.975 137.177 237.818 138.027C236.771 138.407 235.853 139.033 235.157 139.841C234.536 140.646 234.199 141.604 234.19 142.588C234.127 143.553 234.19 144.505 234.141 145.456C234.106 146.389 233.81 147.297 233.28 148.095C232.802 148.806 232.144 149.403 231.362 149.837C230.58 150.27 229.697 150.527 228.784 150.586C227.111 150.663 225.668 150.267 224.387 150.235C223.295 150.118 222.193 150.37 221.291 150.944C220.737 151.325 220.358 151.881 220.227 152.503C220.184 152.729 220.172 152.958 220.192 153.186Z" fill="#FAFAFA"/>
<path d="M237.586 202.499L238.328 219.518L240.205 235.808L260.043 235.035L258.615 202.869L237.586 202.499Z" fill="#263238"/>
<path d="M234.673 202.441L235.416 219.518L237.292 235.808L257.131 235.035L255.702 202.818L234.673 202.441Z" fill="#464646"/>
<path d="M232.81 237.801C238.075 237.582 243.321 237.07 248.517 236.268C254.665 235.367 254.602 234.863 254.385 234.217C253.797 232.492 243.503 235.418 245.352 233.617C247.201 231.815 258.356 231.381 257.656 229.605C256.752 227.286 246.031 230.531 245.107 230.742C244.182 230.953 243.846 229.733 244.694 229.579C245.912 229.362 258.65 226.794 257.782 224.507C257.305 223.229 254.903 224.302 254.903 224.302C254.903 224.302 243.153 227.497 242.782 226.43C242.411 225.363 249.245 223.236 251.598 222.661C253.951 222.086 254.616 220.866 253.517 220.105C252.768 219.601 245.513 221.153 243.202 221.76C240.891 222.367 234.561 224.117 236.97 220.923C237.012 220.872 237.04 220.821 237.075 220.77C239.547 217.69 240.324 214.567 239.876 213.519C239.428 212.471 237.866 212.567 237.271 213.519C237.154 213.672 237.073 213.846 237.033 214.03C237.033 214.113 236.97 214.222 236.942 214.311C236.37 215.504 235.666 216.641 234.841 217.703C234.116 218.674 233.214 219.523 232.173 220.214C230.975 221.012 227.971 223.938 227.026 224.456" fill="#FFAD9D"/>
<path d="M228.266 223.517L238.756 237.801L221.466 253.887L222.055 227.797L228.266 223.517Z" fill="#4074BA"/>
</svg>
